<?xml version="1.0" encoding="iso-8859-1"?>
<!-- Uploaded to: SVG Repo, www.svgrepo.com, Generator: SVG Repo Mixer Tools -->
<!DOCTYPE svg PUBLIC "-//W3C//DTD SVG 1.1//EN" "http://www.w3.org/Graphics/SVG/1.1/DTD/svg11.dtd">
<svg fill="#000000" height="800px" width="800px" version="1.1" id="Capa_1" xmlns="http://www.w3.org/2000/svg" xmlns:xlink="http://www.w3.org/1999/xlink" 
	 viewBox="0 0 280.911 280.911" xml:space="preserve">
<g>
	<path d="M185.791,141.717c-0.138-0.101-13.941-10.167-22.569-18.795c-8.625-8.626-18.694-22.431-18.795-22.568
		c-1.155-1.59-2.836-2.502-4.608-2.502c-1.644,0-3.201,0.764-4.386,2.151l-66.78,78.224c-1.975,2.313-2.257,5.672-0.929,8.308
		l-8.959,15.941c-11.287-2.071-23.787,1.91-32.554,11.539c-19.181,21.065,4.414,38.767-23.816,54.193
		c-15.755,8.61,50.593,12.973,71.892-10.419c7.933-8.713,10.976-20.036,9.175-30.295l16.149-9.075
		c1.053,0.53,2.24,0.821,3.457,0.821c0,0,0,0,0.001,0c1.805,0,3.527-0.621,4.849-1.75l78.224-66.78
		c1.452-1.239,2.215-2.868,2.148-4.588C188.222,144.405,187.335,142.839,185.791,141.717z"/>
	<path d="M280.911,42.128c0-9.704-3.779-18.826-10.641-25.688c-6.861-6.861-15.983-10.64-25.687-10.64
		c-9.704,0-18.826,3.778-25.688,10.64c-0.163,0.162-0.315,0.332-0.474,0.497c-0.724,0.339-1.393,0.797-1.973,1.378L169.46,65.304
		c-2.663,2.664-3.098,7.358-0.97,10.466c0.099,0.144,9.941,14.468,18.679,23.205c8.737,8.737,23.063,18.58,23.206,18.679
		c1.296,0.888,2.878,1.357,4.574,1.357c2.265,0,4.412-0.849,5.891-2.327l45.326-45.326c1.441-1.069,2.813-2.251,4.105-3.543
		C277.132,60.954,280.911,51.831,280.911,42.128z"/>
</g>
</svg>