<?xml version="1.0" encoding="iso-8859-1"?>
<!-- Uploaded to: SVG Repo, www.svgrepo.com, Generator: SVG Repo Mixer Tools -->
<!DOCTYPE svg PUBLIC "-//W3C//DTD SVG 1.1//EN" "http://www.w3.org/Graphics/SVG/1.1/DTD/svg11.dtd">
<svg fill="#ffffff" version="1.1" id="Capa_1" xmlns="http://www.w3.org/2000/svg" xmlns:xlink="http://www.w3.org/1999/xlink" 
	 width="800px" height="800px" viewBox="0 0 479.759 479.759"
	 xml:space="preserve">
<g>
	<path d="M436.979,53.755h-20.604V8.063c0-4.451-3.606-8.063-8.063-8.063H67.867c-4.458,0-8.063,3.612-8.063,8.063v45.691H42.78
		c-4.457,0-8.063,3.611-8.063,8.062c0,4.452,3.607,8.063,8.063,8.063h17.024v45.691c0,4.451,3.606,8.062,8.063,8.062h340.439
		c4.456,0,8.063-3.611,8.063-8.062V69.88h12.54v65.649l-194.246,91.001c-2.832,1.328-4.643,4.17-4.643,7.3v38.834h-20.604
		c-4.458,0-8.063,3.612-8.063,8.063v190.969c0,4.451,3.606,8.062,8.063,8.062h59.13c4.456,0,8.062-3.61,8.062-8.062V280.729
		c0-4.451-3.605-8.063-8.062-8.063h-22.4v-33.706l194.254-91.002c2.831-1.327,4.641-4.169,4.641-7.299V61.817
		C445.042,57.366,441.431,53.755,436.979,53.755z M385.015,37.628H257.797c-4.459,0-8.063-3.612-8.063-8.063
		s3.604-8.063,8.063-8.063h127.218c4.457,0,8.063,3.612,8.063,8.063S389.472,37.628,385.015,37.628z M247.045,295.81
		c4.457,0,8.063,3.611,8.063,8.062v98.39c0,4.453-3.606,8.063-8.063,8.063c-4.456,0-8.063-3.61-8.063-8.063v-98.39
		C238.982,299.421,242.589,295.81,247.045,295.81z"/>
</g>
</svg>