<svg xmlns="http://www.w3.org/2000/svg" xmlns:xlink="http://www.w3.org/1999/xlink" width="500" zoomAndPan="magnify" viewBox="0 0 375 374.999991" height="500" preserveAspectRatio="xMidYMid meet" version="1.0"><defs><clipPath id="dec5aa4378"><path d="M 86.804688 180.75 L 375 180.75 L 375 375 L 86.804688 375 Z M 86.804688 180.75 " clip-rule="nonzero"/></clipPath><clipPath id="070157fcd4"><path d="M 2 251.640625 L 92.25 251.640625 L 92.25 374.640625 L 2 374.640625 Z M 2 251.640625 " clip-rule="nonzero"/></clipPath></defs><rect x="-37.5" width="450" fill="#ffffff" y="-37.499999" height="449.999989" fill-opacity="1"/><rect x="-37.5" width="450" fill="#ffffff" y="-37.499999" height="449.999989" fill-opacity="1"/><g clip-path="url(#dec5aa4378)"><path fill="#19345f" d="M 712.761719 387.660156 L 712.761719 180.898438 C 697.816406 185.945312 684.976562 196.707031 676.242188 209.921875 C 669.882812 219.535156 665.421875 230.546875 657.398438 238.820312 C 640.953125 255.785156 614.097656 256.9375 590.832031 252.800781 C 567.574219 248.660156 544.53125 240.363281 521 242.507812 C 482.34375 246.035156 452.175781 276.363281 416.785156 292.3125 C 408.367188 296.105469 399.292969 299.140625 390.074219 298.546875 C 372.570312 297.410156 358.734375 283.816406 342.652344 276.824219 C 291.21875 254.457031 228.792969 302.277344 177.503906 279.59375 C 160.644531 272.140625 147.046875 257.617188 129.125 253.328125 C 116.496094 250.300781 103.21875 252.773438 90.296875 251.496094 C 89.148438 251.378906 87.992188 251.207031 86.839844 251 L 86.839844 387.644531 L 712.761719 387.644531 Z M 712.761719 387.660156 " fill-opacity="1" fill-rule="nonzero"/></g><g clip-path="url(#070157fcd4)"><path fill="#19345f" d="M 2.117188 374.992188 C 2.117188 374.992188 0.015625 351.214844 29.039062 346.585938 C 58.066406 341.960938 67.742188 325.132812 63.957031 300.734375 C 60.171875 276.335938 69.207031 253.03125 92.03125 251.640625 L 92.03125 374.992188 L 2.117188 374.992188 " fill-opacity="1" fill-rule="nonzero"/></g></svg>