<svg xmlns="http://www.w3.org/2000/svg" xmlns:xlink="http://www.w3.org/1999/xlink" width="1080" zoomAndPan="magnify" viewBox="0 0 810 809.999993" height="1080" preserveAspectRatio="xMidYMid meet" version="1.0"><defs><g/></defs><g fill="#000000" fill-opacity="1"><g transform="translate(80.999999, 460.117014)"><g><path d="M 100.355469 6.148438 C 101.183594 5.316406 100.1875 2.992188 99.191406 3.488281 C 98.359375 3.820312 98.027344 1.828125 97.53125 -5.152344 C 97.199219 -10.46875 97.863281 -19.441406 99.191406 -27.414062 C 99.523438 -29.90625 100.355469 -34.890625 101.019531 -38.714844 C 102.183594 -46.023438 104.34375 -55.828125 107.832031 -69.949219 C 112.152344 -87.230469 112.980469 -94.871094 111.320312 -100.6875 C 110.324219 -103.84375 107.167969 -107.5 104.34375 -108.996094 C 103.34375 -109.328125 101.851562 -110.65625 101.183594 -111.652344 C 98.195312 -115.308594 95.203125 -115.972656 91.382812 -113.480469 C 88.558594 -111.652344 86.894531 -109.824219 84.570312 -106.003906 C 79.753906 -98.527344 72.109375 -80.914062 66.460938 -64.132812 C 64.464844 -58.652344 62.636719 -53.167969 62.140625 -52.171875 C 61.308594 -50.34375 61.308594 -50.507812 61.640625 -54.332031 C 61.808594 -56.324219 62.636719 -62.472656 63.46875 -67.789062 C 65.296875 -78.753906 65.464844 -80.582031 64.300781 -83.242188 C 63.304688 -85.734375 61.476562 -87.0625 56.824219 -89.390625 C 54.664062 -90.550781 52.835938 -91.714844 52.667969 -92.214844 C 52.503906 -92.878906 51.507812 -93.542969 50.507812 -93.875 C 46.855469 -95.039062 44.195312 -92.710938 39.710938 -84.738281 C 37.382812 -80.25 35.886719 -76.925781 27.914062 -56.65625 L 21.765625 -41.371094 L 22.097656 -45.855469 C 22.597656 -53.335938 25.253906 -67.625 28.578125 -80.914062 C 32.566406 -96.367188 32.730469 -99.855469 30.238281 -102.183594 C 29.242188 -103.011719 28.246094 -103.675781 28.078125 -103.511719 C 27.746094 -103.511719 27.582031 -103.675781 27.582031 -104.011719 C 27.582031 -104.507812 27.414062 -104.507812 26.917969 -104.011719 C 26.25 -103.511719 26.085938 -103.675781 25.753906 -104.507812 C 25.421875 -105.671875 25.421875 -105.835938 24.757812 -104.839844 C 23.925781 -103.84375 23.925781 -103.84375 23.925781 -105.171875 C 23.925781 -106.003906 23.757812 -106.503906 23.425781 -106.335938 C 23.09375 -106.167969 22.597656 -106.667969 22.265625 -107.332031 C 21.933594 -108.496094 21.433594 -108.660156 19.9375 -108.660156 C 19.105469 -108.660156 17.777344 -108.328125 17.113281 -107.832031 C 14.621094 -105.671875 12.128906 -99.027344 8.472656 -84.070312 C 1.992188 -58.984375 0 -39.046875 2.992188 -29.078125 C 4.984375 -21.933594 9.804688 -16.28125 13.957031 -16.28125 C 14.953125 -16.28125 16.117188 -15.785156 16.949219 -15.121094 C 18.441406 -13.625 21.101562 -13.457031 21.765625 -14.621094 C 22.097656 -15.285156 22.761719 -17.777344 23.425781 -20.269531 C 25.917969 -31.070312 34.0625 -53 39.542969 -63.304688 C 43.863281 -71.445312 44.03125 -71.445312 42.699219 -62.972656 C 42.203125 -60.480469 41.703125 -55.328125 41.539062 -51.839844 C 41.207031 -46.6875 41.371094 -44.695312 42.367188 -40.042969 C 43.03125 -37.050781 44.195312 -33.230469 44.859375 -31.734375 C 46.523438 -28.246094 49.84375 -25.253906 51.671875 -25.253906 C 52.503906 -25.253906 53.832031 -24.589844 54.828125 -23.59375 C 57.320312 -21.597656 58.816406 -21.597656 60.8125 -23.925781 C 63.96875 -27.582031 65.628906 -31.734375 72.773438 -54.332031 C 78.089844 -70.945312 79.253906 -74.269531 83.90625 -83.738281 C 87.5625 -91.050781 90.550781 -96.035156 92.710938 -98.027344 C 93.875 -99.027344 94.207031 -99.191406 94.207031 -98.527344 C 94.207031 -96.867188 92.546875 -89.886719 89.222656 -77.59375 C 81.910156 -51.175781 80.25 -41.371094 80.25 -25.753906 C 80.25 -14.789062 80.25 -14.289062 81.578125 -9.804688 C 84.238281 -1.496094 86.730469 2.160156 91.714844 4.484375 C 92.878906 4.984375 94.539062 5.816406 95.203125 6.148438 C 97.03125 7.144531 99.691406 7.144531 100.355469 6.148438 Z M 61.808594 -73.769531 C 61.808594 -73.105469 61.808594 -72.441406 61.808594 -72.109375 C 61.640625 -71.777344 61.476562 -72.109375 61.476562 -73.105469 C 61.476562 -73.9375 61.640625 -74.269531 61.808594 -73.769531 Z M 8.140625 -38.878906 C 7.976562 -48.015625 10.300781 -63.96875 14.121094 -79.417969 C 16.449219 -89.222656 20.601562 -102.679688 21.101562 -102.183594 C 21.265625 -102.015625 20.601562 -99.523438 19.773438 -96.699219 C 13.789062 -77.425781 10.300781 -59.8125 9.136719 -43.699219 C 8.472656 -34.394531 8.140625 -33.230469 8.140625 -38.878906 Z M 11.464844 -26.917969 C 10.964844 -26.917969 10.46875 -33.894531 10.46875 -40.871094 C 10.632812 -52.171875 13.457031 -69.78125 17.777344 -85.566406 C 20.769531 -96.367188 21.933594 -100.023438 22.429688 -100.519531 C 23.261719 -101.351562 22.929688 -99.523438 20.933594 -92.878906 C 14.121094 -68.453125 10.800781 -48.847656 11.464844 -34.394531 C 11.628906 -30.238281 11.628906 -26.917969 11.464844 -26.917969 Z M 15.949219 -59.648438 C 15.285156 -55.992188 14.453125 -49.84375 14.121094 -46.191406 C 13.789062 -42.367188 13.457031 -40.375 13.457031 -41.871094 C 13.292969 -47.1875 15.453125 -62.140625 17.945312 -73.105469 C 19.773438 -81.414062 24.589844 -99.027344 24.757812 -98.195312 C 24.921875 -97.695312 23.757812 -93.042969 22.429688 -87.894531 C 19.273438 -76.761719 17.445312 -68.785156 15.949219 -59.648438 Z M 19.605469 -46.191406 C 19.441406 -43.03125 19.105469 -39.046875 18.941406 -37.714844 C 18.773438 -36.21875 18.773438 -38.214844 18.941406 -42.203125 C 19.105469 -51.671875 21.433594 -65.128906 25.753906 -82.078125 C 27.582031 -89.222656 29.078125 -94.707031 29.078125 -94.039062 C 29.242188 -93.375 28.078125 -88.722656 26.75 -83.738281 C 22.929688 -68.289062 20.601562 -56.65625 19.605469 -46.191406 Z M 34.726562 -63.304688 C 34.394531 -62.472656 33.894531 -62.140625 33.894531 -62.472656 C 33.894531 -62.804688 34.226562 -63.636719 34.726562 -64.300781 C 35.058594 -65.128906 35.554688 -65.464844 35.554688 -65.128906 C 35.554688 -64.796875 35.058594 -63.96875 34.726562 -63.304688 Z M 39.542969 -70.78125 C 37.382812 -66.460938 37.050781 -66.128906 37.050781 -66.625 C 37.050781 -67.289062 40.707031 -74.269531 41.207031 -74.601562 C 41.539062 -74.765625 40.707031 -73.105469 39.542969 -70.78125 Z M 47.683594 -45.027344 L 48.015625 -50.675781 C 48.351562 -57.988281 51.339844 -78.753906 52.171875 -79.585938 C 52.667969 -79.917969 52.335938 -78.089844 50.507812 -66.460938 C 49.84375 -61.808594 48.847656 -54.996094 48.515625 -51.507812 Z M 53 -66.128906 C 52.003906 -60.644531 51.175781 -52.171875 50.84375 -47.519531 C 50.507812 -42.699219 50.175781 -38.546875 50.011719 -38.214844 C 49.511719 -36.71875 49.84375 -50.175781 50.507812 -56.160156 C 51.507812 -64.796875 53.832031 -79.085938 54.496094 -80.417969 C 55.328125 -81.910156 54.828125 -78.257812 53 -66.128906 Z M 63.304688 -42.699219 C 63.46875 -43.363281 63.800781 -44.363281 64.132812 -44.859375 C 64.464844 -45.359375 64.464844 -45.191406 64.300781 -44.195312 C 64.132812 -43.53125 63.636719 -42.535156 63.46875 -42.203125 C 63.136719 -41.539062 62.972656 -41.703125 63.304688 -42.699219 Z M 62.472656 -40.539062 C 62.804688 -41.039062 62.972656 -41.207031 62.972656 -40.871094 C 62.972656 -40.539062 62.804688 -39.875 62.472656 -39.542969 C 62.140625 -39.046875 61.972656 -38.878906 61.972656 -39.210938 C 61.972656 -39.542969 62.140625 -40.207031 62.472656 -40.539062 Z M 60.8125 -69.949219 C 61.144531 -71.277344 61.308594 -71.277344 61.308594 -70.117188 C 61.308594 -69.449219 61.144531 -68.121094 60.8125 -67.289062 C 60.480469 -65.796875 60.480469 -65.796875 60.480469 -66.957031 C 60.480469 -67.625 60.644531 -68.953125 60.8125 -69.949219 Z M 57.820312 -41.207031 C 57.488281 -40.871094 57.488281 -41.871094 57.488281 -43.53125 C 57.820312 -47.683594 58.152344 -48.351562 58.152344 -44.859375 C 58.152344 -43.199219 57.988281 -41.539062 57.820312 -41.207031 Z M 58.652344 -50.175781 C 58.484375 -49.679688 58.320312 -50.175781 58.320312 -51.339844 C 58.320312 -52.503906 58.484375 -53 58.652344 -52.335938 C 58.652344 -51.671875 58.652344 -50.675781 58.652344 -50.175781 Z M 59.148438 -54.664062 C 58.984375 -54 58.816406 -54.664062 58.816406 -55.828125 C 58.816406 -57.15625 58.984375 -57.652344 59.148438 -57.15625 C 59.316406 -56.492188 59.316406 -55.328125 59.148438 -54.664062 Z M 59.8125 -60.3125 C 59.316406 -57.652344 59.148438 -60.144531 59.8125 -63.304688 C 60.144531 -65.128906 60.144531 -65.296875 60.3125 -64.132812 C 60.3125 -63.136719 60.144531 -61.476562 59.8125 -60.3125 Z M 60.480469 -31.570312 C 60.3125 -31.570312 60.3125 -31.902344 60.480469 -32.234375 C 62.472656 -37.21875 64.632812 -42.867188 65.296875 -44.859375 C 65.796875 -46.355469 66.460938 -47.351562 66.625 -47.1875 C 66.625 -47.019531 65.464844 -43.53125 63.800781 -39.210938 C 62.140625 -35.058594 60.644531 -31.570312 60.480469 -31.570312 Z M 88.558594 -99.855469 C 86.066406 -96.199219 79.085938 -82.410156 76.429688 -75.765625 C 75.597656 -73.605469 73.105469 -66.460938 70.78125 -59.8125 C 68.621094 -53.167969 66.792969 -48.015625 66.792969 -48.183594 C 66.625 -48.515625 68.289062 -53.5 70.117188 -59.316406 C 71.941406 -65.128906 73.4375 -70.117188 73.4375 -70.449219 C 73.273438 -70.613281 71.609375 -65.796875 69.617188 -59.648438 C 67.625 -53.5 65.796875 -48.683594 65.796875 -48.847656 C 65.464844 -49.679688 73.273438 -72.773438 76.429688 -80.25 C 79.417969 -87.394531 84.402344 -97.53125 85.898438 -99.523438 C 86.398438 -100.023438 85.070312 -97.363281 83.074219 -93.375 C 79.085938 -85.234375 74.269531 -73.9375 73.769531 -71.777344 L 73.4375 -70.449219 L 74.269531 -71.941406 C 74.765625 -72.941406 76.097656 -76.261719 77.59375 -79.417969 C 82.578125 -91.382812 87.726562 -100.851562 90.21875 -102.847656 C 90.550781 -103.179688 89.886719 -101.851562 88.558594 -99.855469 Z M 87.5625 -34.726562 C 87.0625 -30.902344 86.5625 -25.585938 86.230469 -23.09375 C 85.734375 -18.773438 85.734375 -18.941406 85.898438 -25.253906 C 86.398438 -37.714844 89.054688 -52.003906 95.703125 -77.257812 C 97.53125 -84.070312 99.191406 -89.554688 99.191406 -89.554688 C 99.523438 -89.222656 97.199219 -78.921875 95.203125 -71.777344 C 91.382812 -57.488281 88.722656 -44.527344 87.5625 -34.726562 Z M 88.390625 -18.941406 C 87.894531 -12.460938 87.894531 -12.460938 88.058594 -21.765625 C 88.390625 -34.890625 90.054688 -46.355469 94.707031 -64.300781 C 100.023438 -85.234375 102.515625 -94.539062 102.183594 -92.046875 C 101.851562 -88.722656 100.1875 -81.746094 96.867188 -68.289062 C 93.210938 -54.332031 90.550781 -41.371094 89.554688 -32.730469 C 89.222656 -28.742188 88.558594 -22.597656 88.390625 -18.941406 Z M 90.71875 -20.933594 C 90.550781 -20.601562 90.550781 -20.933594 90.550781 -21.765625 C 90.550781 -22.761719 90.71875 -22.929688 90.71875 -22.429688 C 90.882812 -21.933594 90.882812 -21.265625 90.71875 -20.933594 Z M 91.382812 -26.417969 C 91.214844 -25.917969 91.050781 -26.417969 91.050781 -27.582031 C 91.050781 -28.742188 91.214844 -29.242188 91.382812 -28.578125 C 91.382812 -27.914062 91.382812 -26.917969 91.382812 -26.417969 Z M 91.882812 -30.902344 C 91.714844 -30.570312 91.546875 -31.070312 91.546875 -31.902344 C 91.546875 -32.730469 91.714844 -33.0625 91.882812 -32.566406 C 92.046875 -32.066406 92.046875 -31.234375 91.882812 -30.902344 Z M 92.378906 -35.222656 C 92.214844 -34.726562 92.046875 -35.222656 92.046875 -36.054688 C 92.214844 -36.886719 92.214844 -37.21875 92.378906 -36.71875 C 92.546875 -36.21875 92.546875 -35.554688 92.378906 -35.222656 Z M 92.546875 -38.714844 C 92.546875 -41.371094 99.191406 -71.609375 99.691406 -71.113281 C 99.855469 -70.945312 98.859375 -66.292969 97.53125 -60.8125 C 96.199219 -55.328125 94.539062 -47.851562 93.875 -44.195312 C 93.210938 -40.707031 92.546875 -38.214844 92.546875 -38.714844 Z M 94.707031 -12.960938 C 94.539062 -17.113281 97.53125 -39.046875 99.691406 -49.015625 C 101.683594 -57.988281 105.835938 -74.933594 106.167969 -74.765625 C 106.167969 -74.601562 105.339844 -69.949219 104.011719 -64.464844 C 99.523438 -46.023438 97.53125 -35.058594 95.867188 -20.269531 C 95.203125 -12.960938 94.707031 -10.632812 94.707031 -12.960938 Z M 94.707031 -12.960938 "/></g></g></g><g fill="#000000" fill-opacity="1"><g transform="translate(195.643613, 460.117014)"><g><path d="M 16.78125 -39.210938 C 17.613281 -39.210938 17.777344 -38.878906 17.445312 -37.714844 C 15.453125 -27.914062 14.789062 -23.59375 14.789062 -17.28125 C 14.789062 -10.964844 14.953125 -10.136719 16.117188 -7.476562 C 17.613281 -4.152344 20.269531 -1.660156 22.265625 -1.660156 C 22.929688 -1.660156 23.425781 -1.496094 23.425781 -1.164062 C 23.425781 -0.332031 25.421875 -0.5 26.085938 -1.328125 C 26.917969 -2.324219 27.414062 -4.152344 29.078125 -11.464844 C 30.238281 -17.28125 36.386719 -40.207031 36.71875 -40.375 C 36.886719 -40.539062 39.875 -41.539062 43.363281 -42.867188 C 50.675781 -45.191406 50.175781 -45.359375 53.832031 -42.035156 C 56.160156 -39.875 61.972656 -33.0625 65.628906 -28.078125 C 70.613281 -21.433594 72.609375 -17.777344 72.609375 -15.453125 C 72.609375 -12.960938 74.269531 -8.140625 75.929688 -6.480469 C 76.59375 -5.648438 77.425781 -5.316406 78.257812 -5.484375 C 78.921875 -5.648438 79.417969 -5.484375 79.417969 -5.316406 C 79.417969 -4.984375 79.585938 -4.816406 79.917969 -4.984375 C 80.085938 -5.152344 80.582031 -4.816406 80.75 -3.988281 C 81.414062 -1.496094 85.898438 -3.15625 87.726562 -6.480469 C 88.390625 -7.808594 92.546875 -31.070312 94.707031 -46.023438 C 95.371094 -49.679688 95.867188 -55.992188 96.199219 -60.144531 C 96.53125 -67.289062 96.53125 -67.789062 97.695312 -68.453125 C 99.855469 -69.949219 108.996094 -73.4375 112.316406 -74.101562 C 116.804688 -74.933594 119.792969 -75.765625 119.960938 -76.429688 C 120.125 -77.257812 116.96875 -81.082031 114.808594 -82.742188 C 113.3125 -83.738281 112.484375 -84.070312 109.492188 -84.070312 C 107.664062 -84.070312 104.507812 -83.574219 102.347656 -83.242188 C 95.203125 -81.578125 96.199219 -80.914062 95.203125 -88.058594 C 92.878906 -103.511719 89.222656 -110.988281 81.910156 -115.640625 C 80.582031 -116.304688 78.921875 -117.800781 77.925781 -118.964844 C 73.9375 -123.617188 68.289062 -124.28125 62.472656 -121.125 C 58.484375 -119.128906 49.679688 -110.15625 45.523438 -104.175781 C 39.542969 -95.371094 32.566406 -81.910156 27.082031 -68.289062 C 25.753906 -64.964844 24.921875 -63.304688 24.425781 -63.46875 C 24.089844 -63.46875 21.433594 -63.800781 18.609375 -63.800781 C 14.621094 -63.96875 12.792969 -63.800781 10.632812 -63.136719 C 2.992188 -60.8125 0 -55.828125 2.824219 -50.175781 C 5.152344 -45.691406 13.457031 -39.210938 16.78125 -39.210938 Z M 22.761719 -8.640625 C 22.597656 -8.472656 22.429688 -8.804688 22.429688 -9.304688 C 22.429688 -9.96875 22.597656 -10.136719 22.761719 -9.636719 C 22.929688 -9.304688 22.929688 -8.804688 22.761719 -8.640625 Z M 27.582031 -32.898438 C 26.75 -29.742188 25.585938 -24.425781 24.757812 -20.933594 C 24.089844 -17.445312 23.425781 -13.957031 23.261719 -12.960938 C 23.09375 -11.628906 23.09375 -11.628906 23.09375 -13.292969 C 22.929688 -15.617188 24.089844 -21.933594 25.917969 -29.242188 C 27.914062 -37.382812 28.246094 -38.546875 28.742188 -38.546875 C 28.910156 -38.546875 28.410156 -36.054688 27.582031 -32.898438 Z M 33.726562 -53.5 C 33.5625 -52.835938 33.230469 -52.335938 32.898438 -52.335938 C 32.398438 -52.335938 32.730469 -54.332031 33.230469 -54.996094 C 33.726562 -55.492188 33.894531 -54.664062 33.726562 -53.5 Z M 39.875 -66.957031 C 39.378906 -66.460938 39.378906 -66.460938 39.542969 -67.289062 C 39.875 -67.789062 40.042969 -68.121094 40.207031 -67.957031 C 40.375 -67.789062 40.207031 -67.289062 39.875 -66.957031 Z M 74.601562 -29.410156 C 74.101562 -25.917969 73.4375 -22.929688 73.4375 -22.929688 C 73.4375 -22.929688 72.109375 -24.425781 70.613281 -26.417969 C 66.957031 -31.402344 62.472656 -36.554688 57.488281 -41.871094 L 53 -46.355469 L 64.964844 -52.335938 C 71.609375 -55.660156 77.257812 -58.484375 77.59375 -58.652344 C 78.257812 -58.984375 76.59375 -40.539062 74.601562 -29.410156 Z M 80.582031 -6.480469 C 80.582031 -6.8125 80.914062 -8.804688 81.578125 -10.964844 C 82.246094 -13.292969 82.578125 -14.121094 82.578125 -12.960938 C 82.578125 -11.464844 80.582031 -4.984375 80.582031 -6.480469 Z M 82.910156 -16.28125 C 82.742188 -15.949219 82.742188 -16.28125 82.742188 -16.949219 C 82.742188 -17.777344 82.742188 -17.945312 82.910156 -17.613281 C 83.074219 -17.28125 83.074219 -16.613281 82.910156 -16.28125 Z M 83.40625 -18.941406 C 83.40625 -18.609375 83.242188 -18.941406 83.242188 -19.605469 C 83.242188 -20.269531 83.40625 -20.601562 83.40625 -20.269531 C 83.574219 -19.9375 83.574219 -19.273438 83.40625 -18.941406 Z M 83.90625 -22.429688 C 83.738281 -22.265625 83.738281 -22.597656 83.738281 -23.09375 C 83.738281 -23.757812 83.90625 -23.757812 84.070312 -23.425781 C 84.238281 -23.09375 84.238281 -22.597656 83.90625 -22.429688 Z M 84.570312 -25.585938 C 84.402344 -25.421875 84.238281 -25.753906 84.238281 -26.25 C 84.238281 -26.917969 84.402344 -26.917969 84.570312 -26.585938 C 84.738281 -26.25 84.738281 -25.753906 84.570312 -25.585938 Z M 91.050781 -39.378906 C 91.050781 -40.042969 91.214844 -40.207031 91.382812 -39.710938 C 91.546875 -39.378906 91.546875 -38.878906 91.382812 -38.714844 C 91.214844 -38.546875 91.050781 -38.878906 91.050781 -39.378906 Z M 90.882812 -36.886719 C 91.050781 -36.386719 91.050781 -35.722656 90.882812 -35.390625 C 90.71875 -34.890625 90.550781 -35.390625 90.550781 -36.21875 C 90.71875 -37.050781 90.71875 -37.382812 90.882812 -36.886719 Z M 89.222656 -29.078125 C 89.722656 -31.902344 90.21875 -34.226562 90.386719 -34.226562 C 90.550781 -34.0625 89.722656 -28.578125 88.722656 -21.933594 C 87.5625 -15.285156 86.5625 -9.636719 86.230469 -9.46875 C 85.898438 -8.972656 86.894531 -15.121094 89.222656 -29.078125 Z M 86.066406 -52.835938 C 85.566406 -47.019531 84.570312 -38.878906 82.246094 -24.589844 C 81.246094 -18.277344 80.25 -12.460938 79.917969 -11.628906 L 79.585938 -10.300781 L 79.417969 -11.960938 C 79.417969 -12.792969 80.25 -18.441406 81.246094 -24.589844 C 82.410156 -30.738281 83.90625 -40.539062 84.738281 -46.523438 C 85.734375 -53.5 86.230469 -55.828125 86.066406 -52.835938 Z M 82.910156 -46.355469 C 83.074219 -45.855469 83.074219 -45.191406 82.910156 -44.859375 C 82.742188 -44.527344 82.742188 -44.859375 82.742188 -45.691406 C 82.742188 -46.6875 82.910156 -46.855469 82.910156 -46.355469 Z M 82.078125 -40.539062 L 82.578125 -43.699219 L 82.410156 -40.207031 C 82.246094 -38.378906 81.246094 -31.902344 80.417969 -25.753906 C 79.417969 -19.773438 78.421875 -14.789062 78.257812 -14.789062 C 78.089844 -14.789062 77.925781 -15.453125 78.089844 -16.28125 C 78.257812 -17.113281 79.085938 -22.097656 79.917969 -27.582031 C 80.75 -32.898438 81.746094 -38.714844 82.078125 -40.539062 Z M 68.121094 -101.851562 C 72.109375 -105.171875 75.101562 -107 75.765625 -106.335938 C 77.425781 -104.839844 79.585938 -79.585938 78.589844 -76.097656 C 78.089844 -74.765625 72.441406 -71.609375 46.855469 -58.816406 C 42.867188 -56.65625 42.035156 -56.324219 42.035156 -56.824219 C 42.035156 -56.824219 43.199219 -60.144531 44.859375 -64.132812 C 51.839844 -81.578125 59.980469 -94.871094 68.121094 -101.851562 Z M 56.824219 -101.519531 L 58.484375 -103.34375 L 56.988281 -101.351562 C 50.011719 -91.382812 43.863281 -79.917969 38.546875 -66.625 C 35.222656 -58.320312 35.058594 -57.988281 35.058594 -59.480469 C 35.058594 -60.976562 40.707031 -74.269531 44.695312 -82.246094 C 48.351562 -89.554688 53.667969 -98.027344 56.824219 -101.519531 Z M 51.175781 -97.695312 C 51.339844 -97.695312 51.007812 -97.03125 50.507812 -96.367188 C 46.855469 -91.050781 39.046875 -75.101562 35.222656 -65.128906 C 34.226562 -62.472656 33.230469 -60.3125 32.898438 -60.3125 C 32.234375 -60.3125 32.234375 -59.980469 34.890625 -66.625 C 39.542969 -78.257812 49.84375 -97.695312 51.175781 -97.695312 Z M 36.886719 -75.765625 C 37.21875 -76.261719 37.382812 -76.59375 37.550781 -76.429688 C 37.714844 -76.261719 37.550781 -75.765625 37.21875 -75.433594 C 36.71875 -74.933594 36.71875 -74.933594 36.886719 -75.765625 Z M 35.886719 -73.4375 C 36.21875 -74.269531 36.554688 -74.601562 36.554688 -74.269531 C 36.554688 -73.9375 36.21875 -73.105469 35.886719 -72.441406 C 35.390625 -71.609375 35.058594 -71.277344 35.058594 -71.609375 C 35.058594 -71.941406 35.390625 -72.773438 35.886719 -73.4375 Z M 34.226562 -69.78125 C 34.726562 -70.449219 35.058594 -70.78125 35.058594 -70.613281 C 35.058594 -70.28125 34.726562 -69.449219 34.226562 -68.785156 C 33.894531 -67.957031 33.5625 -67.625 33.5625 -67.957031 C 33.5625 -68.289062 33.894531 -69.117188 34.226562 -69.78125 Z M 31.902344 -63.636719 C 32.566406 -64.796875 32.898438 -65.296875 32.566406 -64.464844 C 32.234375 -62.972656 30.902344 -60.3125 30.902344 -61.144531 C 30.902344 -61.308594 31.402344 -62.472656 31.902344 -63.636719 Z M 30.570312 -52.667969 C 30.238281 -51.671875 29.742188 -50.84375 29.574219 -50.84375 C 29.078125 -50.84375 29.742188 -53.5 30.570312 -54.996094 C 31.570312 -56.824219 31.570312 -54.996094 30.570312 -52.667969 Z M 27.914062 -53 C 29.242188 -56.65625 29.242188 -56.824219 29.574219 -56.492188 C 29.742188 -56.324219 29.242188 -54.996094 28.742188 -53.335938 C 27.082031 -49.179688 26.585938 -48.847656 27.914062 -53 Z M 25.089844 -36.71875 C 25.421875 -37.714844 25.753906 -38.546875 26.085938 -38.546875 C 26.25 -38.546875 25.917969 -36.386719 25.253906 -33.726562 C 24.589844 -31.070312 23.59375 -26.417969 22.929688 -23.425781 C 22.265625 -20.4375 21.597656 -15.285156 21.433594 -11.796875 L 20.933594 -5.648438 L 20.933594 -11.296875 C 20.769531 -17.777344 21.933594 -24.425781 25.089844 -36.71875 Z M 23.925781 -38.046875 C 24.089844 -38.046875 23.925781 -36.386719 23.425781 -34.558594 C 22.929688 -32.566406 21.933594 -28.410156 21.433594 -25.421875 C 20.769531 -22.429688 20.105469 -17.777344 19.773438 -15.453125 L 19.273438 -10.964844 L 19.441406 -15.617188 C 19.605469 -19.605469 20.769531 -25.753906 23.261719 -36.886719 C 23.425781 -37.550781 23.757812 -38.046875 23.925781 -38.046875 Z M 14.453125 -56.160156 C 17.28125 -57.488281 22.929688 -58.320312 22.929688 -57.320312 C 22.929688 -56.988281 22.265625 -54.828125 21.433594 -52.335938 C 20.269531 -48.683594 19.773438 -47.851562 18.609375 -47.519531 C 16.78125 -47.019531 11.796875 -47.019531 10.46875 -47.683594 C 6.8125 -49.015625 9.136719 -53.832031 14.453125 -56.160156 Z M 5.980469 -55.992188 C 6.3125 -56.65625 6.8125 -57.15625 6.8125 -57.15625 C 6.976562 -57.15625 6.8125 -56.65625 6.644531 -55.992188 C 6.3125 -55.492188 5.816406 -54.996094 5.816406 -54.996094 C 5.648438 -54.996094 5.816406 -55.492188 5.980469 -55.992188 Z M 5.980469 -55.992188 "/></g></g></g><g fill="#000000" fill-opacity="1"><g transform="translate(317.431677, 460.117014)"><g><path d="M 131.589844 -0.167969 C 131.589844 -0.5 132.253906 -0.832031 132.921875 -0.996094 C 135.746094 -1.660156 135.746094 -4.816406 132.921875 -4.984375 C 132.421875 -4.984375 131.425781 -5.316406 130.761719 -5.648438 C 130.261719 -6.148438 128.765625 -6.8125 127.601562 -7.144531 C 119.128906 -9.304688 98.027344 -22.429688 85.898438 -32.898438 C 78.421875 -39.378906 78.589844 -39.046875 82.246094 -40.042969 C 96.699219 -44.195312 122.617188 -64.132812 131.921875 -78.089844 C 135.746094 -83.738281 137.074219 -87.726562 137.074219 -93.042969 C 137.074219 -97.863281 135.246094 -102.183594 131.589844 -106.835938 C 130.261719 -108.496094 128.765625 -110.65625 128.101562 -111.820312 C 126.605469 -114.808594 122.285156 -118.964844 118.796875 -120.625 C 112.484375 -123.78125 108.660156 -124.445312 97.03125 -124.445312 C 88.058594 -124.445312 85.566406 -124.28125 80.417969 -123.285156 C 52.835938 -117.632812 26.25 -103.84375 9.136719 -85.898438 C 3.324219 -79.917969 0.664062 -75.597656 0.332031 -71.277344 C 0 -68.785156 0.167969 -67.957031 1.496094 -65.628906 C 2.324219 -64.132812 3.988281 -62.140625 4.984375 -61.144531 C 6.148438 -60.3125 7.976562 -58.652344 9.136719 -57.488281 C 12.128906 -54.664062 14.953125 -53.5 19.105469 -53.5 C 22.929688 -53.667969 24.921875 -54 25.089844 -54.828125 C 25.089844 -55.160156 23.09375 -56.492188 20.601562 -57.652344 C 18.109375 -58.984375 15.617188 -60.480469 14.789062 -60.976562 L 13.625 -61.808594 L 15.121094 -64.300781 C 16.949219 -67.457031 24.257812 -74.765625 29.410156 -78.921875 C 38.714844 -86.230469 53.335938 -94.707031 63.46875 -98.691406 C 84.570312 -106.835938 104.175781 -108.828125 118.796875 -104.507812 C 122.617188 -103.34375 123.117188 -102.515625 122.453125 -100.023438 C 119.792969 -89.886719 107 -74.601562 92.378906 -64.132812 C 86.398438 -59.980469 68.785156 -49.179688 67.789062 -49.179688 C 67.457031 -49.179688 67.125 -49.679688 67.125 -50.175781 C 67.125 -51.339844 70.28125 -65.296875 71.777344 -70.613281 C 74.601562 -80.914062 75.765625 -89.554688 73.9375 -88.558594 C 73.769531 -88.390625 73.273438 -88.890625 72.941406 -89.554688 C 72.441406 -90.882812 70.78125 -91.714844 69.949219 -90.882812 C 69.617188 -90.550781 69.449219 -90.71875 69.449219 -91.382812 C 69.449219 -92.046875 69.285156 -92.214844 68.621094 -92.214844 C 67.957031 -92.046875 67.625 -92.378906 67.625 -92.878906 C 67.625 -95.867188 63.800781 -97.199219 61.308594 -95.203125 C 58.152344 -92.878906 54.496094 -83.40625 50.84375 -69.617188 C 46.6875 -52.835938 45.027344 -39.710938 46.023438 -30.40625 C 47.1875 -19.105469 49.679688 -12.296875 54.496094 -7.808594 C 56.988281 -5.316406 64.464844 -1.164062 66.460938 -1.164062 C 67.957031 -1.164062 68.621094 -2.492188 67.789062 -3.488281 C 67.625 -3.820312 67.125 -4.984375 66.957031 -5.980469 C 66.792969 -6.976562 66.292969 -9.136719 65.796875 -10.632812 C 64.964844 -13.457031 63.96875 -29.742188 64.632812 -29.742188 C 64.796875 -29.742188 66.292969 -27.914062 67.957031 -25.753906 C 78.089844 -12.792969 99.359375 0.5 114.476562 3.324219 C 116.472656 3.65625 118.296875 3.988281 118.464844 3.988281 C 118.632812 3.988281 120.625 3.820312 122.785156 3.324219 C 127.105469 2.492188 131.589844 0.832031 131.589844 -0.167969 Z M 5.484375 -70.117188 C 5.484375 -70.449219 5.816406 -71.277344 6.148438 -71.941406 C 6.644531 -72.773438 6.976562 -73.105469 6.976562 -72.773438 C 6.976562 -72.441406 6.644531 -71.609375 6.148438 -70.945312 C 5.816406 -70.117188 5.484375 -69.78125 5.484375 -70.117188 Z M 6.644531 -68.953125 C 7.144531 -70.117188 10.136719 -75.101562 10.46875 -75.101562 C 10.632812 -75.101562 9.804688 -73.4375 8.804688 -71.445312 C 6.8125 -67.789062 5.980469 -66.792969 6.644531 -68.953125 Z M 13.125 -73.769531 C 12.128906 -72.441406 10.800781 -70.117188 10.136719 -68.953125 C 8.804688 -66.460938 8.308594 -65.960938 8.804688 -67.957031 C 9.46875 -70.117188 10.46875 -71.777344 12.792969 -74.101562 L 14.953125 -76.429688 Z M 118.632812 -70.945312 C 118.132812 -70.28125 117.632812 -69.78125 117.46875 -69.78125 C 117.300781 -69.78125 117.632812 -70.28125 118.132812 -70.945312 C 118.632812 -71.445312 119.128906 -71.941406 119.296875 -71.941406 C 119.460938 -71.941406 119.128906 -71.445312 118.632812 -70.945312 Z M 128.433594 -78.089844 C 129.597656 -79.917969 130.761719 -81.414062 130.925781 -81.414062 C 131.257812 -81.414062 129.265625 -77.925781 127.269531 -75.265625 C 126.109375 -73.769531 124.945312 -72.441406 124.613281 -72.441406 C 124.28125 -72.441406 124.613281 -72.941406 125.277344 -73.605469 C 125.777344 -74.269531 127.269531 -76.261719 128.433594 -78.089844 Z M 115.472656 -76.925781 C 117.46875 -79.253906 120.292969 -82.910156 121.457031 -84.738281 C 122.785156 -86.730469 123.949219 -88.226562 124.113281 -88.058594 C 124.28125 -87.894531 123.285156 -86.230469 121.953125 -84.238281 C 120.792969 -82.410156 117.964844 -78.921875 115.804688 -76.761719 L 111.984375 -72.773438 Z M 112.816406 -71.609375 C 118.296875 -77.425781 123.78125 -84.070312 125.777344 -87.726562 C 127.4375 -90.71875 127.769531 -90.054688 126.109375 -86.894531 C 123.949219 -82.742188 120.125 -77.757812 114.476562 -72.441406 C 107.5 -65.464844 106.167969 -64.964844 112.816406 -71.609375 Z M 106.167969 -62.304688 C 109.992188 -65.464844 121.289062 -76.761719 123.949219 -79.917969 C 125.777344 -82.078125 125.777344 -82.078125 124.945312 -80.417969 C 124.445312 -79.417969 120.792969 -75.433594 117.136719 -71.777344 C 113.3125 -67.957031 108.660156 -63.636719 106.835938 -62.304688 L 103.34375 -59.648438 Z M 70.117188 -75.597656 C 70.28125 -76.761719 70.613281 -77.925781 70.945312 -78.589844 C 71.277344 -79.253906 71.277344 -79.085938 71.113281 -77.757812 C 70.945312 -76.761719 70.449219 -75.433594 70.28125 -74.933594 C 69.949219 -74.101562 69.949219 -74.433594 70.117188 -75.597656 Z M 52.171875 -34.0625 C 52.003906 -33.5625 52.003906 -34.0625 52.003906 -35.058594 C 52.003906 -36.054688 52.003906 -36.386719 52.171875 -35.886719 C 52.335938 -35.390625 52.335938 -34.558594 52.171875 -34.0625 Z M 52.835938 -42.867188 C 52.171875 -42.867188 52.171875 -42.699219 53.832031 -52.503906 C 55.660156 -61.972656 57.820312 -71.113281 60.3125 -78.589844 C 61.808594 -83.574219 65.128906 -91.214844 65.464844 -90.882812 C 65.464844 -90.71875 64.632812 -88.226562 63.46875 -85.402344 C 59.648438 -75.433594 56.324219 -62.972656 54.496094 -50.675781 C 53.667969 -46.355469 53 -42.867188 52.835938 -42.867188 Z M 54 -31.902344 C 54 -34.394531 54.164062 -36.054688 54.496094 -36.054688 C 54.828125 -36.054688 54.996094 -34.890625 54.996094 -33.230469 C 54.828125 -28.410156 54 -27.414062 54 -31.902344 Z M 54.996094 -45.027344 C 54.996094 -47.1875 57.488281 -60.144531 58.984375 -66.128906 C 61.808594 -77.425781 66.460938 -91.050781 66.957031 -89.554688 C 67.125 -89.222656 66.792969 -87.726562 66.128906 -86.230469 C 62.972656 -78.089844 58.652344 -61.808594 56.824219 -50.507812 C 55.992188 -45.027344 54.996094 -42.203125 54.996094 -45.027344 Z M 61.972656 -65.464844 C 61.972656 -65.960938 62.140625 -66.128906 62.304688 -65.796875 C 62.472656 -65.296875 62.304688 -64.964844 62.140625 -64.796875 C 61.972656 -64.464844 61.972656 -64.796875 61.972656 -65.464844 Z M 62.304688 -31.902344 C 62.140625 -31.402344 61.972656 -31.902344 61.972656 -32.898438 C 61.972656 -33.894531 62.140625 -34.394531 62.304688 -33.894531 C 62.304688 -33.230469 62.304688 -32.398438 62.304688 -31.902344 Z M 63.96875 -48.015625 C 63.136719 -47.1875 66.625 -63.46875 68.621094 -70.449219 C 70.449219 -76.097656 69.949219 -73.273438 67.789062 -64.464844 C 66.625 -59.980469 65.464844 -54.664062 64.964844 -52.503906 C 64.632812 -50.175781 64.132812 -48.351562 63.96875 -48.015625 Z M 71.941406 -37.382812 C 72.109375 -37.550781 72.773438 -36.886719 73.4375 -36.054688 C 74.101562 -35.222656 74.433594 -34.558594 74.433594 -34.558594 C 73.9375 -34.558594 71.777344 -37.050781 71.941406 -37.382812 Z M 89.722656 -14.453125 C 89.054688 -14.453125 81.414062 -20.601562 77.257812 -24.589844 C 72.941406 -28.910156 68.289062 -34.558594 68.289062 -35.722656 C 68.289062 -36.054688 69.117188 -35.058594 70.28125 -33.5625 C 75.101562 -27.25 83.074219 -19.273438 88.890625 -15.285156 C 89.554688 -14.953125 90.054688 -14.453125 89.722656 -14.453125 Z M 94.375 -13.625 C 89.222656 -16.949219 83.40625 -21.433594 77.59375 -26.917969 C 73.105469 -31.234375 68.953125 -36.386719 69.449219 -37.050781 C 69.617188 -37.21875 70.28125 -36.71875 70.78125 -36.054688 C 75.265625 -29.574219 85.898438 -19.773438 95.371094 -13.625 C 97.199219 -12.460938 98.859375 -11.296875 99.027344 -11.132812 C 100.519531 -9.96875 98.527344 -10.964844 94.375 -13.625 Z M 94.375 -13.625 "/></g></g></g><g fill="#000000" fill-opacity="1"><g transform="translate(456.167044, 460.117014)"><g><path d="M 73.105469 12.792969 C 73.605469 11.796875 73.273438 10.136719 71.609375 4.152344 C 68.785156 -4.984375 67.789062 -11.960938 67.789062 -22.265625 C 67.789062 -37.714844 70.945312 -57.820312 76.761719 -79.417969 C 78.589844 -86.398438 78.753906 -90.054688 77.425781 -91.382812 C 75.929688 -92.878906 74.765625 -93.210938 74.101562 -92.214844 C 73.605469 -91.382812 73.605469 -91.382812 73.605469 -92.046875 C 73.605469 -93.042969 75.101562 -93.707031 85.402344 -96.367188 C 101.019531 -100.519531 113.980469 -102.515625 125.277344 -102.515625 C 132.421875 -102.515625 133.085938 -102.679688 134.25 -103.675781 C 135.578125 -104.839844 135.746094 -106.835938 134.582031 -106.835938 C 134.082031 -106.835938 133.917969 -107 134.082031 -107.332031 C 134.25 -107.664062 133.917969 -108.164062 133.417969 -108.496094 C 132.089844 -109.660156 129.929688 -111.820312 128.765625 -113.480469 C 127.269531 -115.472656 122.121094 -116.472656 112.484375 -116.472656 C 80.582031 -116.304688 39.542969 -105.171875 16.613281 -90.21875 C 11.628906 -87.0625 3.488281 -78.921875 1.828125 -75.597656 C 0 -72.273438 0 -69.117188 1.992188 -66.625 C 2.824219 -65.628906 4.152344 -64.300781 5.152344 -63.96875 C 5.980469 -63.636719 7.3125 -62.804688 7.976562 -61.972656 C 8.972656 -60.644531 9.304688 -60.644531 19.273438 -59.980469 C 40.042969 -58.816406 50.84375 -55.328125 50.84375 -50.175781 C 50.84375 -49.179688 50.507812 -44.195312 50.011719 -38.878906 C 47.519531 -10.46875 53 8.308594 64.964844 11.960938 C 67.625 12.792969 67.789062 12.960938 69.285156 13.789062 C 70.945312 14.789062 72.441406 14.289062 73.105469 12.792969 Z M 6.480469 -68.785156 C 6.148438 -68.121094 5.980469 -68.121094 5.980469 -68.785156 C 5.980469 -69.285156 6.3125 -69.949219 6.480469 -70.449219 C 6.976562 -71.113281 6.976562 -71.113281 6.976562 -70.449219 C 6.976562 -69.949219 6.8125 -69.285156 6.480469 -68.785156 Z M 72.773438 -89.886719 C 72.941406 -89.722656 71.777344 -85.898438 70.117188 -81.246094 C 66.957031 -71.609375 66.292969 -71.113281 69.117188 -80.25 C 71.113281 -86.730469 72.441406 -90.21875 72.773438 -89.886719 Z M 8.972656 -69.449219 C 8.640625 -68.453125 8.308594 -67.789062 7.976562 -67.789062 C 7.3125 -67.789062 7.476562 -68.453125 8.640625 -69.78125 L 9.636719 -71.113281 Z M 51.507812 -55.160156 C 51.339844 -55.160156 50.175781 -55.828125 49.015625 -56.824219 C 44.195312 -60.480469 34.890625 -63.304688 21.265625 -65.464844 C 16.28125 -66.128906 15.121094 -66.460938 15.617188 -66.957031 C 16.613281 -68.121094 24.089844 -72.773438 29.742188 -75.765625 C 37.21875 -79.585938 59.648438 -88.722656 60.144531 -88.226562 C 60.3125 -88.058594 59.480469 -85.402344 58.320312 -82.246094 C 56.492188 -76.925781 53.167969 -63.304688 52.171875 -57.320312 C 52.003906 -56.160156 51.671875 -55.160156 51.507812 -55.160156 Z M 55.660156 -26.75 L 55.992188 -33.894531 C 56.324219 -49.511719 60.644531 -71.445312 65.464844 -83.90625 C 67.957031 -90.054688 68.785156 -90.882812 66.625 -85.070312 C 62.636719 -74.269531 59.148438 -59.316406 57.488281 -45.855469 C 56.988281 -42.035156 56.324219 -36.21875 56.160156 -32.898438 Z M 63.304688 -53.667969 C 63.136719 -53.5 62.972656 -53.832031 63.136719 -54.332031 C 63.136719 -54.996094 63.304688 -54.996094 63.46875 -54.664062 C 63.46875 -54.332031 63.46875 -53.832031 63.304688 -53.667969 Z M 59.316406 -41.539062 C 58.984375 -39.046875 58.484375 -31.902344 58.320312 -26.085938 C 57.988281 -15.285156 57.988281 -15.285156 57.488281 -20.4375 C 56.824219 -28.742188 58.320312 -45.691406 60.976562 -59.316406 C 63.136719 -70.449219 67.289062 -84.738281 69.78125 -89.554688 C 71.277344 -92.546875 70.78125 -90.550781 68.621094 -83.90625 C 64.300781 -71.777344 61.308594 -57.988281 59.316406 -41.539062 Z M 66.128906 -67.457031 C 66.128906 -66.957031 65.960938 -65.960938 65.628906 -65.296875 C 65.128906 -63.96875 65.128906 -65.464844 65.628906 -67.289062 C 65.960938 -68.289062 66.128906 -68.289062 66.128906 -67.457031 Z M 65.796875 -33.0625 C 65.464844 -29.574219 65.296875 -29.078125 65.128906 -31.902344 C 65.128906 -33.0625 65.296875 -34.558594 65.628906 -34.890625 C 65.960938 -35.390625 65.960938 -34.726562 65.796875 -33.0625 Z M 65.960938 -36.71875 C 65.960938 -36.21875 65.796875 -36.554688 65.796875 -37.714844 C 65.796875 -38.714844 65.960938 -39.046875 65.960938 -38.546875 C 66.128906 -38.046875 66.128906 -37.21875 65.960938 -36.71875 Z M 66.292969 -69.617188 C 66.292969 -70.28125 66.460938 -70.449219 66.625 -69.949219 C 66.792969 -69.617188 66.625 -69.117188 66.460938 -68.953125 C 66.292969 -68.785156 66.292969 -69.117188 66.292969 -69.617188 Z M 66.625 -41.539062 C 66.460938 -41.039062 66.292969 -41.371094 66.292969 -42.367188 C 66.292969 -43.363281 66.460938 -43.863281 66.625 -43.363281 C 66.625 -42.867188 66.625 -42.035156 66.625 -41.539062 Z M 66.792969 -71.777344 C 66.792969 -72.441406 66.957031 -72.441406 67.125 -72.109375 C 67.289062 -71.609375 67.289062 -71.277344 67.125 -71.113281 C 66.792969 -70.945312 66.792969 -71.113281 66.792969 -71.777344 Z M 66.792969 -45.523438 C 66.625 -48.515625 70.78125 -68.621094 73.4375 -77.59375 C 76.097656 -87.0625 76.261719 -87.894531 76.59375 -87.726562 C 76.59375 -87.5625 75.597656 -83.574219 74.433594 -78.753906 C 71.445312 -68.121094 69.78125 -60.480469 68.289062 -51.839844 C 67.125 -44.695312 66.792969 -43.53125 66.792969 -45.523438 Z M 66.792969 -45.523438 "/></g></g></g><g fill="#000000" fill-opacity="1"><g transform="translate(549.543439, 460.117014)"><g><path d="M 37.21875 -106.003906 C 38.878906 -106.335938 41.371094 -107.167969 42.535156 -107.664062 C 43.699219 -108.164062 45.855469 -108.660156 47.351562 -108.828125 C 48.847656 -108.996094 50.34375 -109.160156 50.507812 -109.492188 C 51.339844 -110.15625 47.519531 -112.316406 43.699219 -113.480469 C 35.222656 -115.804688 32.066406 -115.640625 22.929688 -112.816406 C 13.625 -109.992188 2.660156 -103.34375 0.832031 -99.359375 C 0 -97.695312 0 -97.53125 0.664062 -96.199219 C 1.164062 -95.535156 1.828125 -95.039062 2.324219 -95.039062 C 2.660156 -95.039062 3.324219 -94.539062 3.65625 -94.207031 C 4.652344 -92.878906 6.3125 -93.210938 9.96875 -95.535156 C 11.796875 -96.699219 13.457031 -97.53125 13.625 -97.363281 C 13.625 -97.363281 13.292969 -95.867188 12.628906 -94.207031 C 9.804688 -85.898438 6.3125 -70.28125 4.816406 -58.984375 C 3.488281 -48.683594 3.65625 -32.234375 5.152344 -26.75 C 6.8125 -20.4375 9.136719 -16.117188 12.792969 -12.628906 L 15.949219 -9.636719 L 13.457031 -7.644531 C 10.800781 -5.316406 8.972656 -2.660156 8.972656 -0.996094 C 8.972656 0.332031 10.964844 1.660156 12.460938 1.496094 C 13.125 1.328125 13.789062 1.496094 13.957031 1.992188 C 14.453125 3.324219 16.949219 2.160156 24.425781 -2.660156 C 26.917969 -4.320312 29.574219 -5.816406 30.074219 -5.816406 C 30.570312 -5.816406 31.070312 -5.980469 31.234375 -6.3125 C 31.234375 -6.480469 34.0625 -8.308594 37.21875 -10.136719 C 45.855469 -15.285156 45.523438 -14.953125 43.03125 -15.949219 C 41.039062 -16.949219 40.539062 -16.949219 34.558594 -16.117188 C 31.070312 -15.617188 27.582031 -15.121094 26.75 -14.953125 C 25.089844 -14.621094 25.253906 -14.453125 23.925781 -26.75 C 23.261719 -34.0625 23.09375 -36.886719 23.59375 -44.363281 C 24.425781 -54.496094 26.085938 -65.128906 28.742188 -76.261719 C 33.230469 -94.539062 34.726562 -104.507812 33.0625 -104.507812 C 31.734375 -104.507812 34.0625 -105.503906 37.21875 -106.003906 Z M 10.800781 -44.03125 C 10.800781 -42.535156 10.800781 -44.859375 10.800781 -49.015625 C 10.964844 -54 11.464844 -59.480469 12.296875 -64.464844 C 14.621094 -77.925781 19.441406 -95.039062 22.265625 -100.1875 C 22.761719 -101.351562 23.09375 -101.683594 22.929688 -101.019531 C 22.761719 -100.519531 21.597656 -97.199219 20.4375 -93.875 C 16.449219 -81.910156 12.792969 -65.128906 11.628906 -52.667969 C 11.296875 -49.347656 10.964844 -45.523438 10.800781 -44.03125 Z M 13.457031 -38.546875 C 13.457031 -32.730469 13.457031 -27.914062 13.457031 -27.914062 C 12.960938 -27.914062 12.628906 -34.558594 12.628906 -41.371094 C 12.628906 -54.164062 14.289062 -65.796875 17.945312 -80.582031 C 19.9375 -88.390625 23.757812 -100.851562 24.757812 -102.347656 C 25.917969 -104.34375 25.585938 -102.015625 23.425781 -95.703125 C 16.613281 -75.265625 13.457031 -57.15625 13.457031 -38.546875 Z M 16.613281 -55.492188 C 16.449219 -55.328125 16.28125 -55.660156 16.449219 -56.160156 C 16.449219 -56.824219 16.449219 -56.988281 16.78125 -56.492188 C 16.78125 -56.160156 16.78125 -55.660156 16.613281 -55.492188 Z M 17.28125 -58.984375 C 17.113281 -58.484375 16.949219 -58.984375 16.949219 -59.8125 C 16.949219 -60.644531 17.113281 -60.976562 17.28125 -60.480469 C 17.445312 -59.980469 17.28125 -59.316406 17.28125 -58.984375 Z M 17.777344 -62.304688 C 17.613281 -61.808594 17.445312 -62.304688 17.445312 -63.304688 C 17.445312 -64.300781 17.613281 -64.796875 17.777344 -64.132812 C 17.945312 -63.636719 17.945312 -62.804688 17.777344 -62.304688 Z M 17.945312 -65.960938 C 17.777344 -68.453125 25.917969 -99.523438 27.414062 -102.515625 C 28.742188 -104.839844 28.246094 -102.679688 26.085938 -95.867188 C 24.757812 -91.882812 22.761719 -84.402344 21.433594 -79.085938 C 20.105469 -73.769531 18.773438 -68.453125 18.609375 -67.289062 C 18.277344 -66.128906 17.945312 -65.464844 17.945312 -65.960938 Z M 20.933594 -41.207031 C 20.769531 -40.207031 20.769531 -41.207031 20.769531 -43.53125 C 20.769531 -45.855469 20.769531 -46.6875 20.933594 -45.523438 C 21.101562 -44.195312 21.101562 -42.367188 20.933594 -41.207031 Z M 31.902344 -100.1875 C 31.734375 -99.523438 29.90625 -91.882812 27.914062 -83.40625 C 25.917969 -74.765625 23.59375 -64.300781 22.929688 -60.144531 C 22.265625 -55.992188 21.597656 -51.507812 21.433594 -50.34375 C 21.265625 -49.179688 21.265625 -50.175781 21.433594 -52.503906 C 21.597656 -54.828125 22.097656 -59.480469 22.761719 -62.804688 C 23.925781 -69.617188 30.902344 -98.859375 31.570312 -100.519531 C 32.066406 -101.519531 32.066406 -101.351562 31.902344 -100.1875 Z M 31.902344 -100.1875 "/></g></g></g><g fill="#000000" fill-opacity="1"><g transform="translate(595.400905, 460.117014)"><g><path d="M 69.285156 13.457031 C 71.941406 14.789062 74.601562 15.785156 74.933594 15.617188 C 75.265625 15.453125 75.765625 15.453125 76.097656 15.453125 C 76.925781 15.453125 77.09375 13.625 76.429688 12.792969 C 75.765625 11.960938 74.433594 6.3125 73.4375 0.332031 C 71.445312 -13.292969 72.441406 -21.101562 79.753906 -54.828125 C 85.734375 -82.078125 86.066406 -89.886719 81.578125 -95.203125 C 80.75 -96.199219 79.253906 -97.53125 78.089844 -98.027344 C 77.09375 -98.691406 75.101562 -100.519531 73.769531 -102.015625 C 70.945312 -105.339844 68.953125 -106.003906 65.464844 -105.007812 C 60.144531 -103.34375 53.5 -94.207031 43.699219 -74.433594 C 38.546875 -64.300781 35.222656 -56.824219 29.574219 -42.699219 C 26.585938 -35.058594 22.097656 -25.585938 21.101562 -24.589844 C 19.605469 -22.929688 19.9375 -45.359375 21.765625 -54.828125 C 23.09375 -62.304688 24.425781 -67.789062 26.585938 -74.269531 C 27.746094 -77.757812 28.078125 -79.753906 27.914062 -82.078125 C 27.914062 -83.738281 27.582031 -85.070312 27.25 -85.070312 C 26.917969 -85.070312 26.585938 -85.402344 26.417969 -86.066406 C 25.917969 -87.0625 23.59375 -88.226562 22.761719 -87.894531 C 22.597656 -87.726562 22.265625 -88.058594 22.097656 -88.722656 C 21.765625 -89.886719 21.597656 -89.886719 20.933594 -88.890625 C 20.105469 -87.894531 20.105469 -87.894531 20.105469 -89.390625 C 20.105469 -90.054688 19.9375 -90.71875 19.605469 -90.71875 C 19.441406 -90.71875 19.105469 -91.382812 18.941406 -92.046875 C 18.277344 -94.539062 13.625 -94.039062 11.464844 -91.050781 C 9.304688 -88.058594 4.484375 -71.777344 2.492188 -60.480469 C 0 -45.855469 0 -30.570312 2.824219 -23.261719 C 4.816406 -17.945312 10.800781 -11.464844 13.957031 -11.464844 C 14.621094 -11.464844 15.949219 -10.964844 16.78125 -10.300781 C 20.601562 -7.144531 22.929688 -7.476562 25.585938 -11.628906 C 27.082031 -13.957031 31.570312 -24.921875 38.378906 -43.199219 C 43.53125 -56.492188 50.34375 -69.949219 55.492188 -76.761719 C 59.980469 -82.742188 65.128906 -88.058594 66.625 -88.058594 C 67.289062 -88.058594 65.960938 -82.078125 61.640625 -63.800781 C 54.496094 -34.558594 53 -25.421875 53.5 -13.625 C 54.332031 0.5 58.816406 8.472656 69.285156 13.457031 Z M 7.808594 -47.519531 C 7.644531 -45.691406 7.644531 -45.691406 7.476562 -47.851562 C 7.3125 -52.835938 10.136719 -67.125 13.125 -76.925781 C 14.621094 -82.246094 16.78125 -87.394531 17.28125 -86.894531 C 17.445312 -86.730469 17.28125 -86.230469 17.113281 -85.566406 C 14.789062 -81.246094 10.800781 -66.128906 9.136719 -55.828125 C 8.472656 -52.335938 7.976562 -48.515625 7.808594 -47.519531 Z M 16.28125 -67.125 C 16.117188 -66.957031 15.949219 -67.289062 15.949219 -67.789062 C 15.949219 -68.453125 16.117188 -68.621094 16.28125 -68.121094 C 16.449219 -67.789062 16.449219 -67.289062 16.28125 -67.125 Z M 11.628906 -56.65625 C 10.964844 -52.835938 10.300781 -46.6875 10.136719 -40.871094 C 9.804688 -34.726562 9.636719 -32.898438 9.636719 -35.886719 C 9.304688 -47.683594 9.96875 -54.828125 12.460938 -66.128906 C 14.121094 -73.273438 17.945312 -85.402344 18.609375 -85.402344 C 19.273438 -85.402344 19.273438 -85.070312 17.28125 -79.085938 C 14.953125 -72.441406 13.125 -65.128906 11.628906 -56.65625 Z M 16.949219 -71.113281 C 16.949219 -72.109375 20.769531 -83.40625 20.933594 -83.242188 C 21.101562 -83.074219 20.269531 -80.085938 19.105469 -76.761719 C 17.945312 -73.273438 16.949219 -70.78125 16.949219 -71.113281 Z M 18.441406 -50.175781 C 18.277344 -49.679688 18.109375 -50.175781 18.109375 -51.175781 C 18.109375 -52.171875 18.277344 -52.503906 18.441406 -52.003906 C 18.441406 -51.507812 18.441406 -50.675781 18.441406 -50.175781 Z M 18.609375 -53 L 18.773438 -55.328125 C 19.441406 -60.976562 24.589844 -80.085938 25.253906 -79.417969 C 25.421875 -79.253906 24.757812 -76.761719 23.925781 -73.9375 C 22.929688 -71.113281 21.765625 -66.292969 20.933594 -63.304688 C 20.269531 -60.144531 19.441406 -56.65625 19.105469 -55.328125 Z M 53.832031 -84.070312 C 54.332031 -84.402344 54 -83.574219 53.167969 -82.410156 C 52.335938 -81.246094 51.507812 -80.25 51.507812 -80.25 C 51.007812 -80.25 53.167969 -83.40625 53.832031 -84.070312 Z M 50.175781 -78.589844 C 50.507812 -79.085938 50.84375 -79.585938 51.007812 -79.585938 C 51.175781 -79.585938 51.007812 -79.085938 50.675781 -78.589844 C 50.507812 -78.089844 50.011719 -77.59375 49.84375 -77.59375 C 49.84375 -77.59375 49.84375 -78.089844 50.175781 -78.589844 Z M 25.089844 -19.9375 C 24.921875 -19.9375 25.089844 -20.4375 25.421875 -21.101562 C 25.753906 -21.597656 26.085938 -22.097656 26.25 -22.097656 C 26.417969 -22.097656 26.25 -21.597656 25.917969 -21.101562 C 25.585938 -20.4375 25.253906 -19.9375 25.089844 -19.9375 Z M 27.746094 -25.253906 C 27.414062 -24.589844 27.082031 -24.257812 27.082031 -24.425781 C 27.082031 -24.757812 27.414062 -25.585938 27.746094 -26.25 C 28.246094 -27.082031 28.578125 -27.414062 28.578125 -27.082031 C 28.578125 -26.75 28.246094 -25.917969 27.746094 -25.253906 Z M 30.238281 -33.726562 C 29.90625 -33.230469 29.574219 -33.230469 29.574219 -33.394531 C 29.574219 -33.726562 29.90625 -34.394531 30.238281 -34.726562 C 30.40625 -35.222656 30.738281 -35.390625 30.738281 -35.058594 C 30.738281 -34.726562 30.40625 -34.226562 30.238281 -33.726562 Z M 33.394531 -38.378906 C 33.0625 -38.046875 32.898438 -37.882812 32.898438 -38.214844 C 32.898438 -38.546875 33.0625 -39.046875 33.394531 -39.542969 C 33.5625 -39.875 33.894531 -40.042969 33.894531 -39.710938 C 33.894531 -39.542969 33.5625 -38.878906 33.394531 -38.378906 Z M 33.0625 -41.371094 C 32.234375 -40.375 32.234375 -40.375 32.898438 -41.703125 C 33.5625 -43.199219 33.894531 -43.53125 33.894531 -42.867188 C 33.894531 -42.535156 33.5625 -41.871094 33.0625 -41.371094 Z M 35.058594 -42.535156 C 34.394531 -42.035156 34.394531 -42.035156 34.726562 -42.867188 C 34.890625 -43.363281 35.222656 -43.699219 35.390625 -43.53125 C 35.554688 -43.363281 35.390625 -42.867188 35.058594 -42.535156 Z M 35.390625 -46.855469 C 35.222656 -46.523438 34.890625 -46.355469 34.890625 -46.6875 C 34.890625 -47.019531 35.222656 -47.519531 35.390625 -48.015625 C 35.722656 -48.351562 35.886719 -48.515625 35.886719 -48.183594 C 35.886719 -47.851562 35.722656 -47.351562 35.390625 -46.855469 Z M 37.550781 -52.171875 C 37.21875 -51.671875 37.050781 -51.671875 37.050781 -52.003906 C 37.050781 -52.171875 37.21875 -52.835938 37.550781 -53.167969 C 37.882812 -53.667969 38.046875 -53.832031 38.046875 -53.5 C 38.046875 -53.167969 37.882812 -52.667969 37.550781 -52.171875 Z M 38.046875 -54.496094 C 38.046875 -54.828125 38.378906 -55.660156 38.878906 -56.492188 C 39.210938 -57.15625 39.710938 -57.488281 39.710938 -57.15625 C 39.710938 -56.988281 39.210938 -56.160156 38.878906 -55.328125 C 38.378906 -54.664062 38.046875 -54.332031 38.046875 -54.496094 Z M 39.710938 -54.332031 C 39.378906 -53.832031 39.210938 -53.667969 39.210938 -54 C 39.210938 -54.332031 39.378906 -54.996094 39.710938 -55.328125 C 39.875 -55.828125 40.207031 -55.992188 40.207031 -55.660156 C 40.207031 -55.328125 39.875 -54.664062 39.710938 -54.332031 Z M 40.207031 -59.316406 C 40.207031 -59.648438 40.871094 -61.144531 41.703125 -62.804688 C 42.699219 -64.300781 43.363281 -65.464844 43.363281 -65.128906 C 43.363281 -64.796875 42.535156 -63.304688 41.703125 -61.640625 C 40.871094 -60.144531 40.207031 -58.984375 40.207031 -59.316406 Z M 41.703125 -58.984375 C 41.539062 -58.652344 41.207031 -58.484375 41.207031 -58.816406 C 41.207031 -59.148438 41.539062 -59.648438 41.703125 -60.144531 C 42.035156 -60.480469 42.367188 -60.644531 42.367188 -60.3125 C 42.367188 -60.144531 42.035156 -59.480469 41.703125 -58.984375 Z M 43.53125 -62.972656 C 42.867188 -61.972656 42.867188 -61.972656 43.363281 -63.304688 C 44.195312 -64.964844 44.363281 -65.128906 44.363281 -64.464844 C 44.363281 -64.300781 44.03125 -63.46875 43.53125 -62.972656 Z M 45.691406 -67.457031 C 44.695312 -65.296875 44.363281 -64.964844 44.363281 -65.796875 C 44.363281 -66.292969 44.195312 -66.292969 43.863281 -66.128906 C 43.53125 -65.960938 44.195312 -67.789062 45.523438 -70.117188 C 46.6875 -72.441406 47.683594 -74.433594 47.851562 -74.433594 C 48.015625 -74.433594 47.519531 -73.105469 46.855469 -71.777344 C 45.359375 -68.785156 45.191406 -68.289062 46.023438 -68.785156 C 46.355469 -69.117188 46.191406 -68.453125 45.691406 -67.457031 Z M 48.183594 -71.777344 C 47.519531 -70.613281 46.855469 -69.617188 46.855469 -69.617188 C 46.6875 -69.617188 47.019531 -70.613281 47.519531 -71.777344 C 48.183594 -72.941406 48.847656 -73.769531 48.847656 -73.769531 C 49.015625 -73.769531 48.683594 -72.941406 48.183594 -71.777344 Z M 48.351562 -74.933594 C 48.183594 -74.933594 48.351562 -75.433594 48.683594 -75.929688 C 49.015625 -76.59375 49.347656 -76.925781 49.511719 -76.925781 C 49.679688 -76.925781 49.511719 -76.59375 49.179688 -75.929688 C 48.847656 -75.433594 48.515625 -74.933594 48.351562 -74.933594 Z M 53 -79.753906 C 49.84375 -74.765625 48.183594 -72.773438 50.175781 -76.261719 C 52.335938 -79.753906 54.996094 -83.90625 55.492188 -84.238281 C 55.828125 -84.402344 54.664062 -82.410156 53 -79.753906 Z M 57.15625 -85.898438 C 56.492188 -84.902344 55.992188 -84.738281 55.992188 -85.070312 C 55.992188 -85.234375 56.492188 -85.734375 56.988281 -86.066406 C 57.820312 -86.730469 57.820312 -86.730469 57.15625 -85.898438 Z M 58.816406 -87.894531 C 57.988281 -87.0625 57.652344 -86.730469 57.652344 -87.230469 C 57.652344 -87.394531 57.988281 -87.726562 58.484375 -88.226562 C 59.316406 -88.890625 59.480469 -88.722656 58.816406 -87.894531 Z M 67.457031 -35.390625 C 67.289062 -35.222656 67.125 -35.554688 67.125 -36.054688 C 67.125 -36.71875 67.289062 -36.886719 67.457031 -36.386719 C 67.625 -36.054688 67.625 -35.554688 67.457031 -35.390625 Z M 67.957031 -38.046875 C 67.789062 -37.882812 67.625 -38.214844 67.625 -38.714844 C 67.789062 -39.378906 67.789062 -39.542969 67.957031 -39.046875 C 68.121094 -38.714844 68.121094 -38.214844 67.957031 -38.046875 Z M 68.953125 -42.867188 C 68.785156 -42.699219 68.785156 -43.03125 68.785156 -43.53125 C 68.785156 -44.195312 68.953125 -44.195312 69.117188 -43.863281 C 69.285156 -43.53125 69.117188 -43.03125 68.953125 -42.867188 Z M 69.617188 -44.859375 C 69.449219 -44.695312 69.285156 -45.027344 69.285156 -45.691406 C 69.285156 -46.191406 69.449219 -46.355469 69.617188 -46.023438 C 69.78125 -45.523438 69.78125 -45.191406 69.617188 -44.859375 Z M 76.59375 -54.664062 C 76.761719 -55.160156 76.761719 -55.328125 76.925781 -54.996094 C 77.09375 -54.496094 77.09375 -54.164062 76.925781 -54 C 76.761719 -53.667969 76.59375 -54 76.59375 -54.664062 Z M 76.429688 -53 C 76.59375 -53 75.929688 -49.347656 75.101562 -45.027344 C 74.101562 -40.707031 72.941406 -34.726562 72.441406 -31.902344 C 71.941406 -28.910156 71.113281 -25.253906 70.945312 -23.757812 C 70.613281 -22.097656 70.449219 -21.265625 70.28125 -21.765625 C 70.28125 -24.425781 75.929688 -53.667969 76.429688 -53 Z M 73.9375 -76.761719 C 74.101562 -75.765625 72.441406 -68.289062 68.953125 -53.5 C 65.128906 -36.386719 63.636719 -28.578125 62.972656 -19.441406 C 62.636719 -15.949219 62.304688 -12.792969 61.972656 -12.628906 C 61.476562 -12.128906 62.304688 -25.421875 63.46875 -32.066406 C 64.796875 -40.207031 73.769531 -78.589844 73.9375 -76.761719 Z M 70.28125 -72.109375 C 70.28125 -72.609375 70.449219 -72.773438 70.613281 -72.273438 C 70.78125 -71.941406 70.78125 -71.445312 70.613281 -71.277344 C 70.449219 -71.113281 70.28125 -71.445312 70.28125 -72.109375 Z M 60.3125 -25.089844 C 60.976562 -32.066406 62.472656 -39.875 65.464844 -52.667969 C 68.953125 -67.289062 69.78125 -70.78125 70.117188 -70.449219 C 70.28125 -70.449219 68.953125 -63.96875 67.125 -56.324219 C 63.636719 -40.707031 62.140625 -33.726562 61.308594 -27.914062 C 60.976562 -25.753906 60.644531 -22.429688 60.3125 -20.4375 C 59.648438 -15.453125 59.648438 -19.105469 60.3125 -25.089844 Z M 60.3125 -25.089844 "/></g></g></g><g fill="#000000" fill-opacity="1"><g transform="translate(683.128182, 460.117014)"><g><path d="M 37.21875 -106.003906 C 38.878906 -106.335938 41.371094 -107.167969 42.535156 -107.664062 C 43.699219 -108.164062 45.855469 -108.660156 47.351562 -108.828125 C 48.847656 -108.996094 50.34375 -109.160156 50.507812 -109.492188 C 51.339844 -110.15625 47.519531 -112.316406 43.699219 -113.480469 C 35.222656 -115.804688 32.066406 -115.640625 22.929688 -112.816406 C 13.625 -109.992188 2.660156 -103.34375 0.832031 -99.359375 C 0 -97.695312 0 -97.53125 0.664062 -96.199219 C 1.164062 -95.535156 1.828125 -95.039062 2.324219 -95.039062 C 2.660156 -95.039062 3.324219 -94.539062 3.65625 -94.207031 C 4.652344 -92.878906 6.3125 -93.210938 9.96875 -95.535156 C 11.796875 -96.699219 13.457031 -97.53125 13.625 -97.363281 C 13.625 -97.363281 13.292969 -95.867188 12.628906 -94.207031 C 9.804688 -85.898438 6.3125 -70.28125 4.816406 -58.984375 C 3.488281 -48.683594 3.65625 -32.234375 5.152344 -26.75 C 6.8125 -20.4375 9.136719 -16.117188 12.792969 -12.628906 L 15.949219 -9.636719 L 13.457031 -7.644531 C 10.800781 -5.316406 8.972656 -2.660156 8.972656 -0.996094 C 8.972656 0.332031 10.964844 1.660156 12.460938 1.496094 C 13.125 1.328125 13.789062 1.496094 13.957031 1.992188 C 14.453125 3.324219 16.949219 2.160156 24.425781 -2.660156 C 26.917969 -4.320312 29.574219 -5.816406 30.074219 -5.816406 C 30.570312 -5.816406 31.070312 -5.980469 31.234375 -6.3125 C 31.234375 -6.480469 34.0625 -8.308594 37.21875 -10.136719 C 45.855469 -15.285156 45.523438 -14.953125 43.03125 -15.949219 C 41.039062 -16.949219 40.539062 -16.949219 34.558594 -16.117188 C 31.070312 -15.617188 27.582031 -15.121094 26.75 -14.953125 C 25.089844 -14.621094 25.253906 -14.453125 23.925781 -26.75 C 23.261719 -34.0625 23.09375 -36.886719 23.59375 -44.363281 C 24.425781 -54.496094 26.085938 -65.128906 28.742188 -76.261719 C 33.230469 -94.539062 34.726562 -104.507812 33.0625 -104.507812 C 31.734375 -104.507812 34.0625 -105.503906 37.21875 -106.003906 Z M 10.800781 -44.03125 C 10.800781 -42.535156 10.800781 -44.859375 10.800781 -49.015625 C 10.964844 -54 11.464844 -59.480469 12.296875 -64.464844 C 14.621094 -77.925781 19.441406 -95.039062 22.265625 -100.1875 C 22.761719 -101.351562 23.09375 -101.683594 22.929688 -101.019531 C 22.761719 -100.519531 21.597656 -97.199219 20.4375 -93.875 C 16.449219 -81.910156 12.792969 -65.128906 11.628906 -52.667969 C 11.296875 -49.347656 10.964844 -45.523438 10.800781 -44.03125 Z M 13.457031 -38.546875 C 13.457031 -32.730469 13.457031 -27.914062 13.457031 -27.914062 C 12.960938 -27.914062 12.628906 -34.558594 12.628906 -41.371094 C 12.628906 -54.164062 14.289062 -65.796875 17.945312 -80.582031 C 19.9375 -88.390625 23.757812 -100.851562 24.757812 -102.347656 C 25.917969 -104.34375 25.585938 -102.015625 23.425781 -95.703125 C 16.613281 -75.265625 13.457031 -57.15625 13.457031 -38.546875 Z M 16.613281 -55.492188 C 16.449219 -55.328125 16.28125 -55.660156 16.449219 -56.160156 C 16.449219 -56.824219 16.449219 -56.988281 16.78125 -56.492188 C 16.78125 -56.160156 16.78125 -55.660156 16.613281 -55.492188 Z M 17.28125 -58.984375 C 17.113281 -58.484375 16.949219 -58.984375 16.949219 -59.8125 C 16.949219 -60.644531 17.113281 -60.976562 17.28125 -60.480469 C 17.445312 -59.980469 17.28125 -59.316406 17.28125 -58.984375 Z M 17.777344 -62.304688 C 17.613281 -61.808594 17.445312 -62.304688 17.445312 -63.304688 C 17.445312 -64.300781 17.613281 -64.796875 17.777344 -64.132812 C 17.945312 -63.636719 17.945312 -62.804688 17.777344 -62.304688 Z M 17.945312 -65.960938 C 17.777344 -68.453125 25.917969 -99.523438 27.414062 -102.515625 C 28.742188 -104.839844 28.246094 -102.679688 26.085938 -95.867188 C 24.757812 -91.882812 22.761719 -84.402344 21.433594 -79.085938 C 20.105469 -73.769531 18.773438 -68.453125 18.609375 -67.289062 C 18.277344 -66.128906 17.945312 -65.464844 17.945312 -65.960938 Z M 20.933594 -41.207031 C 20.769531 -40.207031 20.769531 -41.207031 20.769531 -43.53125 C 20.769531 -45.855469 20.769531 -46.6875 20.933594 -45.523438 C 21.101562 -44.195312 21.101562 -42.367188 20.933594 -41.207031 Z M 31.902344 -100.1875 C 31.734375 -99.523438 29.90625 -91.882812 27.914062 -83.40625 C 25.917969 -74.765625 23.59375 -64.300781 22.929688 -60.144531 C 22.265625 -55.992188 21.597656 -51.507812 21.433594 -50.34375 C 21.265625 -49.179688 21.265625 -50.175781 21.433594 -52.503906 C 21.597656 -54.828125 22.097656 -59.480469 22.761719 -62.804688 C 23.925781 -69.617188 30.902344 -98.859375 31.570312 -100.519531 C 32.066406 -101.519531 32.066406 -101.351562 31.902344 -100.1875 Z M 31.902344 -100.1875 "/></g></g></g></svg>