<svg xmlns="http://www.w3.org/2000/svg" xmlns:xlink="http://www.w3.org/1999/xlink" width="1080" zoomAndPan="magnify" viewBox="0 0 810 809.999993" height="1080" preserveAspectRatio="xMidYMid meet" version="1.0"><defs><g/></defs><g fill="#000000" fill-opacity="1"><g transform="translate(51.749626, 453.624015)"><g><path d="M 6.890625 -9.675781 C 9.820312 -4.105469 16.855469 1.320312 22.425781 2.34375 C 23.890625 2.636719 26.675781 3.371094 28.582031 3.957031 C 34.738281 5.863281 38.988281 5.277344 43.535156 1.90625 C 49.394531 -2.34375 55.992188 -14.21875 58.921875 -25.503906 C 59.65625 -28.289062 60.683594 -31.808594 61.121094 -33.125 C 62 -35.617188 61.855469 -37.378906 60.828125 -36.644531 C 60.535156 -36.496094 60.242188 -36.644531 60.242188 -36.9375 C 59.949219 -37.964844 58.628906 -36.644531 56.433594 -33.125 C 55.257812 -31.367188 53.648438 -29.316406 52.765625 -28.4375 C 51.886719 -27.554688 48.515625 -23.597656 45.144531 -19.789062 C 41.921875 -15.832031 37.816406 -11.578125 36.203125 -10.261719 C 33.417969 -8.0625 28.582031 -5.277344 27.410156 -5.128906 C 26.53125 -5.128906 23.011719 -10.554688 21.546875 -13.777344 C 17.589844 -23.011719 16.417969 -39.574219 18.910156 -51.742188 C 22.867188 -71.675781 30.78125 -86.332031 39.28125 -89.558594 C 41.921875 -90.585938 45 -90.730469 46.316406 -89.996094 C 48.515625 -88.824219 50.863281 -81.203125 52.472656 -70.796875 C 52.914062 -66.839844 53.792969 -62.734375 54.234375 -61.707031 C 55.113281 -59.65625 57.898438 -57.164062 59.21875 -57.457031 C 60.242188 -57.605469 61.5625 -59.949219 62.441406 -63.027344 C 63.320312 -66.398438 63.320312 -74.902344 62.441406 -78.710938 C 60.828125 -85.308594 55.84375 -92.636719 50.421875 -96.300781 C 49.394531 -97.035156 47.34375 -98.644531 46.023438 -99.820312 C 40.015625 -105.386719 32.246094 -106.269531 24.769531 -102.164062 C 21.839844 -100.550781 17.441406 -96.152344 14.804688 -92.195312 C 8.0625 -81.789062 2.492188 -65.375 0.585938 -50.277344 C 0 -44.558594 0.292969 -32.6875 1.320312 -26.675781 C 2.34375 -21.253906 4.835938 -13.484375 6.890625 -9.675781 Z M 59.949219 -35.179688 C 60.242188 -34.886719 60.390625 -34.445312 60.242188 -34.300781 C 60.097656 -34.152344 59.804688 -34.445312 59.65625 -34.886719 C 59.363281 -35.472656 59.511719 -35.617188 59.949219 -35.179688 Z M 58.777344 -33.710938 C 58.921875 -34.003906 59.804688 -33.859375 59.804688 -33.417969 C 59.804688 -33.417969 59.511719 -33.273438 59.21875 -33.273438 C 58.777344 -33.273438 58.628906 -33.417969 58.777344 -33.710938 Z M 58.777344 -31.953125 C 58.921875 -32.394531 59.070312 -32.539062 59.21875 -32.394531 C 59.363281 -32.246094 59.21875 -31.953125 58.921875 -31.660156 C 58.484375 -31.222656 58.484375 -31.222656 58.777344 -31.953125 Z M 11.140625 -49.101562 C 10.992188 -48.957031 10.992188 -49.25 10.992188 -49.6875 C 10.992188 -50.277344 11.140625 -50.421875 11.285156 -49.984375 C 11.433594 -49.6875 11.433594 -49.25 11.140625 -49.101562 Z M 21.253906 -68.746094 C 19.789062 -65.078125 17.589844 -56.578125 16.5625 -51.007812 C 15.976562 -48.222656 15.539062 -45.144531 15.390625 -44.265625 L 15.242188 -42.652344 L 15.242188 -44.265625 C 15.097656 -46.464844 15.976562 -51.742188 17.441406 -57.898438 C 18.761719 -63.320312 21.546875 -71.53125 21.988281 -71.234375 C 21.988281 -71.089844 21.691406 -69.917969 21.253906 -68.746094 Z M 21.691406 -78.710938 C 21.253906 -78.273438 21.253906 -78.273438 21.398438 -78.859375 C 21.546875 -79.445312 21.839844 -79.589844 21.988281 -79.445312 C 22.132812 -79.296875 21.988281 -79.003906 21.691406 -78.710938 Z M 25.359375 -88.53125 C 26.96875 -90.4375 26.824219 -89.996094 24.625 -86.332031 C 20.082031 -79.296875 15.976562 -69.039062 13.484375 -59.21875 C 12.605469 -55.84375 11.871094 -52.472656 11.726562 -51.742188 L 11.578125 -50.570312 L 11.433594 -51.742188 C 11.433594 -53.648438 13.046875 -61.269531 14.804688 -66.984375 C 17.734375 -76.074219 21.839844 -84.574219 25.359375 -88.53125 Z M 23.304688 -89.558594 C 23.746094 -89.851562 23.304688 -89.117188 22.425781 -87.800781 C 18.027344 -81.644531 12.898438 -68.304688 10.40625 -56.140625 C 8.941406 -49.542969 8.792969 -48.664062 8.792969 -38.550781 C 8.792969 -32.832031 8.792969 -27.996094 8.792969 -27.996094 C 8.355469 -27.996094 7.914062 -36.496094 7.914062 -41.773438 C 8.0625 -50.863281 9.675781 -60.097656 13.046875 -70.210938 C 15.539062 -77.539062 20.8125 -87.507812 23.304688 -89.558594 Z M 10.40625 -67.863281 C 12.019531 -73.140625 17.296875 -85.160156 17.441406 -83.839844 C 17.441406 -83.546875 17.003906 -82.523438 16.417969 -81.496094 C 13.484375 -75.488281 9.527344 -63.320312 7.914062 -54.820312 C 7.476562 -52.472656 6.890625 -47.929688 6.449219 -44.707031 C 6.007812 -40.160156 5.863281 -39.574219 5.863281 -41.921875 C 5.714844 -47.492188 7.914062 -60.097656 10.40625 -67.863281 Z M 3.519531 -56.726562 C 3.519531 -57.3125 3.664062 -57.3125 3.8125 -57.019531 C 3.957031 -56.578125 3.957031 -56.285156 3.8125 -56.140625 C 3.664062 -55.992188 3.519531 -56.285156 3.519531 -56.726562 Z M 3.519531 -56.726562 "/></g></g></g><g fill="#000000" fill-opacity="1"><g transform="translate(116.536527, 453.624015)"><g><path d="M 67.863281 -87.507812 C 65.960938 -89.996094 57.3125 -96.59375 54.085938 -98.058594 C 51.59375 -99.230469 50.863281 -99.378906 46.316406 -99.378906 C 41.480469 -99.378906 40.894531 -99.230469 37.671875 -97.914062 C 32.101562 -95.421875 27.117188 -91.902344 21.839844 -86.625 C 16.417969 -81.058594 13.777344 -77.6875 9.820312 -70.941406 C 4.835938 -62.148438 1.757812 -53.941406 0.878906 -47.199219 C 0 -41.480469 1.320312 -34.152344 3.957031 -29.609375 C 5.714844 -26.53125 10.40625 -21.988281 13.046875 -20.8125 C 15.097656 -19.789062 15.097656 -19.640625 15.683594 -16.855469 C 16.417969 -13.339844 19.496094 -7.183594 21.691406 -4.835938 C 24.332031 -1.90625 27.703125 0.441406 30.195312 1.171875 C 31.367188 1.613281 32.980469 2.199219 33.710938 2.636719 C 34.445312 3.078125 35.910156 3.8125 37.082031 4.105469 C 39.722656 4.835938 43.238281 4.542969 46.023438 3.226562 C 48.664062 1.90625 54.964844 -4.25 57.75 -8.648438 C 64.640625 -19.203125 70.210938 -33.417969 73.140625 -47.929688 C 74.609375 -55.113281 74.609375 -69.917969 73.433594 -75.488281 C 72.410156 -79.445312 69.917969 -84.867188 67.863281 -87.507812 Z M 66.105469 -56.140625 C 66.105469 -56.578125 66.253906 -56.726562 66.398438 -56.433594 C 66.546875 -55.992188 66.546875 -55.699219 66.398438 -55.550781 C 66.253906 -55.257812 66.105469 -55.550781 66.105469 -56.140625 Z M 65.667969 -53.207031 C 65.960938 -54.527344 65.960938 -54.527344 65.960938 -53.5 C 65.960938 -52.914062 65.8125 -51.742188 65.667969 -50.863281 C 65.226562 -49.6875 65.226562 -49.6875 65.226562 -50.714844 C 65.226562 -51.300781 65.375 -52.472656 65.667969 -53.207031 Z M 65.078125 -48.664062 C 65.078125 -48.222656 64.640625 -46.171875 64.199219 -43.972656 C 63.320312 -40.457031 62.734375 -39.136719 62.882812 -40.308594 C 62.882812 -41.1875 65.078125 -49.394531 65.078125 -48.664062 Z M 15.539062 -70.0625 C 15.976562 -70.503906 15.683594 -69.917969 14.949219 -68.597656 C 14.363281 -67.425781 13.484375 -66.105469 13.339844 -65.8125 C 12.605469 -65.078125 14.65625 -69.039062 15.539062 -70.0625 Z M 6.007812 -53.0625 C 6.15625 -53.355469 6.449219 -53.5 6.449219 -53.207031 C 6.304688 -52.328125 5.570312 -50.863281 5.570312 -51.59375 C 5.570312 -52.035156 5.714844 -52.621094 6.007812 -53.0625 Z M 4.398438 -45.4375 C 4.25 -45.144531 4.25 -45.4375 4.25 -46.023438 C 4.25 -46.613281 4.25 -46.90625 4.398438 -46.613281 C 4.542969 -46.316406 4.542969 -45.730469 4.398438 -45.4375 Z M 4.691406 -48.078125 C 4.691406 -48.664062 4.835938 -49.542969 4.984375 -49.984375 C 5.277344 -50.570312 5.421875 -50.714844 5.421875 -50.277344 C 5.421875 -49.835938 5.277344 -48.957031 4.984375 -48.371094 C 4.691406 -47.492188 4.691406 -47.34375 4.691406 -48.078125 Z M 5.128906 -42.507812 L 5.277344 -45.292969 C 5.421875 -46.90625 6.304688 -50.277344 7.183594 -52.914062 C 8.648438 -57.605469 12.3125 -65.375 12.753906 -65.078125 C 12.898438 -64.933594 12.164062 -63.027344 11.140625 -60.976562 C 10.113281 -58.921875 8.5 -55.257812 7.769531 -52.914062 C 7.035156 -50.570312 6.007812 -47.34375 5.714844 -45.585938 Z M 8.0625 -50.421875 C 10.113281 -58.191406 16.855469 -70.648438 21.839844 -76.367188 C 22.574219 -77.246094 22.132812 -76.367188 20.667969 -74.3125 C 17.734375 -70.210938 13.632812 -62.882812 11.726562 -58.777344 C 10.992188 -57.3125 9.820312 -54.085938 8.941406 -51.59375 C 7.328125 -47.050781 6.890625 -46.464844 8.0625 -50.421875 Z M 19.789062 -31.074219 C 19.640625 -30.339844 19.640625 -30.488281 19.496094 -31.660156 C 19.496094 -32.539062 19.640625 -34.445312 19.933594 -35.910156 C 20.519531 -38.988281 23.304688 -48.515625 23.453125 -48.222656 C 23.597656 -48.078125 23.160156 -46.316406 22.574219 -44.121094 C 21.988281 -41.921875 21.105469 -38.402344 20.667969 -36.203125 C 20.375 -34.152344 19.933594 -31.808594 19.789062 -31.074219 Z M 21.398438 -27.847656 L 20.960938 -21.988281 L 21.105469 -29.023438 C 21.253906 -34.886719 21.398438 -36.789062 22.425781 -40.601562 C 24.332031 -47.636719 26.382812 -52.765625 29.316406 -58.777344 C 31.808594 -63.613281 35.472656 -69.769531 36.058594 -69.769531 C 36.058594 -69.769531 35.179688 -68.15625 33.859375 -65.960938 C 29.167969 -58.484375 25.359375 -48.957031 23.011719 -39.136719 C 22.28125 -35.910156 21.546875 -31.367188 21.398438 -27.847656 Z M 23.746094 -49.101562 C 23.746094 -49.394531 23.890625 -49.835938 24.183594 -50.277344 C 24.332031 -50.570312 24.625 -50.714844 24.625 -50.421875 C 24.625 -50.277344 24.332031 -49.6875 24.183594 -49.25 C 23.890625 -48.957031 23.746094 -48.808594 23.746094 -49.101562 Z M 23.597656 -33.273438 L 23.304688 -32.246094 L 23.304688 -33.273438 C 23.160156 -36.789062 27.554688 -51.007812 31.222656 -58.777344 C 33.710938 -63.761719 37.816406 -70.503906 39.28125 -71.675781 C 39.722656 -71.96875 38.84375 -70.648438 37.671875 -68.597656 C 32.394531 -60.828125 27.554688 -49.542969 25.066406 -39.574219 C 24.332031 -36.644531 23.597656 -33.710938 23.597656 -33.273438 Z M 26.824219 -29.316406 C 26.675781 -28.875 26.53125 -29.316406 26.53125 -30.195312 C 26.53125 -31.074219 26.675781 -31.515625 26.824219 -31.074219 C 26.96875 -30.632812 26.96875 -29.902344 26.824219 -29.316406 Z M 27.261719 -32.394531 C 27.117188 -32.101562 26.96875 -32.394531 26.96875 -33.273438 C 26.96875 -34.003906 27.117188 -34.300781 27.261719 -33.859375 C 27.410156 -33.417969 27.410156 -32.6875 27.261719 -32.394531 Z M 27.703125 -35.03125 C 27.554688 -34.886719 27.410156 -35.179688 27.410156 -35.617188 C 27.410156 -36.203125 27.554688 -36.203125 27.703125 -35.910156 C 27.847656 -35.472656 27.847656 -35.179688 27.703125 -35.03125 Z M 28.144531 -36.789062 C 27.996094 -36.644531 27.847656 -36.9375 27.847656 -37.523438 C 27.996094 -37.964844 27.996094 -38.109375 28.144531 -37.816406 C 28.289062 -37.378906 28.289062 -36.9375 28.144531 -36.789062 Z M 47.199219 -14.21875 C 44.707031 -10.40625 40.457031 -6.007812 38.402344 -4.984375 C 37.523438 -4.542969 36.351562 -4.105469 35.472656 -3.957031 C 34.003906 -3.664062 33.859375 -3.664062 32.539062 -6.007812 C 31.074219 -8.5 29.609375 -12.605469 29.023438 -15.832031 L 28.730469 -17.589844 L 31.222656 -18.320312 C 34.300781 -19.203125 36.203125 -20.519531 36.203125 -21.839844 C 36.203125 -22.425781 36.058594 -22.71875 35.765625 -22.574219 C 35.617188 -22.425781 35.03125 -22.574219 34.738281 -22.867188 C 34.300781 -23.453125 33.859375 -23.453125 32.101562 -22.867188 C 27.996094 -21.691406 28.144531 -21.546875 28.4375 -27.261719 C 29.167969 -39.867188 37.378906 -61.414062 45.144531 -71.382812 C 47.199219 -74.019531 47.34375 -74.460938 46.023438 -75.339844 C 45.4375 -75.78125 43.972656 -76.953125 42.945312 -77.832031 C 41.628906 -78.859375 40.457031 -79.589844 40.160156 -79.445312 C 39.722656 -79.296875 38.988281 -79.152344 38.550781 -79.152344 C 37.082031 -79.152344 31.367188 -73.289062 28.289062 -68.597656 C 20.8125 -57.605469 14.804688 -40.457031 14.804688 -30.195312 C 14.804688 -28.4375 14.65625 -26.96875 14.363281 -26.96875 C 14.21875 -26.96875 13.632812 -27.996094 13.046875 -29.316406 C 10.261719 -36.351562 10.113281 -41.628906 12.605469 -48.957031 C 18.910156 -67.425781 32.980469 -84.28125 46.171875 -89.117188 C 49.101562 -90.144531 50.277344 -90.292969 53.0625 -90.144531 C 58.921875 -89.851562 60.097656 -88.679688 62 -82.082031 C 62.734375 -79.003906 62.882812 -77.097656 63.027344 -70.210938 C 63.027344 -65.667969 62.734375 -60.535156 62.441406 -58.335938 C 59.65625 -41.335938 53.648438 -24.183594 47.199219 -14.21875 Z M 62.734375 -38.988281 C 62.734375 -38.695312 62.589844 -37.964844 62.296875 -37.378906 C 62.148438 -36.789062 62 -36.789062 62 -37.230469 C 62 -37.523438 62.148438 -38.257812 62.296875 -38.84375 C 62.589844 -39.429688 62.734375 -39.429688 62.734375 -38.988281 Z M 63.613281 -31.660156 C 62.441406 -27.996094 59.21875 -20.8125 59.070312 -21.398438 C 59.070312 -21.546875 59.804688 -23.304688 60.683594 -25.359375 C 62.148438 -28.875 64.492188 -35.765625 66.398438 -42.359375 C 66.984375 -43.972656 67.425781 -45 67.425781 -44.558594 C 67.425781 -43.679688 65.519531 -36.789062 63.613281 -31.660156 Z M 67.71875 -45.730469 C 67.570312 -45.585938 67.425781 -45.878906 67.570312 -46.316406 C 67.570312 -46.90625 67.570312 -46.90625 67.71875 -46.613281 C 67.863281 -46.316406 67.863281 -45.878906 67.71875 -45.730469 Z M 61.414062 -30.195312 C 60.390625 -27.554688 59.363281 -25.210938 59.21875 -25.066406 C 59.070312 -24.917969 59.070312 -25.210938 59.21875 -25.796875 C 62.148438 -33.417969 65.519531 -45.585938 66.984375 -53.792969 C 67.570312 -56.578125 67.863281 -57.75 67.863281 -56.726562 C 68.011719 -52.328125 64.785156 -39.28125 61.414062 -30.195312 Z M 68.304688 -59.363281 C 68.15625 -59.070312 68.011719 -59.363281 68.011719 -59.949219 C 68.011719 -60.683594 68.15625 -60.976562 68.304688 -60.535156 C 68.304688 -60.242188 68.304688 -59.804688 68.304688 -59.363281 Z M 70.941406 -45.292969 C 70.796875 -45.144531 70.796875 -45.292969 70.796875 -45.878906 C 70.796875 -46.316406 70.941406 -46.464844 71.089844 -46.171875 C 71.234375 -45.730469 71.089844 -45.4375 70.941406 -45.292969 Z M 70.941406 -45.292969 "/></g></g></g><g fill="#000000" fill-opacity="1"><g transform="translate(192.609815, 453.624015)"><g><path d="M 70.503906 -9.234375 C 76.21875 -9.675781 79.003906 -9.96875 79.738281 -10.40625 C 80.765625 -11.140625 81.058594 -12.605469 80.324219 -14.511719 C 79.738281 -16.125 75.632812 -20.375 74.019531 -20.960938 C 71.382812 -21.839844 62.148438 -21.546875 47.492188 -19.640625 L 44.707031 -19.347656 L 47.636719 -22.132812 C 65.667969 -38.402344 79.589844 -54.527344 86.039062 -66.546875 C 91.023438 -76.074219 91.464844 -83.988281 87.066406 -90.292969 C 86.480469 -91.171875 85.601562 -92.929688 85.160156 -94.101562 C 82.523438 -101.722656 76.21875 -105.683594 65.8125 -105.976562 C 56.433594 -106.414062 47.636719 -104.070312 34.886719 -97.765625 C 23.304688 -92.050781 14.804688 -85.746094 7.476562 -77.539062 C 1.464844 -70.648438 0 -66.253906 2.050781 -61.5625 C 2.636719 -60.097656 3.8125 -58.484375 4.835938 -57.605469 C 5.863281 -56.871094 6.742188 -55.992188 6.742188 -55.550781 C 6.742188 -55.257812 7.328125 -54.234375 8.207031 -53.355469 C 10.847656 -50.421875 16.269531 -50.714844 18.761719 -53.941406 C 19.933594 -55.40625 19.496094 -55.992188 15.832031 -57.605469 L 13.046875 -58.921875 L 14.949219 -61.269531 C 20.519531 -68.304688 34.003906 -77.980469 44.414062 -82.375 C 53.5 -86.1875 64.347656 -88.972656 70.0625 -88.972656 C 72.117188 -88.972656 77.246094 -87.945312 77.832031 -87.359375 C 78.859375 -86.332031 75.046875 -79.589844 69.332031 -71.96875 C 57.019531 -55.40625 36.789062 -36.203125 10.847656 -16.269531 C 3.664062 -10.554688 2.636719 -9.820312 2.636719 -8.5 C 2.492188 -7.621094 2.636719 -6.890625 2.929688 -6.890625 C 3.078125 -6.890625 3.519531 -6.304688 3.664062 -5.570312 C 3.957031 -3.957031 5.714844 -2.929688 7.183594 -3.371094 C 7.769531 -3.519531 8.0625 -3.371094 7.914062 -2.785156 C 7.914062 -2.34375 8.0625 -2.050781 8.648438 -2.199219 C 9.382812 -2.34375 9.527344 -2.199219 9.234375 -1.464844 C 8.792969 -0.292969 8.792969 1.171875 9.382812 1.320312 C 9.675781 1.464844 9.96875 1.90625 9.96875 2.199219 C 9.96875 2.785156 10.261719 2.929688 10.847656 2.636719 C 11.433594 2.636719 11.726562 2.636719 11.726562 2.929688 C 11.726562 3.226562 12.019531 3.226562 12.460938 3.226562 C 15.832031 1.90625 26.675781 -1.320312 33.273438 -2.929688 C 50.128906 -7.183594 57.898438 -8.5 70.503906 -9.234375 Z M 21.691406 -80.324219 C 22.132812 -80.765625 22.574219 -81.058594 22.71875 -80.910156 C 22.867188 -80.910156 22.425781 -80.46875 21.988281 -80.175781 C 20.960938 -79.589844 20.960938 -79.589844 21.691406 -80.324219 Z M 6.449219 -67.277344 C 6.890625 -68.011719 7.914062 -69.476562 8.941406 -70.503906 L 10.554688 -72.410156 L 8.792969 -69.769531 C 6.597656 -66.691406 5.277344 -65.226562 6.449219 -67.277344 Z M 6.890625 -64.785156 C 7.769531 -67.570312 11.871094 -72.261719 17.882812 -77.246094 C 19.933594 -79.003906 19.347656 -78.273438 15.683594 -74.753906 C 12.898438 -71.824219 9.820312 -68.304688 8.792969 -66.691406 C 6.890625 -63.613281 6.449219 -63.175781 6.890625 -64.785156 Z M 12.3125 -65.960938 C 11.726562 -65.226562 11.285156 -64.933594 11.285156 -65.375 C 11.285156 -65.519531 11.726562 -65.8125 12.164062 -66.105469 C 12.898438 -66.691406 12.898438 -66.691406 12.3125 -65.960938 Z M 30.488281 -83.546875 C 20.519531 -76.21875 15.242188 -71.675781 11.578125 -66.839844 C 8.792969 -63.175781 8.0625 -62.441406 9.085938 -64.347656 C 11.578125 -69.039062 18.910156 -76.074219 26.824219 -81.351562 C 30.339844 -83.695312 32.539062 -85.015625 30.488281 -83.546875 Z M 32.832031 -84.722656 C 32.246094 -84.429688 31.808594 -84.28125 31.808594 -84.429688 C 31.808594 -84.574219 32.246094 -84.867188 32.832031 -85.160156 C 33.273438 -85.453125 33.710938 -85.601562 33.710938 -85.453125 C 33.710938 -85.308594 33.273438 -85.015625 32.832031 -84.722656 Z M 61.855469 -44.265625 C 61.414062 -44.265625 61.707031 -44.558594 63.175781 -45.878906 L 64.640625 -47.199219 L 63.320312 -45.730469 C 62.589844 -44.851562 61.855469 -44.265625 61.855469 -44.265625 Z M 71.824219 -49.984375 C 70.355469 -48.222656 67.863281 -45.4375 66.398438 -43.679688 L 63.46875 -40.75 L 66.398438 -44.265625 C 68.15625 -46.171875 71.234375 -49.984375 73.289062 -52.621094 C 75.339844 -55.257812 77.390625 -57.75 77.6875 -57.898438 C 78.566406 -58.777344 74.609375 -53.355469 71.824219 -49.984375 Z M 57.3125 -48.371094 C 61.414062 -52.914062 65.960938 -58.335938 70.0625 -63.46875 C 74.753906 -69.476562 75.78125 -70.796875 75.339844 -69.769531 C 74.753906 -68.746094 70.503906 -62.882812 67.277344 -58.921875 C 65.667969 -56.871094 62.148438 -53.0625 59.65625 -50.570312 C 57.019531 -47.929688 55.992188 -47.050781 57.3125 -48.371094 Z M 52.914062 -41.628906 C 65.226562 -54.234375 67.425781 -56.726562 74.609375 -66.398438 C 79.296875 -72.410156 79.445312 -72.554688 77.6875 -69.625 C 75.925781 -66.546875 70.941406 -59.804688 66.546875 -54.671875 C 63.027344 -50.570312 51.742188 -39.28125 47.636719 -35.617188 C 42.800781 -31.222656 43.828125 -32.394531 52.914062 -41.628906 Z M 34.445312 -21.253906 C 34.886719 -21.691406 37.816406 -24.332031 40.75 -26.96875 C 48.664062 -33.710938 61.269531 -46.171875 66.839844 -52.472656 C 72.554688 -59.070312 73.433594 -59.949219 71.675781 -57.457031 C 66.105469 -49.835938 54.527344 -37.964844 42.945312 -27.996094 C 35.765625 -21.988281 32.246094 -19.054688 34.445312 -21.253906 Z M 34.445312 -21.253906 "/></g></g></g><g fill="#000000" fill-opacity="1"><g transform="translate(285.539437, 453.624015)"><g><path d="M 67.570312 -102.015625 C 67.132812 -102.015625 66.984375 -102.164062 67.277344 -102.605469 C 67.425781 -102.898438 67.132812 -102.75 66.546875 -102.164062 L 65.519531 -101.285156 L 65.8125 -102.605469 C 66.253906 -103.921875 65.667969 -104.214844 64.640625 -103.191406 C 64.199219 -102.75 64.199219 -102.898438 64.347656 -103.777344 C 64.492188 -104.507812 64.492188 -104.800781 63.90625 -104.65625 C 63.46875 -104.363281 63.320312 -104.65625 63.320312 -105.386719 C 63.320312 -106.707031 62 -107.292969 60.097656 -106.855469 C 57.75 -106.414062 51.449219 -99.230469 47.050781 -92.195312 C 43.09375 -85.894531 38.109375 -77.097656 34.445312 -70.0625 C 32.394531 -66.105469 29.902344 -63.613281 25.652344 -61.5625 C 22.574219 -59.949219 21.546875 -60.097656 20.667969 -62.734375 C 18.910156 -68.011719 16.417969 -81.203125 15.097656 -91.757812 C 14.511719 -96.59375 14.21875 -97.765625 13.339844 -98.644531 C 12.753906 -99.230469 11.871094 -99.820312 11.433594 -99.820312 C 10.992188 -99.820312 9.820312 -100.84375 8.792969 -101.871094 C 6.742188 -103.921875 5.421875 -104.214844 3.664062 -102.75 C 0.878906 -100.550781 0 -90.144531 1.757812 -81.496094 C 4.105469 -70.503906 9.96875 -61.269531 16.855469 -57.457031 C 18.175781 -56.726562 20.226562 -55.699219 21.398438 -55.113281 C 22.867188 -54.234375 23.890625 -53.941406 25.210938 -54.234375 C 26.53125 -54.378906 26.96875 -54.234375 26.824219 -53.792969 C 21.691406 -41.042969 20.8125 -38.550781 19.054688 -31.074219 C 16.710938 -21.253906 16.269531 -7.769531 18.320312 -3.078125 C 19.347656 -0.585938 25.503906 4.25 27.554688 4.25 C 28.144531 4.25 29.023438 4.542969 29.460938 4.984375 C 30.632812 5.714844 31.808594 5.863281 32.394531 4.984375 C 32.832031 4.542969 33.125 1.90625 33.125 -0.878906 C 33.125 -8.792969 35.617188 -23.304688 38.695312 -32.539062 C 42.945312 -45.585938 53.0625 -66.691406 62.296875 -81.496094 C 65.519531 -86.773438 70.0625 -95.714844 70.503906 -98.058594 C 70.648438 -99.230469 70.503906 -99.671875 69.476562 -100.84375 C 68.746094 -101.578125 67.863281 -102.164062 67.570312 -102.015625 Z M 6.742188 -97.472656 C 6.597656 -97.328125 6.449219 -97.621094 6.449219 -98.058594 C 6.449219 -98.644531 6.597656 -98.644531 6.742188 -98.351562 C 6.890625 -98.058594 6.890625 -97.621094 6.742188 -97.472656 Z M 8.5 -97.621094 C 8.355469 -96.886719 8.0625 -96.449219 8.0625 -96.449219 C 7.914062 -96.449219 7.914062 -96.886719 7.914062 -97.621094 C 7.914062 -98.207031 8.0625 -98.644531 8.207031 -98.644531 C 8.5 -98.644531 8.5 -98.207031 8.5 -97.621094 Z M 23.304688 -12.019531 C 23.160156 -7.621094 22.867188 -4.835938 22.574219 -5.570312 C 22.132812 -7.183594 22.28125 -11.578125 22.71875 -16.5625 C 23.304688 -21.546875 24.183594 -26.675781 24.476562 -26.382812 C 24.625 -26.238281 24.476562 -24.769531 24.183594 -23.011719 C 23.890625 -21.253906 23.453125 -16.269531 23.304688 -12.019531 Z M 25.210938 -0.878906 C 25.210938 -0.878906 24.917969 -2.050781 24.625 -3.519531 C 23.890625 -7.183594 24.332031 -17.589844 25.503906 -23.746094 C 26.675781 -30.046875 29.023438 -37.378906 32.6875 -46.316406 C 35.472656 -53.5 43.09375 -69.625 43.535156 -69.183594 C 43.679688 -69.183594 41.921875 -65.375 39.722656 -60.976562 C 33.125 -47.34375 29.023438 -36.058594 26.675781 -25.066406 C 25.503906 -20.082031 25.359375 -18.175781 25.359375 -10.113281 C 25.359375 -4.984375 25.210938 -0.878906 25.210938 -0.878906 Z M 29.023438 -17.296875 C 28.875 -17.148438 28.875 -17.441406 28.875 -17.882812 C 28.875 -18.46875 29.023438 -18.613281 29.167969 -18.175781 C 29.316406 -17.882812 29.316406 -17.441406 29.023438 -17.296875 Z M 29.609375 -20.082031 C 29.460938 -19.933594 29.316406 -20.226562 29.316406 -20.667969 C 29.316406 -21.253906 29.460938 -21.398438 29.609375 -20.960938 C 29.753906 -20.667969 29.753906 -20.226562 29.609375 -20.082031 Z M 31.074219 -0.441406 C 30.632812 -0.441406 30.632812 -6.007812 31.074219 -8.792969 C 31.367188 -10.992188 31.515625 -10.40625 31.367188 -5.863281 C 31.367188 -2.929688 31.222656 -0.441406 31.074219 -0.441406 Z M 53.0625 -80.324219 C 52.179688 -78.710938 51.007812 -76.804688 50.421875 -75.925781 C 48.371094 -72.410156 41.335938 -58.628906 38.695312 -52.621094 C 33.417969 -40.601562 30.339844 -31.222656 28.582031 -21.546875 C 28.144531 -19.347656 27.554688 -14.65625 27.117188 -11.433594 L 26.53125 -5.277344 L 26.675781 -11.433594 C 26.96875 -21.546875 29.609375 -32.539062 34.886719 -45.4375 C 39.574219 -56.871094 50.277344 -78.273438 53.355469 -81.644531 C 54.378906 -82.960938 54.378906 -82.816406 53.0625 -80.324219 Z M 53.0625 -80.324219 "/></g></g></g><g fill="#000000" fill-opacity="1"><g transform="translate(349.740031, 453.624015)"><g/></g></g><g fill="#000000" fill-opacity="1"><g transform="translate(408.370701, 453.624015)"><g><path d="M 6.890625 -9.675781 C 9.820312 -4.105469 16.855469 1.320312 22.425781 2.34375 C 23.890625 2.636719 26.675781 3.371094 28.582031 3.957031 C 34.738281 5.863281 38.988281 5.277344 43.535156 1.90625 C 49.394531 -2.34375 55.992188 -14.21875 58.921875 -25.503906 C 59.65625 -28.289062 60.683594 -31.808594 61.121094 -33.125 C 62 -35.617188 61.855469 -37.378906 60.828125 -36.644531 C 60.535156 -36.496094 60.242188 -36.644531 60.242188 -36.9375 C 59.949219 -37.964844 58.628906 -36.644531 56.433594 -33.125 C 55.257812 -31.367188 53.648438 -29.316406 52.765625 -28.4375 C 51.886719 -27.554688 48.515625 -23.597656 45.144531 -19.789062 C 41.921875 -15.832031 37.816406 -11.578125 36.203125 -10.261719 C 33.417969 -8.0625 28.582031 -5.277344 27.410156 -5.128906 C 26.53125 -5.128906 23.011719 -10.554688 21.546875 -13.777344 C 17.589844 -23.011719 16.417969 -39.574219 18.910156 -51.742188 C 22.867188 -71.675781 30.78125 -86.332031 39.28125 -89.558594 C 41.921875 -90.585938 45 -90.730469 46.316406 -89.996094 C 48.515625 -88.824219 50.863281 -81.203125 52.472656 -70.796875 C 52.914062 -66.839844 53.792969 -62.734375 54.234375 -61.707031 C 55.113281 -59.65625 57.898438 -57.164062 59.21875 -57.457031 C 60.242188 -57.605469 61.5625 -59.949219 62.441406 -63.027344 C 63.320312 -66.398438 63.320312 -74.902344 62.441406 -78.710938 C 60.828125 -85.308594 55.84375 -92.636719 50.421875 -96.300781 C 49.394531 -97.035156 47.34375 -98.644531 46.023438 -99.820312 C 40.015625 -105.386719 32.246094 -106.269531 24.769531 -102.164062 C 21.839844 -100.550781 17.441406 -96.152344 14.804688 -92.195312 C 8.0625 -81.789062 2.492188 -65.375 0.585938 -50.277344 C 0 -44.558594 0.292969 -32.6875 1.320312 -26.675781 C 2.34375 -21.253906 4.835938 -13.484375 6.890625 -9.675781 Z M 59.949219 -35.179688 C 60.242188 -34.886719 60.390625 -34.445312 60.242188 -34.300781 C 60.097656 -34.152344 59.804688 -34.445312 59.65625 -34.886719 C 59.363281 -35.472656 59.511719 -35.617188 59.949219 -35.179688 Z M 58.777344 -33.710938 C 58.921875 -34.003906 59.804688 -33.859375 59.804688 -33.417969 C 59.804688 -33.417969 59.511719 -33.273438 59.21875 -33.273438 C 58.777344 -33.273438 58.628906 -33.417969 58.777344 -33.710938 Z M 58.777344 -31.953125 C 58.921875 -32.394531 59.070312 -32.539062 59.21875 -32.394531 C 59.363281 -32.246094 59.21875 -31.953125 58.921875 -31.660156 C 58.484375 -31.222656 58.484375 -31.222656 58.777344 -31.953125 Z M 11.140625 -49.101562 C 10.992188 -48.957031 10.992188 -49.25 10.992188 -49.6875 C 10.992188 -50.277344 11.140625 -50.421875 11.285156 -49.984375 C 11.433594 -49.6875 11.433594 -49.25 11.140625 -49.101562 Z M 21.253906 -68.746094 C 19.789062 -65.078125 17.589844 -56.578125 16.5625 -51.007812 C 15.976562 -48.222656 15.539062 -45.144531 15.390625 -44.265625 L 15.242188 -42.652344 L 15.242188 -44.265625 C 15.097656 -46.464844 15.976562 -51.742188 17.441406 -57.898438 C 18.761719 -63.320312 21.546875 -71.53125 21.988281 -71.234375 C 21.988281 -71.089844 21.691406 -69.917969 21.253906 -68.746094 Z M 21.691406 -78.710938 C 21.253906 -78.273438 21.253906 -78.273438 21.398438 -78.859375 C 21.546875 -79.445312 21.839844 -79.589844 21.988281 -79.445312 C 22.132812 -79.296875 21.988281 -79.003906 21.691406 -78.710938 Z M 25.359375 -88.53125 C 26.96875 -90.4375 26.824219 -89.996094 24.625 -86.332031 C 20.082031 -79.296875 15.976562 -69.039062 13.484375 -59.21875 C 12.605469 -55.84375 11.871094 -52.472656 11.726562 -51.742188 L 11.578125 -50.570312 L 11.433594 -51.742188 C 11.433594 -53.648438 13.046875 -61.269531 14.804688 -66.984375 C 17.734375 -76.074219 21.839844 -84.574219 25.359375 -88.53125 Z M 23.304688 -89.558594 C 23.746094 -89.851562 23.304688 -89.117188 22.425781 -87.800781 C 18.027344 -81.644531 12.898438 -68.304688 10.40625 -56.140625 C 8.941406 -49.542969 8.792969 -48.664062 8.792969 -38.550781 C 8.792969 -32.832031 8.792969 -27.996094 8.792969 -27.996094 C 8.355469 -27.996094 7.914062 -36.496094 7.914062 -41.773438 C 8.0625 -50.863281 9.675781 -60.097656 13.046875 -70.210938 C 15.539062 -77.539062 20.8125 -87.507812 23.304688 -89.558594 Z M 10.40625 -67.863281 C 12.019531 -73.140625 17.296875 -85.160156 17.441406 -83.839844 C 17.441406 -83.546875 17.003906 -82.523438 16.417969 -81.496094 C 13.484375 -75.488281 9.527344 -63.320312 7.914062 -54.820312 C 7.476562 -52.472656 6.890625 -47.929688 6.449219 -44.707031 C 6.007812 -40.160156 5.863281 -39.574219 5.863281 -41.921875 C 5.714844 -47.492188 7.914062 -60.097656 10.40625 -67.863281 Z M 3.519531 -56.726562 C 3.519531 -57.3125 3.664062 -57.3125 3.8125 -57.019531 C 3.957031 -56.578125 3.957031 -56.285156 3.8125 -56.140625 C 3.664062 -55.992188 3.519531 -56.285156 3.519531 -56.726562 Z M 3.519531 -56.726562 "/></g></g></g><g fill="#000000" fill-opacity="1"><g transform="translate(473.157623, 453.624015)"><g><path d="M 14.804688 -34.59375 C 15.539062 -34.59375 15.683594 -34.300781 15.390625 -33.273438 C 13.632812 -24.625 13.046875 -20.8125 13.046875 -15.242188 C 13.046875 -9.675781 13.191406 -8.941406 14.21875 -6.597656 C 15.539062 -3.664062 17.882812 -1.464844 19.640625 -1.464844 C 20.226562 -1.464844 20.667969 -1.320312 20.667969 -1.027344 C 20.667969 -0.292969 22.425781 -0.441406 23.011719 -1.171875 C 23.746094 -2.050781 24.183594 -3.664062 25.652344 -10.113281 C 26.675781 -15.242188 32.101562 -35.472656 32.394531 -35.617188 C 32.539062 -35.765625 35.179688 -36.644531 38.257812 -37.816406 C 44.707031 -39.867188 44.265625 -40.015625 47.492188 -37.082031 C 49.542969 -35.179688 54.671875 -29.167969 57.898438 -24.769531 C 62.296875 -18.910156 64.054688 -15.683594 64.054688 -13.632812 C 64.054688 -11.433594 65.519531 -7.183594 66.984375 -5.714844 C 67.570312 -4.984375 68.304688 -4.691406 69.039062 -4.835938 C 69.625 -4.984375 70.0625 -4.835938 70.0625 -4.691406 C 70.0625 -4.398438 70.210938 -4.25 70.503906 -4.398438 C 70.648438 -4.542969 71.089844 -4.25 71.234375 -3.519531 C 71.824219 -1.320312 75.78125 -2.785156 77.390625 -5.714844 C 77.980469 -6.890625 81.644531 -27.410156 83.546875 -40.601562 C 84.136719 -43.828125 84.574219 -49.394531 84.867188 -53.0625 C 85.160156 -59.363281 85.160156 -59.804688 86.1875 -60.390625 C 88.09375 -61.707031 96.152344 -64.785156 99.085938 -65.375 C 103.042969 -66.105469 105.683594 -66.839844 105.828125 -67.425781 C 105.976562 -68.15625 103.191406 -71.53125 101.285156 -72.996094 C 99.964844 -73.875 99.230469 -74.167969 96.59375 -74.167969 C 94.980469 -74.167969 92.195312 -73.726562 90.292969 -73.433594 C 83.988281 -71.96875 84.867188 -71.382812 83.988281 -77.6875 C 81.9375 -91.316406 78.710938 -97.914062 72.261719 -102.015625 C 71.089844 -102.605469 69.625 -103.921875 68.746094 -104.949219 C 65.226562 -109.054688 60.242188 -109.640625 55.113281 -106.855469 C 51.59375 -105.09375 43.828125 -97.179688 40.160156 -91.902344 C 34.886719 -84.136719 28.730469 -72.261719 23.890625 -60.242188 C 22.71875 -57.3125 21.988281 -55.84375 21.546875 -55.992188 C 21.253906 -55.992188 18.910156 -56.285156 16.417969 -56.285156 C 12.898438 -56.433594 11.285156 -56.285156 9.382812 -55.699219 C 2.636719 -53.648438 0 -49.25 2.492188 -44.265625 C 4.542969 -40.308594 11.871094 -34.59375 14.804688 -34.59375 Z M 20.082031 -7.621094 C 19.933594 -7.476562 19.789062 -7.769531 19.789062 -8.207031 C 19.789062 -8.792969 19.933594 -8.941406 20.082031 -8.5 C 20.226562 -8.207031 20.226562 -7.769531 20.082031 -7.621094 Z M 24.332031 -29.023438 C 23.597656 -26.238281 22.574219 -21.546875 21.839844 -18.46875 C 21.253906 -15.390625 20.667969 -12.3125 20.519531 -11.433594 C 20.375 -10.261719 20.375 -10.261719 20.375 -11.726562 C 20.226562 -13.777344 21.253906 -19.347656 22.867188 -25.796875 C 24.625 -32.980469 24.917969 -34.003906 25.359375 -34.003906 C 25.503906 -34.003906 25.066406 -31.808594 24.332031 -29.023438 Z M 29.753906 -47.199219 C 29.609375 -46.613281 29.316406 -46.171875 29.023438 -46.171875 C 28.582031 -46.171875 28.875 -47.929688 29.316406 -48.515625 C 29.753906 -48.957031 29.902344 -48.222656 29.753906 -47.199219 Z M 35.179688 -59.070312 C 34.738281 -58.628906 34.738281 -58.628906 34.886719 -59.363281 C 35.179688 -59.804688 35.324219 -60.097656 35.472656 -59.949219 C 35.617188 -59.804688 35.472656 -59.363281 35.179688 -59.070312 Z M 65.8125 -25.945312 C 65.375 -22.867188 64.785156 -20.226562 64.785156 -20.226562 C 64.785156 -20.226562 63.613281 -21.546875 62.296875 -23.304688 C 59.070312 -27.703125 55.113281 -32.246094 50.714844 -36.9375 L 46.757812 -40.894531 L 57.3125 -46.171875 C 63.175781 -49.101562 68.15625 -51.59375 68.453125 -51.742188 C 69.039062 -52.035156 67.570312 -35.765625 65.8125 -25.945312 Z M 71.089844 -5.714844 C 71.089844 -6.007812 71.382812 -7.769531 71.96875 -9.675781 C 72.554688 -11.726562 72.847656 -12.460938 72.847656 -11.433594 C 72.847656 -10.113281 71.089844 -4.398438 71.089844 -5.714844 Z M 73.140625 -14.363281 C 72.996094 -14.070312 72.996094 -14.363281 72.996094 -14.949219 C 72.996094 -15.683594 72.996094 -15.832031 73.140625 -15.539062 C 73.289062 -15.242188 73.289062 -14.65625 73.140625 -14.363281 Z M 73.582031 -16.710938 C 73.582031 -16.417969 73.433594 -16.710938 73.433594 -17.296875 C 73.433594 -17.882812 73.582031 -18.175781 73.582031 -17.882812 C 73.726562 -17.589844 73.726562 -17.003906 73.582031 -16.710938 Z M 74.019531 -19.789062 C 73.875 -19.640625 73.875 -19.933594 73.875 -20.375 C 73.875 -20.960938 74.019531 -20.960938 74.167969 -20.667969 C 74.3125 -20.375 74.3125 -19.933594 74.019531 -19.789062 Z M 74.609375 -22.574219 C 74.460938 -22.425781 74.3125 -22.71875 74.3125 -23.160156 C 74.3125 -23.746094 74.460938 -23.746094 74.609375 -23.453125 C 74.753906 -23.160156 74.753906 -22.71875 74.609375 -22.574219 Z M 80.324219 -34.738281 C 80.324219 -35.324219 80.46875 -35.472656 80.617188 -35.03125 C 80.765625 -34.738281 80.765625 -34.300781 80.617188 -34.152344 C 80.46875 -34.003906 80.324219 -34.300781 80.324219 -34.738281 Z M 80.175781 -32.539062 C 80.324219 -32.101562 80.324219 -31.515625 80.175781 -31.222656 C 80.03125 -30.78125 79.882812 -31.222656 79.882812 -31.953125 C 80.03125 -32.6875 80.03125 -32.980469 80.175781 -32.539062 Z M 78.710938 -25.652344 C 79.152344 -28.144531 79.589844 -30.195312 79.738281 -30.195312 C 79.882812 -30.046875 79.152344 -25.210938 78.273438 -19.347656 C 77.246094 -13.484375 76.367188 -8.5 76.074219 -8.355469 C 75.78125 -7.914062 76.660156 -13.339844 78.710938 -25.652344 Z M 75.925781 -46.613281 C 75.488281 -41.480469 74.609375 -34.300781 72.554688 -21.691406 C 71.675781 -16.125 70.796875 -10.992188 70.503906 -10.261719 L 70.210938 -9.085938 L 70.0625 -10.554688 C 70.0625 -11.285156 70.796875 -16.269531 71.675781 -21.691406 C 72.703125 -27.117188 74.019531 -35.765625 74.753906 -41.042969 C 75.632812 -47.199219 76.074219 -49.25 75.925781 -46.613281 Z M 73.140625 -40.894531 C 73.289062 -40.457031 73.289062 -39.867188 73.140625 -39.574219 C 72.996094 -39.28125 72.996094 -39.574219 72.996094 -40.308594 C 72.996094 -41.1875 73.140625 -41.335938 73.140625 -40.894531 Z M 72.410156 -35.765625 L 72.847656 -38.550781 L 72.703125 -35.472656 C 72.554688 -33.859375 71.675781 -28.144531 70.941406 -22.71875 C 70.0625 -17.441406 69.183594 -13.046875 69.039062 -13.046875 C 68.890625 -13.046875 68.746094 -13.632812 68.890625 -14.363281 C 69.039062 -15.097656 69.769531 -19.496094 70.503906 -24.332031 C 71.234375 -29.023438 72.117188 -34.152344 72.410156 -35.765625 Z M 60.097656 -89.851562 C 63.613281 -92.78125 66.253906 -94.394531 66.839844 -93.808594 C 68.304688 -92.488281 70.210938 -70.210938 69.332031 -67.132812 C 68.890625 -65.960938 63.90625 -63.175781 41.335938 -51.886719 C 37.816406 -49.984375 37.082031 -49.6875 37.082031 -50.128906 C 37.082031 -50.128906 38.109375 -53.0625 39.574219 -56.578125 C 45.730469 -71.96875 52.914062 -83.695312 60.097656 -89.851562 Z M 50.128906 -89.558594 L 51.59375 -91.171875 L 50.277344 -89.410156 C 44.121094 -80.617188 38.695312 -70.503906 34.003906 -58.777344 C 31.074219 -51.449219 30.925781 -51.15625 30.925781 -52.472656 C 30.925781 -53.792969 35.910156 -65.519531 39.429688 -72.554688 C 42.652344 -79.003906 47.34375 -86.480469 50.128906 -89.558594 Z M 45.144531 -86.1875 C 45.292969 -86.1875 45 -85.601562 44.558594 -85.015625 C 41.335938 -80.324219 34.445312 -66.253906 31.074219 -57.457031 C 30.195312 -55.113281 29.316406 -53.207031 29.023438 -53.207031 C 28.4375 -53.207031 28.4375 -52.914062 30.78125 -58.777344 C 34.886719 -69.039062 43.972656 -86.1875 45.144531 -86.1875 Z M 32.539062 -66.839844 C 32.832031 -67.277344 32.980469 -67.570312 33.125 -67.425781 C 33.273438 -67.277344 33.125 -66.839844 32.832031 -66.546875 C 32.394531 -66.105469 32.394531 -66.105469 32.539062 -66.839844 Z M 31.660156 -64.785156 C 31.953125 -65.519531 32.246094 -65.8125 32.246094 -65.519531 C 32.246094 -65.226562 31.953125 -64.492188 31.660156 -63.90625 C 31.222656 -63.175781 30.925781 -62.882812 30.925781 -63.175781 C 30.925781 -63.46875 31.222656 -64.199219 31.660156 -64.785156 Z M 30.195312 -61.5625 C 30.632812 -62.148438 30.925781 -62.441406 30.925781 -62.296875 C 30.925781 -62 30.632812 -61.269531 30.195312 -60.683594 C 29.902344 -59.949219 29.609375 -59.65625 29.609375 -59.949219 C 29.609375 -60.242188 29.902344 -60.976562 30.195312 -61.5625 Z M 28.144531 -56.140625 C 28.730469 -57.164062 29.023438 -57.605469 28.730469 -56.871094 C 28.4375 -55.550781 27.261719 -53.207031 27.261719 -53.941406 C 27.261719 -54.085938 27.703125 -55.113281 28.144531 -56.140625 Z M 26.96875 -46.464844 C 26.675781 -45.585938 26.238281 -44.851562 26.089844 -44.851562 C 25.652344 -44.851562 26.238281 -47.199219 26.96875 -48.515625 C 27.847656 -50.128906 27.847656 -48.515625 26.96875 -46.464844 Z M 24.625 -46.757812 C 25.796875 -49.984375 25.796875 -50.128906 26.089844 -49.835938 C 26.238281 -49.6875 25.796875 -48.515625 25.359375 -47.050781 C 23.890625 -43.386719 23.453125 -43.09375 24.625 -46.757812 Z M 22.132812 -32.394531 C 22.425781 -33.273438 22.71875 -34.003906 23.011719 -34.003906 C 23.160156 -34.003906 22.867188 -32.101562 22.28125 -29.753906 C 21.691406 -27.410156 20.8125 -23.304688 20.226562 -20.667969 C 19.640625 -18.027344 19.054688 -13.484375 18.910156 -10.40625 L 18.46875 -4.984375 L 18.46875 -9.96875 C 18.320312 -15.683594 19.347656 -21.546875 22.132812 -32.394531 Z M 21.105469 -33.566406 C 21.253906 -33.566406 21.105469 -32.101562 20.667969 -30.488281 C 20.226562 -28.730469 19.347656 -25.066406 18.910156 -22.425781 C 18.320312 -19.789062 17.734375 -15.683594 17.441406 -13.632812 L 17.003906 -9.675781 L 17.148438 -13.777344 C 17.296875 -17.296875 18.320312 -22.71875 20.519531 -32.539062 C 20.667969 -33.125 20.960938 -33.566406 21.105469 -33.566406 Z M 12.753906 -49.542969 C 15.242188 -50.714844 20.226562 -51.449219 20.226562 -50.570312 C 20.226562 -50.277344 19.640625 -48.371094 18.910156 -46.171875 C 17.882812 -42.945312 17.441406 -42.214844 16.417969 -41.921875 C 14.804688 -41.480469 10.40625 -41.480469 9.234375 -42.066406 C 6.007812 -43.238281 8.0625 -47.492188 12.753906 -49.542969 Z M 5.277344 -49.394531 C 5.570312 -49.984375 6.007812 -50.421875 6.007812 -50.421875 C 6.15625 -50.421875 6.007812 -49.984375 5.863281 -49.394531 C 5.570312 -48.957031 5.128906 -48.515625 5.128906 -48.515625 C 4.984375 -48.515625 5.128906 -48.957031 5.277344 -49.394531 Z M 5.277344 -49.394531 "/></g></g></g><g fill="#000000" fill-opacity="1"><g transform="translate(580.598309, 453.624015)"><g><path d="M 32.6875 -30.925781 L 32.539062 -26.96875 C 32.394531 -21.546875 33.710938 -10.113281 35.03125 -5.277344 C 37.816406 4.105469 41.480469 8.207031 49.984375 10.847656 C 53.648438 12.019531 55.257812 12.164062 55.84375 10.992188 C 56.578125 10.113281 56.285156 9.382812 55.113281 8.792969 C 54.378906 8.5 53.792969 7.476562 53.0625 5.277344 C 51.59375 0.734375 51.300781 -1.320312 50.570312 -9.085938 C 49.984375 -16.855469 50.570312 -27.703125 51.886719 -37.964844 L 52.765625 -43.535156 L 57.898438 -44.558594 C 62.734375 -45.585938 70.210938 -46.613281 76.804688 -47.199219 C 78.417969 -47.34375 80.324219 -47.636719 81.203125 -47.929688 C 81.9375 -48.078125 83.402344 -48.371094 84.28125 -48.664062 C 85.308594 -48.808594 86.039062 -49.101562 86.039062 -49.25 C 86.039062 -49.542969 85.601562 -50.277344 84.867188 -51.007812 C 84.28125 -51.742188 83.546875 -52.621094 83.253906 -52.914062 C 82.960938 -53.207031 81.351562 -53.941406 79.445312 -54.527344 C 76.367188 -55.40625 75.488281 -55.550781 65.519531 -55.257812 C 55.550781 -54.964844 54.820312 -54.964844 55.113281 -55.699219 C 56.140625 -59.511719 57.605469 -69.476562 57.605469 -73.433594 L 57.605469 -76.660156 L 59.804688 -76.953125 C 69.332031 -78.417969 87.066406 -80.175781 97.035156 -80.765625 C 102.75 -81.203125 103.921875 -81.644531 103.484375 -83.695312 C 103.335938 -84.429688 102.75 -85.453125 102.308594 -86.1875 C 101.871094 -86.917969 101.429688 -87.800781 101.429688 -88.386719 C 101.429688 -89.117188 100.40625 -90.730469 99.820312 -90.730469 C 99.671875 -90.730469 98.058594 -91.023438 96.007812 -91.464844 C 83.839844 -93.664062 55.40625 -92.195312 40.160156 -88.53125 C 26.824219 -85.308594 16.269531 -80.765625 11.871094 -76.367188 C 10.261719 -74.753906 9.234375 -73.140625 8.941406 -72.261719 C 8.5 -69.917969 9.675781 -66.253906 11.140625 -65.078125 C 12.019531 -64.492188 12.460938 -63.761719 12.460938 -63.027344 C 12.460938 -61.5625 14.363281 -59.511719 15.832031 -59.511719 C 17.441406 -59.65625 19.054688 -61.121094 19.203125 -62.589844 C 19.203125 -63.90625 19.640625 -64.199219 24.332031 -66.546875 C 29.023438 -68.890625 41.1875 -73.289062 41.773438 -72.847656 C 41.773438 -72.703125 41.1875 -70.210938 40.160156 -67.132812 C 39.136719 -64.199219 37.816406 -59.363281 37.082031 -56.578125 C 36.058594 -52.035156 35.765625 -51.300781 34.738281 -51.007812 C 22.71875 -47.199219 19.640625 -46.023438 13.191406 -42.800781 C 6.15625 -39.28125 1.757812 -36.496094 0.585938 -34.886719 C 0 -33.710938 1.027344 -31.367188 2.636719 -30.632812 C 3.519531 -30.339844 4.105469 -29.753906 4.105469 -29.460938 C 4.105469 -29.167969 4.542969 -28.4375 5.277344 -28.144531 C 6.304688 -27.410156 6.742188 -27.410156 12.019531 -28.582031 C 18.910156 -29.902344 23.890625 -30.632812 29.023438 -30.78125 Z M 13.191406 -70.941406 C 13.339844 -71.382812 13.632812 -71.53125 13.777344 -71.382812 C 13.925781 -71.382812 13.777344 -70.941406 13.484375 -70.648438 C 13.046875 -70.210938 12.898438 -70.210938 13.191406 -70.941406 Z M 16.417969 -71.824219 C 17.003906 -72.117188 16.710938 -71.53125 15.683594 -70.503906 C 14.804688 -69.625 13.925781 -68.890625 13.632812 -68.890625 C 13.046875 -68.890625 15.242188 -71.089844 16.417969 -71.824219 Z M 19.933594 -71.53125 C 19.789062 -71.53125 18.613281 -70.355469 17.296875 -69.183594 C 15.832031 -67.863281 14.804688 -67.132812 14.804688 -67.425781 C 14.804688 -68.011719 17.148438 -70.210938 18.761719 -71.089844 C 19.496094 -71.53125 20.082031 -71.675781 19.933594 -71.53125 Z M 44.707031 -36.496094 C 44.414062 -33.859375 43.828125 -27.703125 43.679688 -22.71875 C 43.535156 -14.949219 43.386719 -14.21875 43.09375 -17.441406 C 42.652344 -23.011719 43.972656 -40.457031 44.851562 -41.335938 C 45.4375 -41.921875 45.4375 -40.601562 44.707031 -36.496094 Z M 50.421875 -42.066406 C 50.421875 -41.628906 49.835938 -38.695312 49.394531 -35.765625 C 48.808594 -31.660156 48.515625 -27.554688 48.515625 -17.589844 C 48.515625 -10.40625 48.515625 -4.542969 48.515625 -4.542969 C 48.371094 -4.542969 48.222656 -6.449219 48.078125 -8.648438 C 47.34375 -17.882812 48.808594 -41.042969 50.277344 -42.507812 C 50.570312 -42.800781 50.714844 -42.652344 50.421875 -42.066406 Z M 53.941406 -63.027344 C 55.699219 -72.554688 55.699219 -72.117188 55.699219 -70.648438 C 55.699219 -69.917969 55.113281 -66.105469 54.378906 -62.296875 C 53.0625 -55.699219 52.472656 -53.792969 52.472656 -55.40625 C 52.472656 -55.699219 53.207031 -59.070312 53.941406 -63.027344 Z M 52.328125 -73.140625 C 52.179688 -71.96875 51.007812 -67.132812 49.835938 -62.441406 C 48.664062 -57.605469 47.636719 -53.648438 47.636719 -53.5 C 46.90625 -52.914062 47.785156 -56.871094 49.984375 -65.375 C 51.300781 -70.796875 52.328125 -74.3125 52.328125 -73.140625 Z M 49.101562 -68.453125 C 48.222656 -65.226562 47.050781 -60.535156 46.464844 -58.191406 C 45.4375 -53.792969 45 -52.765625 44.558594 -53.355469 C 43.972656 -53.792969 49.394531 -73.875 50.277344 -74.609375 C 50.863281 -75.339844 50.714844 -74.609375 49.101562 -68.453125 Z M 48.371094 -74.019531 C 48.957031 -74.902344 48.957031 -75.046875 46.613281 -66.253906 C 45.585938 -62.734375 44.414062 -58.335938 43.972656 -56.433594 C 43.535156 -54.527344 42.945312 -53.0625 42.800781 -53.0625 C 42.066406 -53.0625 47.34375 -72.410156 48.371094 -74.019531 Z M 41.335938 -36.789062 C 41.921875 -40.160156 42.214844 -41.1875 42.507812 -40.75 C 42.652344 -40.601562 42.507812 -38.402344 42.214844 -35.910156 C 41.921875 -33.273438 41.480469 -31.074219 41.335938 -31.074219 C 40.75 -31.074219 40.75 -32.980469 41.335938 -36.789062 Z M 41.480469 -16.269531 C 41.628906 -12.753906 42.066406 -8.5 42.359375 -6.742188 C 43.09375 -2.050781 42.507812 -2.492188 41.628906 -7.328125 C 40.601562 -12.605469 40.160156 -21.988281 40.75 -22.425781 C 41.042969 -22.574219 41.335938 -20.375 41.480469 -16.269531 Z M 39.136719 -34.300781 C 39.28125 -35.03125 39.574219 -36.496094 39.722656 -37.816406 C 39.867188 -38.988281 40.160156 -40.160156 40.457031 -40.308594 C 40.75 -40.457031 40.894531 -40.308594 40.75 -39.722656 C 40.601562 -39.28125 40.308594 -37.523438 40.160156 -35.910156 C 40.015625 -34.300781 39.574219 -32.980469 39.429688 -32.980469 C 39.136719 -32.980469 38.988281 -33.566406 39.136719 -34.300781 Z M 38.695312 -22.71875 C 38.84375 -22.574219 38.988281 -20.519531 39.136719 -18.027344 C 39.429688 -15.683594 39.574219 -12.460938 39.722656 -10.992188 C 40.160156 -7.183594 39.722656 -7.769531 38.988281 -11.871094 C 38.550781 -15.097656 38.257812 -23.160156 38.695312 -22.71875 Z M 33.417969 -38.550781 L 33.273438 -37.378906 C 33.125 -35.910156 33.125 -35.910156 29.753906 -36.203125 L 27.117188 -36.496094 Z M 33.417969 -38.550781 "/></g></g></g><g fill="#000000" fill-opacity="1"><g transform="translate(663.707277, 453.624015)"><g><path d="M 6.742188 -47.34375 C 9.382812 -45.878906 10.113281 -45.730469 12.460938 -45.878906 C 13.925781 -45.878906 15.097656 -46.171875 15.242188 -46.464844 C 15.390625 -46.613281 14.363281 -47.34375 12.898438 -47.785156 C 11.433594 -48.371094 10.40625 -49.101562 10.40625 -49.542969 C 10.113281 -50.863281 18.175781 -58.484375 22.867188 -61.707031 C 29.753906 -66.253906 48.371094 -75.339844 49.25 -74.460938 C 49.394531 -74.3125 49.101562 -72.847656 48.515625 -71.234375 C 46.757812 -65.375 43.679688 -51.742188 43.09375 -46.613281 C 42.800781 -43.972656 42.652344 -43.828125 39.867188 -41.773438 C 36.496094 -39.28125 33.125 -35.765625 33.125 -34.59375 C 33.125 -33.417969 35.179688 -31.515625 36.351562 -31.808594 C 36.789062 -31.953125 37.230469 -31.953125 37.230469 -31.660156 C 37.230469 -31.367188 37.523438 -31.367188 37.671875 -31.515625 C 37.964844 -31.660156 38.257812 -31.367188 38.402344 -30.78125 C 38.550781 -29.902344 38.84375 -29.753906 40.308594 -29.902344 C 41.921875 -30.195312 41.921875 -30.195312 42.214844 -27.996094 C 43.828125 -14.21875 46.613281 -8.207031 54.085938 -2.636719 C 55.113281 -2.050781 57.3125 -0.878906 59.070312 -0.292969 C 60.828125 0.292969 63.027344 1.171875 64.054688 1.464844 C 66.253906 2.34375 68.890625 2.492188 71.53125 1.757812 C 73.726562 1.171875 79.152344 -4.25 81.351562 -8.0625 C 86.480469 -17.003906 87.652344 -19.203125 87.359375 -19.640625 C 87.214844 -19.933594 86.917969 -19.933594 86.625 -19.789062 C 86.480469 -19.789062 86.1875 -19.789062 85.894531 -20.082031 C 85.308594 -21.253906 83.695312 -20.082031 76.953125 -13.484375 C 69.625 -6.304688 66.253906 -3.8125 64.492188 -4.398438 C 62.441406 -5.128906 60.390625 -10.699219 59.65625 -17.441406 C 59.070312 -21.988281 59.363281 -33.859375 60.097656 -39.429688 L 60.390625 -41.773438 L 65.667969 -44.121094 C 68.597656 -45.4375 73.140625 -47.34375 75.78125 -48.222656 C 78.273438 -49.101562 81.496094 -50.421875 82.960938 -51.007812 C 84.28125 -51.742188 86.039062 -52.328125 86.625 -52.328125 C 88.386719 -52.621094 88.238281 -53.5 86.1875 -54.820312 C 84.28125 -55.992188 83.695312 -56.140625 79.003906 -56.140625 C 74.3125 -56.140625 73.433594 -55.992188 68.304688 -54.378906 C 65.226562 -53.5 62.734375 -52.765625 62.589844 -52.765625 C 62.589844 -52.914062 63.027344 -54.964844 63.613281 -57.457031 C 66.398438 -68.304688 67.132812 -77.832031 65.519531 -79.003906 C 64.492188 -79.882812 64.347656 -79.738281 69.625 -81.058594 C 77.832031 -83.109375 88.238281 -84.722656 96.007812 -85.160156 C 101.429688 -85.453125 107 -84.867188 110.957031 -83.546875 C 112.277344 -83.109375 114.476562 -82.523438 115.796875 -82.375 C 117.992188 -82.082031 118.289062 -82.082031 118.433594 -82.960938 C 118.726562 -84.136719 117.40625 -86.480469 115.648438 -87.507812 C 114.917969 -87.945312 113.449219 -89.117188 112.425781 -90.144531 C 109.933594 -92.34375 106.707031 -93.808594 101.722656 -95.128906 C 98.644531 -96.007812 96.886719 -96.152344 90.585938 -96.152344 C 73.140625 -96.300781 49.394531 -90.144531 29.609375 -80.617188 C 18.46875 -75.339844 6.007812 -65.226562 2.929688 -58.921875 C 0 -53.207031 0.878906 -50.714844 6.742188 -47.34375 Z M 48.222656 -31.367188 C 47.785156 -27.847656 47.492188 -27.703125 47.492188 -31.222656 C 47.492188 -32.832031 47.785156 -34.003906 47.929688 -34.003906 C 48.222656 -34.003906 48.371094 -33.125 48.222656 -31.367188 Z M 50.570312 -20.667969 C 50.277344 -20.226562 49.835938 -23.890625 49.542969 -29.023438 C 49.394531 -32.832031 49.394531 -35.03125 49.6875 -35.179688 C 50.128906 -35.324219 50.277344 -32.980469 50.421875 -28.144531 C 50.570312 -24.039062 50.570312 -20.667969 50.570312 -20.667969 Z M 57.457031 -34.738281 C 57.3125 -31.660156 57.164062 -29.023438 57.019531 -29.023438 C 56.726562 -28.582031 56.871094 -36.644531 57.3125 -38.550781 C 57.605469 -39.722656 57.605469 -38.257812 57.457031 -34.738281 Z M 64.054688 -70.648438 C 63.90625 -69.039062 63.027344 -64.640625 62.148438 -60.683594 C 61.269531 -56.726562 60.242188 -53.0625 60.097656 -52.472656 C 59.363281 -50.714844 59.65625 -52.765625 60.683594 -56.578125 C 61.121094 -58.628906 62.148438 -63.320312 62.882812 -66.984375 C 63.761719 -71.089844 64.199219 -72.410156 64.054688 -70.648438 Z M 60.976562 -76.804688 C 60.976562 -76.511719 59.804688 -70.941406 58.335938 -64.785156 C 56.726562 -58.484375 55.40625 -52.621094 55.257812 -51.59375 C 54.964844 -50.714844 54.671875 -49.984375 54.527344 -49.984375 C 54.085938 -49.984375 54.964844 -54.085938 58.191406 -66.984375 C 59.65625 -72.847656 60.828125 -77.246094 60.976562 -76.804688 Z M 58.921875 -77.6875 C 59.070312 -77.539062 58.484375 -74.753906 57.605469 -71.53125 C 55.84375 -65.375 53.648438 -55.84375 52.621094 -51.15625 C 52.328125 -49.6875 51.886719 -48.515625 51.742188 -48.515625 C 51.449219 -48.515625 51.300781 -48.664062 51.300781 -48.808594 C 51.300781 -50.277344 55.113281 -66.253906 56.871094 -72.554688 C 58.191406 -76.804688 58.628906 -77.980469 58.921875 -77.6875 Z M 54.820312 -71.234375 C 56.578125 -77.246094 56.578125 -75.488281 54.820312 -68.890625 C 53.355469 -64.054688 49.835938 -48.808594 49.835938 -47.929688 C 49.835938 -47.785156 49.6875 -47.636719 49.394531 -47.636719 C 48.664062 -47.636719 51.886719 -61.855469 54.820312 -71.234375 Z M 7.183594 -53.792969 C 7.621094 -54.378906 7.914062 -54.527344 7.914062 -54.378906 C 7.914062 -53.5 6.597656 -51.449219 6.597656 -52.179688 C 6.597656 -52.621094 6.890625 -53.355469 7.183594 -53.792969 Z M 5.570312 -53.648438 C 5.863281 -54.085938 6.007812 -54.085938 6.007812 -53.941406 C 6.007812 -52.914062 5.277344 -51.449219 5.128906 -52.179688 C 5.128906 -52.621094 5.421875 -53.207031 5.570312 -53.648438 Z M 5.570312 -53.648438 "/></g></g></g></svg>