<svg xmlns="http://www.w3.org/2000/svg" xmlns:xlink="http://www.w3.org/1999/xlink" width="1080" zoomAndPan="magnify" viewBox="0 0 810 809.999993" height="1080" preserveAspectRatio="xMidYMid meet" version="1.0"><defs><g/></defs><g fill="#000000" fill-opacity="1"><g transform="translate(132.503258, 453.624251)"><g><path d="M 14.804688 -34.59375 C 15.539062 -34.59375 15.683594 -34.300781 15.390625 -33.273438 C 13.632812 -24.625 13.046875 -20.8125 13.046875 -15.242188 C 13.046875 -9.675781 13.191406 -8.941406 14.21875 -6.597656 C 15.539062 -3.664062 17.882812 -1.464844 19.640625 -1.464844 C 20.226562 -1.464844 20.667969 -1.320312 20.667969 -1.027344 C 20.667969 -0.292969 22.425781 -0.441406 23.011719 -1.171875 C 23.746094 -2.050781 24.183594 -3.664062 25.652344 -10.113281 C 26.675781 -15.242188 32.101562 -35.472656 32.394531 -35.617188 C 32.539062 -35.765625 35.179688 -36.644531 38.257812 -37.816406 C 44.707031 -39.867188 44.265625 -40.015625 47.492188 -37.082031 C 49.542969 -35.179688 54.671875 -29.167969 57.898438 -24.769531 C 62.296875 -18.910156 64.054688 -15.683594 64.054688 -13.632812 C 64.054688 -11.433594 65.519531 -7.183594 66.984375 -5.714844 C 67.570312 -4.984375 68.304688 -4.691406 69.039062 -4.835938 C 69.625 -4.984375 70.0625 -4.835938 70.0625 -4.691406 C 70.0625 -4.398438 70.210938 -4.25 70.503906 -4.398438 C 70.648438 -4.542969 71.089844 -4.25 71.234375 -3.519531 C 71.824219 -1.320312 75.78125 -2.785156 77.390625 -5.714844 C 77.980469 -6.890625 81.644531 -27.410156 83.546875 -40.601562 C 84.136719 -43.828125 84.574219 -49.394531 84.867188 -53.0625 C 85.160156 -59.363281 85.160156 -59.804688 86.1875 -60.390625 C 88.09375 -61.707031 96.152344 -64.785156 99.085938 -65.375 C 103.042969 -66.105469 105.683594 -66.839844 105.828125 -67.425781 C 105.976562 -68.15625 103.191406 -71.53125 101.285156 -72.996094 C 99.964844 -73.875 99.230469 -74.167969 96.59375 -74.167969 C 94.980469 -74.167969 92.195312 -73.726562 90.292969 -73.433594 C 83.988281 -71.96875 84.867188 -71.382812 83.988281 -77.6875 C 81.9375 -91.316406 78.710938 -97.914062 72.261719 -102.015625 C 71.089844 -102.605469 69.625 -103.921875 68.746094 -104.949219 C 65.226562 -109.054688 60.242188 -109.640625 55.113281 -106.855469 C 51.59375 -105.09375 43.828125 -97.179688 40.160156 -91.902344 C 34.886719 -84.136719 28.730469 -72.261719 23.890625 -60.242188 C 22.71875 -57.3125 21.988281 -55.84375 21.546875 -55.992188 C 21.253906 -55.992188 18.910156 -56.285156 16.417969 -56.285156 C 12.898438 -56.433594 11.285156 -56.285156 9.382812 -55.699219 C 2.636719 -53.648438 0 -49.25 2.492188 -44.265625 C 4.542969 -40.308594 11.871094 -34.59375 14.804688 -34.59375 Z M 20.082031 -7.621094 C 19.933594 -7.476562 19.789062 -7.769531 19.789062 -8.207031 C 19.789062 -8.792969 19.933594 -8.941406 20.082031 -8.5 C 20.226562 -8.207031 20.226562 -7.769531 20.082031 -7.621094 Z M 24.332031 -29.023438 C 23.597656 -26.238281 22.574219 -21.546875 21.839844 -18.46875 C 21.253906 -15.390625 20.667969 -12.3125 20.519531 -11.433594 C 20.375 -10.261719 20.375 -10.261719 20.375 -11.726562 C 20.226562 -13.777344 21.253906 -19.347656 22.867188 -25.796875 C 24.625 -32.980469 24.917969 -34.003906 25.359375 -34.003906 C 25.503906 -34.003906 25.066406 -31.808594 24.332031 -29.023438 Z M 29.753906 -47.199219 C 29.609375 -46.613281 29.316406 -46.171875 29.023438 -46.171875 C 28.582031 -46.171875 28.875 -47.929688 29.316406 -48.515625 C 29.753906 -48.957031 29.902344 -48.222656 29.753906 -47.199219 Z M 35.179688 -59.070312 C 34.738281 -58.628906 34.738281 -58.628906 34.886719 -59.363281 C 35.179688 -59.804688 35.324219 -60.097656 35.472656 -59.949219 C 35.617188 -59.804688 35.472656 -59.363281 35.179688 -59.070312 Z M 65.8125 -25.945312 C 65.375 -22.867188 64.785156 -20.226562 64.785156 -20.226562 C 64.785156 -20.226562 63.613281 -21.546875 62.296875 -23.304688 C 59.070312 -27.703125 55.113281 -32.246094 50.714844 -36.9375 L 46.757812 -40.894531 L 57.3125 -46.171875 C 63.175781 -49.101562 68.15625 -51.59375 68.453125 -51.742188 C 69.039062 -52.035156 67.570312 -35.765625 65.8125 -25.945312 Z M 71.089844 -5.714844 C 71.089844 -6.007812 71.382812 -7.769531 71.96875 -9.675781 C 72.554688 -11.726562 72.847656 -12.460938 72.847656 -11.433594 C 72.847656 -10.113281 71.089844 -4.398438 71.089844 -5.714844 Z M 73.140625 -14.363281 C 72.996094 -14.070312 72.996094 -14.363281 72.996094 -14.949219 C 72.996094 -15.683594 72.996094 -15.832031 73.140625 -15.539062 C 73.289062 -15.242188 73.289062 -14.65625 73.140625 -14.363281 Z M 73.582031 -16.710938 C 73.582031 -16.417969 73.433594 -16.710938 73.433594 -17.296875 C 73.433594 -17.882812 73.582031 -18.175781 73.582031 -17.882812 C 73.726562 -17.589844 73.726562 -17.003906 73.582031 -16.710938 Z M 74.019531 -19.789062 C 73.875 -19.640625 73.875 -19.933594 73.875 -20.375 C 73.875 -20.960938 74.019531 -20.960938 74.167969 -20.667969 C 74.3125 -20.375 74.3125 -19.933594 74.019531 -19.789062 Z M 74.609375 -22.574219 C 74.460938 -22.425781 74.3125 -22.71875 74.3125 -23.160156 C 74.3125 -23.746094 74.460938 -23.746094 74.609375 -23.453125 C 74.753906 -23.160156 74.753906 -22.71875 74.609375 -22.574219 Z M 80.324219 -34.738281 C 80.324219 -35.324219 80.46875 -35.472656 80.617188 -35.03125 C 80.765625 -34.738281 80.765625 -34.300781 80.617188 -34.152344 C 80.46875 -34.003906 80.324219 -34.300781 80.324219 -34.738281 Z M 80.175781 -32.539062 C 80.324219 -32.101562 80.324219 -31.515625 80.175781 -31.222656 C 80.03125 -30.78125 79.882812 -31.222656 79.882812 -31.953125 C 80.03125 -32.6875 80.03125 -32.980469 80.175781 -32.539062 Z M 78.710938 -25.652344 C 79.152344 -28.144531 79.589844 -30.195312 79.738281 -30.195312 C 79.882812 -30.046875 79.152344 -25.210938 78.273438 -19.347656 C 77.246094 -13.484375 76.367188 -8.5 76.074219 -8.355469 C 75.78125 -7.914062 76.660156 -13.339844 78.710938 -25.652344 Z M 75.925781 -46.613281 C 75.488281 -41.480469 74.609375 -34.300781 72.554688 -21.691406 C 71.675781 -16.125 70.796875 -10.992188 70.503906 -10.261719 L 70.210938 -9.085938 L 70.0625 -10.554688 C 70.0625 -11.285156 70.796875 -16.269531 71.675781 -21.691406 C 72.703125 -27.117188 74.019531 -35.765625 74.753906 -41.042969 C 75.632812 -47.199219 76.074219 -49.25 75.925781 -46.613281 Z M 73.140625 -40.894531 C 73.289062 -40.457031 73.289062 -39.867188 73.140625 -39.574219 C 72.996094 -39.28125 72.996094 -39.574219 72.996094 -40.308594 C 72.996094 -41.1875 73.140625 -41.335938 73.140625 -40.894531 Z M 72.410156 -35.765625 L 72.847656 -38.550781 L 72.703125 -35.472656 C 72.554688 -33.859375 71.675781 -28.144531 70.941406 -22.71875 C 70.0625 -17.441406 69.183594 -13.046875 69.039062 -13.046875 C 68.890625 -13.046875 68.746094 -13.632812 68.890625 -14.363281 C 69.039062 -15.097656 69.769531 -19.496094 70.503906 -24.332031 C 71.234375 -29.023438 72.117188 -34.152344 72.410156 -35.765625 Z M 60.097656 -89.851562 C 63.613281 -92.78125 66.253906 -94.394531 66.839844 -93.808594 C 68.304688 -92.488281 70.210938 -70.210938 69.332031 -67.132812 C 68.890625 -65.960938 63.90625 -63.175781 41.335938 -51.886719 C 37.816406 -49.984375 37.082031 -49.6875 37.082031 -50.128906 C 37.082031 -50.128906 38.109375 -53.0625 39.574219 -56.578125 C 45.730469 -71.96875 52.914062 -83.695312 60.097656 -89.851562 Z M 50.128906 -89.558594 L 51.59375 -91.171875 L 50.277344 -89.410156 C 44.121094 -80.617188 38.695312 -70.503906 34.003906 -58.777344 C 31.074219 -51.449219 30.925781 -51.15625 30.925781 -52.472656 C 30.925781 -53.792969 35.910156 -65.519531 39.429688 -72.554688 C 42.652344 -79.003906 47.34375 -86.480469 50.128906 -89.558594 Z M 45.144531 -86.1875 C 45.292969 -86.1875 45 -85.601562 44.558594 -85.015625 C 41.335938 -80.324219 34.445312 -66.253906 31.074219 -57.457031 C 30.195312 -55.113281 29.316406 -53.207031 29.023438 -53.207031 C 28.4375 -53.207031 28.4375 -52.914062 30.78125 -58.777344 C 34.886719 -69.039062 43.972656 -86.1875 45.144531 -86.1875 Z M 32.539062 -66.839844 C 32.832031 -67.277344 32.980469 -67.570312 33.125 -67.425781 C 33.273438 -67.277344 33.125 -66.839844 32.832031 -66.546875 C 32.394531 -66.105469 32.394531 -66.105469 32.539062 -66.839844 Z M 31.660156 -64.785156 C 31.953125 -65.519531 32.246094 -65.8125 32.246094 -65.519531 C 32.246094 -65.226562 31.953125 -64.492188 31.660156 -63.90625 C 31.222656 -63.175781 30.925781 -62.882812 30.925781 -63.175781 C 30.925781 -63.46875 31.222656 -64.199219 31.660156 -64.785156 Z M 30.195312 -61.5625 C 30.632812 -62.148438 30.925781 -62.441406 30.925781 -62.296875 C 30.925781 -62 30.632812 -61.269531 30.195312 -60.683594 C 29.902344 -59.949219 29.609375 -59.65625 29.609375 -59.949219 C 29.609375 -60.242188 29.902344 -60.976562 30.195312 -61.5625 Z M 28.144531 -56.140625 C 28.730469 -57.164062 29.023438 -57.605469 28.730469 -56.871094 C 28.4375 -55.550781 27.261719 -53.207031 27.261719 -53.941406 C 27.261719 -54.085938 27.703125 -55.113281 28.144531 -56.140625 Z M 26.96875 -46.464844 C 26.675781 -45.585938 26.238281 -44.851562 26.089844 -44.851562 C 25.652344 -44.851562 26.238281 -47.199219 26.96875 -48.515625 C 27.847656 -50.128906 27.847656 -48.515625 26.96875 -46.464844 Z M 24.625 -46.757812 C 25.796875 -49.984375 25.796875 -50.128906 26.089844 -49.835938 C 26.238281 -49.6875 25.796875 -48.515625 25.359375 -47.050781 C 23.890625 -43.386719 23.453125 -43.09375 24.625 -46.757812 Z M 22.132812 -32.394531 C 22.425781 -33.273438 22.71875 -34.003906 23.011719 -34.003906 C 23.160156 -34.003906 22.867188 -32.101562 22.28125 -29.753906 C 21.691406 -27.410156 20.8125 -23.304688 20.226562 -20.667969 C 19.640625 -18.027344 19.054688 -13.484375 18.910156 -10.40625 L 18.46875 -4.984375 L 18.46875 -9.96875 C 18.320312 -15.683594 19.347656 -21.546875 22.132812 -32.394531 Z M 21.105469 -33.566406 C 21.253906 -33.566406 21.105469 -32.101562 20.667969 -30.488281 C 20.226562 -28.730469 19.347656 -25.066406 18.910156 -22.425781 C 18.320312 -19.789062 17.734375 -15.683594 17.441406 -13.632812 L 17.003906 -9.675781 L 17.148438 -13.777344 C 17.296875 -17.296875 18.320312 -22.71875 20.519531 -32.539062 C 20.667969 -33.125 20.960938 -33.566406 21.105469 -33.566406 Z M 12.753906 -49.542969 C 15.242188 -50.714844 20.226562 -51.449219 20.226562 -50.570312 C 20.226562 -50.277344 19.640625 -48.371094 18.910156 -46.171875 C 17.882812 -42.945312 17.441406 -42.214844 16.417969 -41.921875 C 14.804688 -41.480469 10.40625 -41.480469 9.234375 -42.066406 C 6.007812 -43.238281 8.0625 -47.492188 12.753906 -49.542969 Z M 5.277344 -49.394531 C 5.570312 -49.984375 6.007812 -50.421875 6.007812 -50.421875 C 6.15625 -50.421875 6.007812 -49.984375 5.863281 -49.394531 C 5.570312 -48.957031 5.128906 -48.515625 5.128906 -48.515625 C 4.984375 -48.515625 5.128906 -48.957031 5.277344 -49.394531 Z M 5.277344 -49.394531 "/></g></g></g><g fill="#000000" fill-opacity="1"><g transform="translate(239.943965, 453.624251)"><g><path d="M 9.085938 -44.851562 L 12.898438 -42.800781 L 18.46875 -43.09375 C 24.183594 -43.238281 27.996094 -44.121094 27.117188 -44.851562 C 26.53125 -45.4375 22.574219 -46.464844 16.710938 -47.34375 C 14.070312 -47.785156 11.578125 -48.371094 11.285156 -48.664062 C 10.40625 -49.394531 10.554688 -51.886719 11.871094 -54.378906 C 18.613281 -67.863281 47.34375 -84.429688 70.941406 -88.386719 C 80.175781 -89.851562 91.902344 -88.53125 94.835938 -85.601562 C 97.765625 -82.667969 98.351562 -73.875 96.300781 -65.226562 C 92.34375 -49.101562 80.765625 -29.902344 66.546875 -15.832031 C 63.90625 -13.339844 61.707031 -11.285156 61.414062 -11.285156 C 60.828125 -11.285156 58.628906 -15.242188 57.75 -18.320312 C 57.164062 -19.933594 56.578125 -23.160156 56.285156 -25.503906 C 55.113281 -34.59375 58.042969 -52.914062 63.320312 -69.917969 C 64.933594 -74.902344 65.078125 -76.953125 64.054688 -76.953125 C 63.613281 -76.953125 63.320312 -77.246094 63.320312 -77.6875 C 63.320312 -77.980469 63.027344 -78.273438 62.441406 -78.273438 C 61.269531 -78.273438 59.65625 -79.296875 58.335938 -80.46875 C 55.699219 -83.109375 52.179688 -80.765625 49.101562 -74.167969 C 45.878906 -67.425781 43.679688 -60.535156 41.335938 -49.835938 C 40.015625 -43.535156 39.867188 -41.773438 39.867188 -35.910156 C 39.867188 -30.632812 40.160156 -28.4375 40.894531 -25.503906 C 43.09375 -17.441406 48.078125 -11.140625 53.648438 -9.527344 C 55.257812 -9.085938 56.578125 -8.355469 56.726562 -8.0625 C 57.019531 -7.328125 52.472656 -4.984375 48.078125 -3.519531 C 44.707031 -2.34375 43.972656 -2.34375 41.628906 -2.636719 C 39.136719 -3.078125 38.84375 -3.226562 37.964844 -4.984375 C 37.230469 -6.304688 36.644531 -6.742188 35.910156 -6.742188 C 35.324219 -6.742188 34.886719 -7.035156 34.886719 -7.328125 C 34.886719 -8.0625 34.445312 -8.207031 33.417969 -7.769531 C 32.832031 -7.476562 32.539062 -6.890625 32.539062 -6.007812 C 32.539062 -4.835938 33.125 -3.957031 35.472656 -1.757812 C 38.695312 1.464844 46.171875 5.714844 49.542969 6.449219 C 55.699219 7.769531 65.519531 4.105469 74.460938 -2.785156 C 81.9375 -8.5 93.222656 -20.8125 98.9375 -29.460938 C 102.015625 -34.152344 107.441406 -45.144531 108.761719 -49.542969 C 112.570312 -61.855469 112.425781 -73.140625 108.027344 -81.058594 C 105.976562 -84.574219 97.621094 -92.929688 92.34375 -96.59375 C 87.945312 -99.527344 81.496094 -101.136719 73.289062 -101.136719 C 67.277344 -101.136719 62.734375 -100.550781 55.257812 -98.5 C 34.886719 -93.222656 12.019531 -78.417969 3.519531 -65.226562 C 1.757812 -62.441406 0 -57.605469 0 -55.699219 C 0 -51.59375 3.078125 -47.929688 9.085938 -44.851562 Z M 58.921875 -61.269531 C 58.777344 -61.121094 58.777344 -61.269531 58.777344 -61.855469 C 58.777344 -62.296875 58.921875 -62.441406 59.070312 -62.148438 C 59.21875 -61.707031 59.070312 -61.414062 58.921875 -61.269531 Z M 45.730469 -37.378906 L 45.292969 -33.417969 L 45.292969 -36.644531 C 45.144531 -40.160156 46.464844 -48.515625 48.078125 -54.820312 C 49.25 -59.65625 51.300781 -65.8125 51.742188 -66.398438 C 52.035156 -66.691406 52.035156 -66.253906 51.742188 -65.519531 C 50.714844 -62.882812 48.078125 -51.886719 47.050781 -46.613281 C 46.613281 -43.679688 45.878906 -39.574219 45.730469 -37.378906 Z M 47.34375 -31.953125 C 47.199219 -30.488281 47.199219 -32.394531 47.34375 -36.351562 C 47.492188 -45.292969 48.957031 -53.648438 52.472656 -64.640625 C 53.648438 -68.304688 56.578125 -75.046875 57.019531 -75.046875 C 57.019531 -75.046875 56.433594 -72.996094 55.40625 -70.355469 C 51.886719 -61.269531 49.101562 -49.101562 47.929688 -39.429688 C 47.785156 -36.9375 47.492188 -33.566406 47.34375 -31.953125 Z M 49.6875 -36.058594 C 49.542969 -35.617188 49.542969 -36.058594 49.542969 -37.082031 C 49.542969 -38.109375 49.542969 -38.550781 49.6875 -37.964844 C 49.835938 -37.378906 49.835938 -36.496094 49.6875 -36.058594 Z M 50.277344 -41.773438 L 49.835938 -38.988281 L 50.128906 -42.214844 C 50.570312 -49.25 54.378906 -64.492188 57.3125 -71.675781 C 59.21875 -76.21875 59.949219 -76.511719 58.191406 -71.96875 C 56.285156 -66.839844 52.914062 -55.257812 51.742188 -49.394531 C 51.300781 -46.757812 50.570312 -43.238281 50.277344 -41.773438 Z M 54.234375 -36.644531 L 53.648438 -31.074219 L 53.792969 -35.472656 C 54.085938 -41.480469 57.3125 -59.804688 58.042969 -59.070312 C 58.191406 -58.921875 57.898438 -57.164062 57.3125 -54.964844 C 56.871094 -52.765625 56.140625 -49.101562 55.699219 -46.613281 C 55.257812 -44.265625 54.671875 -39.722656 54.234375 -36.644531 Z M 102.164062 -50.570312 C 101.722656 -48.222656 97.179688 -39.28125 93.664062 -34.003906 C 91.902344 -31.222656 90.144531 -28.875 89.851562 -28.582031 C 89.410156 -28.4375 89.703125 -29.023438 90.4375 -29.902344 C 91.023438 -30.78125 92.636719 -33.273438 93.957031 -35.472656 C 96.007812 -38.84375 97.472656 -41.773438 101.722656 -50.421875 C 102.457031 -52.035156 102.457031 -52.035156 102.164062 -50.570312 Z M 104.507812 -44.851562 C 105.242188 -47.636719 107.292969 -53.207031 107.441406 -53.0625 C 107.585938 -52.914062 107.148438 -51.15625 106.414062 -49.25 C 105.386719 -46.023438 103.777344 -42.507812 104.507812 -44.851562 Z M 103.191406 -61.121094 C 102.457031 -55.992188 98.792969 -46.90625 94.394531 -39.429688 C 92.929688 -37.082031 91.609375 -35.03125 91.609375 -35.03125 C 91.464844 -35.03125 93.074219 -38.402344 95.128906 -42.507812 C 97.179688 -46.613281 99.964844 -52.914062 101.136719 -56.578125 C 102.605469 -60.535156 103.335938 -62.296875 103.191406 -61.121094 Z M 100.84375 -59.949219 C 100.40625 -57.605469 98.351562 -51.59375 96.742188 -47.929688 C 96.007812 -46.464844 95.421875 -45.292969 95.273438 -45.292969 C 94.835938 -45.292969 94.980469 -45.4375 96.007812 -47.929688 C 96.59375 -49.101562 97.914062 -52.765625 99.085938 -55.992188 C 100.113281 -59.21875 100.992188 -60.976562 100.84375 -59.949219 Z M 8.941406 -59.949219 C 9.234375 -60.097656 9.085938 -59.511719 8.648438 -58.628906 C 8.0625 -57.898438 7.476562 -56.285156 7.183594 -55.257812 C 6.742188 -53.941406 6.597656 -53.792969 6.597656 -54.527344 C 6.449219 -55.550781 8.207031 -59.511719 8.941406 -59.949219 Z M 6.742188 -59.21875 C 6.742188 -59.21875 6.597656 -58.191406 6.15625 -57.019531 C 5.714844 -55.84375 5.277344 -54.378906 5.128906 -53.941406 C 4.691406 -53.0625 4.691406 -53.0625 4.691406 -54.085938 C 4.691406 -55.257812 6.304688 -59.21875 6.742188 -59.21875 Z M 6.742188 -59.21875 "/></g></g></g><g fill="#000000" fill-opacity="1"><g transform="translate(353.980627, 453.624251)"><g><path d="M 82.082031 -102.75 C 81.351562 -103.042969 80.46875 -103.628906 80.324219 -103.777344 C 80.175781 -104.070312 79.738281 -104.363281 79.296875 -104.363281 C 78.125 -104.363281 77.832031 -102.457031 78.273438 -99.378906 C 79.003906 -94.980469 78.710938 -84.136719 77.832031 -76.953125 C 74.609375 -54.671875 66.984375 -28.582031 59.949219 -16.125 C 57.898438 -12.605469 56.140625 -10.261719 55.699219 -10.699219 C 55.113281 -11.285156 53.207031 -19.933594 52.472656 -25.359375 C 51.449219 -33.125 50.421875 -43.386719 50.128906 -49.542969 C 49.6875 -58.628906 48.664062 -63.320312 47.199219 -63.320312 C 46.90625 -63.320312 46.613281 -63.613281 46.464844 -63.90625 C 46.464844 -64.199219 45.730469 -64.347656 45.144531 -64.492188 C 44.558594 -64.492188 43.828125 -64.640625 43.386719 -64.933594 C 43.09375 -65.078125 42.652344 -65.078125 42.507812 -64.933594 C 42.359375 -64.785156 41.921875 -64.933594 41.628906 -65.226562 C 41.1875 -65.667969 41.042969 -65.519531 40.894531 -64.933594 C 40.894531 -64.347656 40.75 -64.640625 40.601562 -65.375 C 40.160156 -67.277344 38.988281 -67.863281 37.671875 -66.984375 C 36.203125 -66.105469 36.058594 -64.933594 35.472656 -56.578125 C 35.03125 -51.449219 34.738281 -50.128906 32.246094 -42.652344 C 27.847656 -29.316406 23.746094 -20.082031 20.082031 -15.683594 C 18.613281 -13.777344 18.613281 -13.777344 18.175781 -14.949219 C 16.710938 -19.054688 16.125 -34.003906 17.148438 -43.09375 C 17.734375 -47.636719 20.375 -62.441406 21.691406 -68.597656 C 22.574219 -72.847656 22.574219 -74.460938 21.691406 -74.460938 C 21.253906 -74.460938 20.960938 -74.753906 20.960938 -75.046875 C 20.960938 -75.339844 20.519531 -75.488281 20.082031 -75.339844 C 19.496094 -75.195312 19.054688 -75.195312 19.054688 -75.488281 C 19.054688 -75.632812 18.761719 -75.925781 18.46875 -75.925781 C 18.027344 -75.925781 17.589844 -76.367188 17.296875 -76.804688 C 16.5625 -78.125 14.804688 -77.980469 13.046875 -76.511719 C 10.261719 -74.167969 5.421875 -61.855469 3.078125 -51.449219 C 0 -36.789062 0.585938 -25.359375 4.984375 -16.417969 C 7.183594 -11.871094 11.433594 -8.355469 14.804688 -8.355469 C 15.539062 -8.355469 16.5625 -8.0625 17.296875 -7.621094 C 17.882812 -7.328125 19.203125 -7.035156 20.226562 -7.035156 C 24.476562 -6.890625 26.96875 -10.554688 31.953125 -23.304688 C 33.417969 -26.96875 34.738281 -30.488281 34.886719 -30.925781 C 35.179688 -31.660156 35.324219 -31.367188 35.617188 -29.609375 C 37.230469 -16.710938 38.84375 -11.285156 42.066406 -7.183594 C 44.707031 -4.105469 48.515625 -1.90625 52.035156 -1.320312 C 53.5 -1.171875 55.550781 -0.734375 56.578125 -0.292969 C 62 1.90625 67.570312 -1.320312 72.117188 -9.085938 C 76.511719 -16.710938 78.710938 -22.425781 82.816406 -37.964844 C 89.996094 -63.90625 91.757812 -83.253906 88.238281 -95.421875 C 87.507812 -98.207031 84.574219 -101.722656 82.082031 -102.75 Z M 17.589844 -56.433594 C 17.441406 -56.285156 17.296875 -56.578125 17.296875 -57.019531 C 17.296875 -57.605469 17.441406 -57.75 17.589844 -57.3125 C 17.734375 -57.019531 17.734375 -56.578125 17.589844 -56.433594 Z M 18.175781 -61.269531 C 18.175781 -61.855469 18.320312 -61.855469 18.46875 -61.5625 C 18.613281 -61.269531 18.613281 -60.828125 18.46875 -60.683594 C 18.320312 -60.535156 18.175781 -60.828125 18.175781 -61.269531 Z M 18.027344 -59.65625 C 18.175781 -59.363281 18.175781 -58.921875 18.027344 -58.777344 C 17.882812 -58.628906 17.734375 -58.921875 17.734375 -59.363281 C 17.734375 -59.949219 17.882812 -60.097656 18.027344 -59.65625 Z M 10.261719 -59.363281 C 10.261719 -59.949219 10.40625 -60.097656 10.554688 -59.65625 C 10.699219 -59.363281 10.699219 -58.921875 10.554688 -58.777344 C 10.40625 -58.628906 10.261719 -58.921875 10.261719 -59.363281 Z M 9.382812 -56.140625 C 9.382812 -56.726562 9.527344 -56.726562 9.675781 -56.433594 C 9.820312 -56.140625 9.820312 -55.699219 9.675781 -55.550781 C 9.527344 -55.40625 9.382812 -55.699219 9.382812 -56.140625 Z M 9.234375 -54.527344 C 9.234375 -54.234375 9.234375 -53.792969 9.234375 -53.355469 C 9.085938 -53.0625 8.941406 -53.355469 8.941406 -53.941406 C 8.941406 -54.671875 9.085938 -54.964844 9.234375 -54.527344 Z M 7.035156 -34.445312 C 6.742188 -25.359375 6.742188 -25.359375 6.304688 -29.753906 C 6.15625 -32.539062 6.15625 -36.058594 6.449219 -39.28125 C 7.035156 -44.851562 8.207031 -52.035156 8.648438 -52.472656 C 8.941406 -52.914062 8.941406 -52.328125 8.0625 -47.636719 C 7.621094 -45.4375 7.183594 -39.429688 7.035156 -34.445312 Z M 9.675781 -20.082031 C 9.527344 -19.933594 9.382812 -20.226562 9.382812 -20.667969 C 9.382812 -21.253906 9.527344 -21.398438 9.675781 -20.960938 C 9.820312 -20.667969 9.820312 -20.226562 9.675781 -20.082031 Z M 9.085938 -24.917969 C 9.234375 -23.304688 9.382812 -21.839844 9.234375 -21.839844 C 7.914062 -21.839844 7.769531 -40.75 9.085938 -47.636719 C 10.40625 -55.257812 15.097656 -71.675781 15.683594 -71.089844 C 15.832031 -70.941406 15.390625 -69.625 14.949219 -67.863281 C 13.046875 -62.296875 10.699219 -52.328125 9.820312 -46.757812 C 8.792969 -40.75 8.5 -30.78125 9.085938 -24.917969 Z M 10.699219 -34.152344 L 10.40625 -26.238281 L 10.40625 -33.125 C 10.261719 -43.09375 12.019531 -53.792969 15.683594 -66.398438 C 16.269531 -68.597656 17.003906 -70.941406 17.148438 -71.382812 C 17.296875 -71.824219 17.589844 -72.117188 17.734375 -72.117188 C 18.027344 -72.117188 17.882812 -71.234375 17.441406 -70.210938 C 16.125 -66.546875 13.191406 -54.085938 12.164062 -48.078125 C 11.578125 -44.851562 10.992188 -38.550781 10.699219 -34.152344 Z M 14.804688 -23.304688 C 14.363281 -23.304688 14.070312 -32.394531 14.363281 -36.351562 C 14.65625 -40.160156 14.804688 -39.574219 14.804688 -31.953125 C 14.804688 -27.117188 14.804688 -23.304688 14.804688 -23.304688 Z M 15.242188 -42.066406 C 15.097656 -41.480469 15.097656 -41.921875 15.097656 -42.800781 C 15.097656 -43.679688 15.097656 -44.121094 15.242188 -43.679688 C 15.390625 -43.238281 15.390625 -42.507812 15.242188 -42.066406 Z M 15.683594 -46.464844 C 15.539062 -46.171875 15.390625 -46.316406 15.390625 -47.050781 C 15.390625 -47.636719 15.539062 -47.929688 15.683594 -47.636719 C 15.832031 -47.34375 15.832031 -46.757812 15.683594 -46.464844 Z M 16.125 -48.808594 C 15.976562 -48.371094 15.976562 -48.808594 15.976562 -49.542969 C 15.976562 -50.277344 16.125 -50.570312 16.125 -50.128906 C 16.269531 -49.6875 16.269531 -49.101562 16.125 -48.808594 Z M 41.773438 -24.476562 C 41.480469 -23.746094 40.601562 -33.710938 40.457031 -40.015625 C 40.308594 -43.535156 40.308594 -44.707031 40.601562 -43.535156 C 40.75 -42.507812 41.042969 -39.722656 41.042969 -37.523438 C 41.042969 -35.179688 41.1875 -31.367188 41.480469 -29.167969 C 41.773438 -26.96875 41.921875 -24.769531 41.773438 -24.476562 Z M 42.214844 -21.691406 C 42.066406 -21.398438 42.066406 -21.839844 42.066406 -22.574219 C 42.066406 -23.304688 42.214844 -23.597656 42.214844 -23.160156 C 42.359375 -22.71875 42.359375 -21.988281 42.214844 -21.691406 Z M 44.121094 -20.519531 C 42.800781 -27.410156 42.359375 -32.101562 42.214844 -42.800781 C 42.066406 -52.914062 42.066406 -53.0625 42.359375 -46.316406 C 43.238281 -32.394531 43.828125 -26.238281 44.558594 -21.988281 C 45.4375 -16.417969 45.144531 -15.242188 44.121094 -20.519531 Z M 79.738281 -62.734375 C 80.03125 -64.054688 80.617188 -68.453125 81.351562 -72.410156 C 81.9375 -76.511719 82.375 -79.152344 82.375 -78.273438 C 82.375 -77.390625 81.789062 -72.703125 81.058594 -68.011719 C 79.738281 -60.097656 79.152344 -57.75 79.152344 -59.65625 C 79.152344 -60.097656 79.445312 -61.5625 79.738281 -62.734375 Z M 79.003906 -58.335938 C 79.152344 -58.042969 79.152344 -57.457031 79.003906 -57.164062 C 78.859375 -56.871094 78.859375 -57.019531 78.859375 -57.75 C 78.859375 -58.335938 78.859375 -58.628906 79.003906 -58.335938 Z M 78.273438 -50.128906 C 80.46875 -59.511719 82.230469 -69.183594 83.109375 -76.367188 C 83.695312 -81.351562 83.839844 -81.496094 83.839844 -78.566406 C 83.839844 -74.609375 81.644531 -60.976562 79.152344 -51.449219 C 77.539062 -44.558594 76.511719 -41.1875 76.511719 -41.921875 C 76.367188 -42.066406 77.246094 -45.730469 78.273438 -50.128906 Z M 75.925781 -40.75 C 76.074219 -41.335938 76.074219 -41.480469 76.21875 -41.042969 C 76.367188 -40.75 76.367188 -40.308594 76.21875 -40.160156 C 76.074219 -40.015625 75.925781 -40.308594 75.925781 -40.75 Z M 80.324219 -48.664062 C 78.566406 -41.335938 74.753906 -29.023438 74.609375 -29.902344 C 74.609375 -30.195312 75.339844 -32.6875 76.21875 -35.472656 C 77.097656 -38.402344 77.980469 -41.628906 78.273438 -42.652344 C 78.417969 -43.679688 79.003906 -45.730469 79.445312 -47.199219 C 80.910156 -53.0625 82.375 -59.949219 82.960938 -63.027344 C 83.402344 -66.253906 83.839844 -67.570312 83.839844 -65.8125 C 83.839844 -63.90625 82.230469 -56.140625 80.324219 -48.664062 Z M 84.429688 -68.597656 C 83.988281 -67.132812 83.988281 -66.984375 83.988281 -68.15625 C 83.988281 -69.769531 84.722656 -72.847656 84.722656 -71.53125 C 84.722656 -70.941406 84.574219 -69.625 84.429688 -68.597656 Z M 86.480469 -60.828125 C 86.332031 -60.535156 86.332031 -60.828125 86.332031 -61.414062 C 86.332031 -62.148438 86.332031 -62.296875 86.480469 -62 C 86.625 -61.707031 86.625 -61.121094 86.480469 -60.828125 Z M 87.359375 -66.691406 C 87.214844 -66.546875 87.066406 -66.839844 87.214844 -67.277344 C 87.214844 -67.863281 87.359375 -68.011719 87.507812 -67.570312 C 87.507812 -67.277344 87.507812 -66.839844 87.359375 -66.691406 Z M 87.945312 -69.769531 C 87.800781 -69.332031 87.652344 -69.769531 87.652344 -70.503906 C 87.652344 -71.234375 87.800781 -71.53125 87.945312 -71.089844 C 88.09375 -70.648438 88.09375 -70.0625 87.945312 -69.769531 Z M 87.945312 -69.769531 "/></g></g></g><g fill="#000000" fill-opacity="1"><g transform="translate(447.203391, 453.624251)"><g><path d="M 14.804688 -34.59375 C 15.539062 -34.59375 15.683594 -34.300781 15.390625 -33.273438 C 13.632812 -24.625 13.046875 -20.8125 13.046875 -15.242188 C 13.046875 -9.675781 13.191406 -8.941406 14.21875 -6.597656 C 15.539062 -3.664062 17.882812 -1.464844 19.640625 -1.464844 C 20.226562 -1.464844 20.667969 -1.320312 20.667969 -1.027344 C 20.667969 -0.292969 22.425781 -0.441406 23.011719 -1.171875 C 23.746094 -2.050781 24.183594 -3.664062 25.652344 -10.113281 C 26.675781 -15.242188 32.101562 -35.472656 32.394531 -35.617188 C 32.539062 -35.765625 35.179688 -36.644531 38.257812 -37.816406 C 44.707031 -39.867188 44.265625 -40.015625 47.492188 -37.082031 C 49.542969 -35.179688 54.671875 -29.167969 57.898438 -24.769531 C 62.296875 -18.910156 64.054688 -15.683594 64.054688 -13.632812 C 64.054688 -11.433594 65.519531 -7.183594 66.984375 -5.714844 C 67.570312 -4.984375 68.304688 -4.691406 69.039062 -4.835938 C 69.625 -4.984375 70.0625 -4.835938 70.0625 -4.691406 C 70.0625 -4.398438 70.210938 -4.25 70.503906 -4.398438 C 70.648438 -4.542969 71.089844 -4.25 71.234375 -3.519531 C 71.824219 -1.320312 75.78125 -2.785156 77.390625 -5.714844 C 77.980469 -6.890625 81.644531 -27.410156 83.546875 -40.601562 C 84.136719 -43.828125 84.574219 -49.394531 84.867188 -53.0625 C 85.160156 -59.363281 85.160156 -59.804688 86.1875 -60.390625 C 88.09375 -61.707031 96.152344 -64.785156 99.085938 -65.375 C 103.042969 -66.105469 105.683594 -66.839844 105.828125 -67.425781 C 105.976562 -68.15625 103.191406 -71.53125 101.285156 -72.996094 C 99.964844 -73.875 99.230469 -74.167969 96.59375 -74.167969 C 94.980469 -74.167969 92.195312 -73.726562 90.292969 -73.433594 C 83.988281 -71.96875 84.867188 -71.382812 83.988281 -77.6875 C 81.9375 -91.316406 78.710938 -97.914062 72.261719 -102.015625 C 71.089844 -102.605469 69.625 -103.921875 68.746094 -104.949219 C 65.226562 -109.054688 60.242188 -109.640625 55.113281 -106.855469 C 51.59375 -105.09375 43.828125 -97.179688 40.160156 -91.902344 C 34.886719 -84.136719 28.730469 -72.261719 23.890625 -60.242188 C 22.71875 -57.3125 21.988281 -55.84375 21.546875 -55.992188 C 21.253906 -55.992188 18.910156 -56.285156 16.417969 -56.285156 C 12.898438 -56.433594 11.285156 -56.285156 9.382812 -55.699219 C 2.636719 -53.648438 0 -49.25 2.492188 -44.265625 C 4.542969 -40.308594 11.871094 -34.59375 14.804688 -34.59375 Z M 20.082031 -7.621094 C 19.933594 -7.476562 19.789062 -7.769531 19.789062 -8.207031 C 19.789062 -8.792969 19.933594 -8.941406 20.082031 -8.5 C 20.226562 -8.207031 20.226562 -7.769531 20.082031 -7.621094 Z M 24.332031 -29.023438 C 23.597656 -26.238281 22.574219 -21.546875 21.839844 -18.46875 C 21.253906 -15.390625 20.667969 -12.3125 20.519531 -11.433594 C 20.375 -10.261719 20.375 -10.261719 20.375 -11.726562 C 20.226562 -13.777344 21.253906 -19.347656 22.867188 -25.796875 C 24.625 -32.980469 24.917969 -34.003906 25.359375 -34.003906 C 25.503906 -34.003906 25.066406 -31.808594 24.332031 -29.023438 Z M 29.753906 -47.199219 C 29.609375 -46.613281 29.316406 -46.171875 29.023438 -46.171875 C 28.582031 -46.171875 28.875 -47.929688 29.316406 -48.515625 C 29.753906 -48.957031 29.902344 -48.222656 29.753906 -47.199219 Z M 35.179688 -59.070312 C 34.738281 -58.628906 34.738281 -58.628906 34.886719 -59.363281 C 35.179688 -59.804688 35.324219 -60.097656 35.472656 -59.949219 C 35.617188 -59.804688 35.472656 -59.363281 35.179688 -59.070312 Z M 65.8125 -25.945312 C 65.375 -22.867188 64.785156 -20.226562 64.785156 -20.226562 C 64.785156 -20.226562 63.613281 -21.546875 62.296875 -23.304688 C 59.070312 -27.703125 55.113281 -32.246094 50.714844 -36.9375 L 46.757812 -40.894531 L 57.3125 -46.171875 C 63.175781 -49.101562 68.15625 -51.59375 68.453125 -51.742188 C 69.039062 -52.035156 67.570312 -35.765625 65.8125 -25.945312 Z M 71.089844 -5.714844 C 71.089844 -6.007812 71.382812 -7.769531 71.96875 -9.675781 C 72.554688 -11.726562 72.847656 -12.460938 72.847656 -11.433594 C 72.847656 -10.113281 71.089844 -4.398438 71.089844 -5.714844 Z M 73.140625 -14.363281 C 72.996094 -14.070312 72.996094 -14.363281 72.996094 -14.949219 C 72.996094 -15.683594 72.996094 -15.832031 73.140625 -15.539062 C 73.289062 -15.242188 73.289062 -14.65625 73.140625 -14.363281 Z M 73.582031 -16.710938 C 73.582031 -16.417969 73.433594 -16.710938 73.433594 -17.296875 C 73.433594 -17.882812 73.582031 -18.175781 73.582031 -17.882812 C 73.726562 -17.589844 73.726562 -17.003906 73.582031 -16.710938 Z M 74.019531 -19.789062 C 73.875 -19.640625 73.875 -19.933594 73.875 -20.375 C 73.875 -20.960938 74.019531 -20.960938 74.167969 -20.667969 C 74.3125 -20.375 74.3125 -19.933594 74.019531 -19.789062 Z M 74.609375 -22.574219 C 74.460938 -22.425781 74.3125 -22.71875 74.3125 -23.160156 C 74.3125 -23.746094 74.460938 -23.746094 74.609375 -23.453125 C 74.753906 -23.160156 74.753906 -22.71875 74.609375 -22.574219 Z M 80.324219 -34.738281 C 80.324219 -35.324219 80.46875 -35.472656 80.617188 -35.03125 C 80.765625 -34.738281 80.765625 -34.300781 80.617188 -34.152344 C 80.46875 -34.003906 80.324219 -34.300781 80.324219 -34.738281 Z M 80.175781 -32.539062 C 80.324219 -32.101562 80.324219 -31.515625 80.175781 -31.222656 C 80.03125 -30.78125 79.882812 -31.222656 79.882812 -31.953125 C 80.03125 -32.6875 80.03125 -32.980469 80.175781 -32.539062 Z M 78.710938 -25.652344 C 79.152344 -28.144531 79.589844 -30.195312 79.738281 -30.195312 C 79.882812 -30.046875 79.152344 -25.210938 78.273438 -19.347656 C 77.246094 -13.484375 76.367188 -8.5 76.074219 -8.355469 C 75.78125 -7.914062 76.660156 -13.339844 78.710938 -25.652344 Z M 75.925781 -46.613281 C 75.488281 -41.480469 74.609375 -34.300781 72.554688 -21.691406 C 71.675781 -16.125 70.796875 -10.992188 70.503906 -10.261719 L 70.210938 -9.085938 L 70.0625 -10.554688 C 70.0625 -11.285156 70.796875 -16.269531 71.675781 -21.691406 C 72.703125 -27.117188 74.019531 -35.765625 74.753906 -41.042969 C 75.632812 -47.199219 76.074219 -49.25 75.925781 -46.613281 Z M 73.140625 -40.894531 C 73.289062 -40.457031 73.289062 -39.867188 73.140625 -39.574219 C 72.996094 -39.28125 72.996094 -39.574219 72.996094 -40.308594 C 72.996094 -41.1875 73.140625 -41.335938 73.140625 -40.894531 Z M 72.410156 -35.765625 L 72.847656 -38.550781 L 72.703125 -35.472656 C 72.554688 -33.859375 71.675781 -28.144531 70.941406 -22.71875 C 70.0625 -17.441406 69.183594 -13.046875 69.039062 -13.046875 C 68.890625 -13.046875 68.746094 -13.632812 68.890625 -14.363281 C 69.039062 -15.097656 69.769531 -19.496094 70.503906 -24.332031 C 71.234375 -29.023438 72.117188 -34.152344 72.410156 -35.765625 Z M 60.097656 -89.851562 C 63.613281 -92.78125 66.253906 -94.394531 66.839844 -93.808594 C 68.304688 -92.488281 70.210938 -70.210938 69.332031 -67.132812 C 68.890625 -65.960938 63.90625 -63.175781 41.335938 -51.886719 C 37.816406 -49.984375 37.082031 -49.6875 37.082031 -50.128906 C 37.082031 -50.128906 38.109375 -53.0625 39.574219 -56.578125 C 45.730469 -71.96875 52.914062 -83.695312 60.097656 -89.851562 Z M 50.128906 -89.558594 L 51.59375 -91.171875 L 50.277344 -89.410156 C 44.121094 -80.617188 38.695312 -70.503906 34.003906 -58.777344 C 31.074219 -51.449219 30.925781 -51.15625 30.925781 -52.472656 C 30.925781 -53.792969 35.910156 -65.519531 39.429688 -72.554688 C 42.652344 -79.003906 47.34375 -86.480469 50.128906 -89.558594 Z M 45.144531 -86.1875 C 45.292969 -86.1875 45 -85.601562 44.558594 -85.015625 C 41.335938 -80.324219 34.445312 -66.253906 31.074219 -57.457031 C 30.195312 -55.113281 29.316406 -53.207031 29.023438 -53.207031 C 28.4375 -53.207031 28.4375 -52.914062 30.78125 -58.777344 C 34.886719 -69.039062 43.972656 -86.1875 45.144531 -86.1875 Z M 32.539062 -66.839844 C 32.832031 -67.277344 32.980469 -67.570312 33.125 -67.425781 C 33.273438 -67.277344 33.125 -66.839844 32.832031 -66.546875 C 32.394531 -66.105469 32.394531 -66.105469 32.539062 -66.839844 Z M 31.660156 -64.785156 C 31.953125 -65.519531 32.246094 -65.8125 32.246094 -65.519531 C 32.246094 -65.226562 31.953125 -64.492188 31.660156 -63.90625 C 31.222656 -63.175781 30.925781 -62.882812 30.925781 -63.175781 C 30.925781 -63.46875 31.222656 -64.199219 31.660156 -64.785156 Z M 30.195312 -61.5625 C 30.632812 -62.148438 30.925781 -62.441406 30.925781 -62.296875 C 30.925781 -62 30.632812 -61.269531 30.195312 -60.683594 C 29.902344 -59.949219 29.609375 -59.65625 29.609375 -59.949219 C 29.609375 -60.242188 29.902344 -60.976562 30.195312 -61.5625 Z M 28.144531 -56.140625 C 28.730469 -57.164062 29.023438 -57.605469 28.730469 -56.871094 C 28.4375 -55.550781 27.261719 -53.207031 27.261719 -53.941406 C 27.261719 -54.085938 27.703125 -55.113281 28.144531 -56.140625 Z M 26.96875 -46.464844 C 26.675781 -45.585938 26.238281 -44.851562 26.089844 -44.851562 C 25.652344 -44.851562 26.238281 -47.199219 26.96875 -48.515625 C 27.847656 -50.128906 27.847656 -48.515625 26.96875 -46.464844 Z M 24.625 -46.757812 C 25.796875 -49.984375 25.796875 -50.128906 26.089844 -49.835938 C 26.238281 -49.6875 25.796875 -48.515625 25.359375 -47.050781 C 23.890625 -43.386719 23.453125 -43.09375 24.625 -46.757812 Z M 22.132812 -32.394531 C 22.425781 -33.273438 22.71875 -34.003906 23.011719 -34.003906 C 23.160156 -34.003906 22.867188 -32.101562 22.28125 -29.753906 C 21.691406 -27.410156 20.8125 -23.304688 20.226562 -20.667969 C 19.640625 -18.027344 19.054688 -13.484375 18.910156 -10.40625 L 18.46875 -4.984375 L 18.46875 -9.96875 C 18.320312 -15.683594 19.347656 -21.546875 22.132812 -32.394531 Z M 21.105469 -33.566406 C 21.253906 -33.566406 21.105469 -32.101562 20.667969 -30.488281 C 20.226562 -28.730469 19.347656 -25.066406 18.910156 -22.425781 C 18.320312 -19.789062 17.734375 -15.683594 17.441406 -13.632812 L 17.003906 -9.675781 L 17.148438 -13.777344 C 17.296875 -17.296875 18.320312 -22.71875 20.519531 -32.539062 C 20.667969 -33.125 20.960938 -33.566406 21.105469 -33.566406 Z M 12.753906 -49.542969 C 15.242188 -50.714844 20.226562 -51.449219 20.226562 -50.570312 C 20.226562 -50.277344 19.640625 -48.371094 18.910156 -46.171875 C 17.882812 -42.945312 17.441406 -42.214844 16.417969 -41.921875 C 14.804688 -41.480469 10.40625 -41.480469 9.234375 -42.066406 C 6.007812 -43.238281 8.0625 -47.492188 12.753906 -49.542969 Z M 5.277344 -49.394531 C 5.570312 -49.984375 6.007812 -50.421875 6.007812 -50.421875 C 6.15625 -50.421875 6.007812 -49.984375 5.863281 -49.394531 C 5.570312 -48.957031 5.128906 -48.515625 5.128906 -48.515625 C 4.984375 -48.515625 5.128906 -48.957031 5.277344 -49.394531 Z M 5.277344 -49.394531 "/></g></g></g><g fill="#000000" fill-opacity="1"><g transform="translate(554.644077, 453.624251)"><g><path d="M 32.832031 -93.515625 C 34.300781 -93.808594 36.496094 -94.542969 37.523438 -94.980469 C 38.550781 -95.421875 40.457031 -95.859375 41.773438 -96.007812 C 43.09375 -96.152344 44.414062 -96.300781 44.558594 -96.59375 C 45.292969 -97.179688 41.921875 -99.085938 38.550781 -100.113281 C 31.074219 -102.164062 28.289062 -102.015625 20.226562 -99.527344 C 12.019531 -97.035156 2.34375 -91.171875 0.734375 -87.652344 C 0 -86.1875 0 -86.039062 0.585938 -84.867188 C 1.027344 -84.28125 1.613281 -83.839844 2.050781 -83.839844 C 2.34375 -83.839844 2.929688 -83.402344 3.226562 -83.109375 C 4.105469 -81.9375 5.570312 -82.230469 8.792969 -84.28125 C 10.40625 -85.308594 11.871094 -86.039062 12.019531 -85.894531 C 12.019531 -85.894531 11.726562 -84.574219 11.140625 -83.109375 C 8.648438 -75.78125 5.570312 -62 4.25 -52.035156 C 3.078125 -42.945312 3.226562 -28.4375 4.542969 -23.597656 C 6.007812 -18.027344 8.0625 -14.21875 11.285156 -11.140625 L 14.070312 -8.5 L 11.871094 -6.742188 C 9.527344 -4.691406 7.914062 -2.34375 7.914062 -0.878906 C 7.914062 0.292969 9.675781 1.464844 10.992188 1.320312 C 11.578125 1.171875 12.164062 1.320312 12.3125 1.757812 C 12.753906 2.929688 14.949219 1.90625 21.546875 -2.34375 C 23.746094 -3.8125 26.089844 -5.128906 26.53125 -5.128906 C 26.96875 -5.128906 27.410156 -5.277344 27.554688 -5.570312 C 27.554688 -5.714844 30.046875 -7.328125 32.832031 -8.941406 C 40.457031 -13.484375 40.160156 -13.191406 37.964844 -14.070312 C 36.203125 -14.949219 35.765625 -14.949219 30.488281 -14.21875 C 27.410156 -13.777344 24.332031 -13.339844 23.597656 -13.191406 C 22.132812 -12.898438 22.28125 -12.753906 21.105469 -23.597656 C 20.519531 -30.046875 20.375 -32.539062 20.8125 -39.136719 C 21.546875 -48.078125 23.011719 -57.457031 25.359375 -67.277344 C 29.316406 -83.402344 30.632812 -92.195312 29.167969 -92.195312 C 27.996094 -92.195312 30.046875 -93.074219 32.832031 -93.515625 Z M 9.527344 -38.84375 C 9.527344 -37.523438 9.527344 -39.574219 9.527344 -43.238281 C 9.675781 -47.636719 10.113281 -52.472656 10.847656 -56.871094 C 12.898438 -68.746094 17.148438 -83.839844 19.640625 -88.386719 C 20.082031 -89.410156 20.375 -89.703125 20.226562 -89.117188 C 20.082031 -88.679688 19.054688 -85.746094 18.027344 -82.816406 C 14.511719 -72.261719 11.285156 -57.457031 10.261719 -46.464844 C 9.96875 -43.535156 9.675781 -40.160156 9.527344 -38.84375 Z M 11.871094 -34.003906 C 11.871094 -28.875 11.871094 -24.625 11.871094 -24.625 C 11.433594 -24.625 11.140625 -30.488281 11.140625 -36.496094 C 11.140625 -47.785156 12.605469 -58.042969 15.832031 -71.089844 C 17.589844 -77.980469 20.960938 -88.972656 21.839844 -90.292969 C 22.867188 -92.050781 22.574219 -89.996094 20.667969 -84.429688 C 14.65625 -66.398438 11.871094 -50.421875 11.871094 -34.003906 Z M 14.65625 -48.957031 C 14.511719 -48.808594 14.363281 -49.101562 14.511719 -49.542969 C 14.511719 -50.128906 14.511719 -50.277344 14.804688 -49.835938 C 14.804688 -49.542969 14.804688 -49.101562 14.65625 -48.957031 Z M 15.242188 -52.035156 C 15.097656 -51.59375 14.949219 -52.035156 14.949219 -52.765625 C 14.949219 -53.5 15.097656 -53.792969 15.242188 -53.355469 C 15.390625 -52.914062 15.242188 -52.328125 15.242188 -52.035156 Z M 15.683594 -54.964844 C 15.539062 -54.527344 15.390625 -54.964844 15.390625 -55.84375 C 15.390625 -56.726562 15.539062 -57.164062 15.683594 -56.578125 C 15.832031 -56.140625 15.832031 -55.40625 15.683594 -54.964844 Z M 15.832031 -58.191406 C 15.683594 -60.390625 22.867188 -87.800781 24.183594 -90.4375 C 25.359375 -92.488281 24.917969 -90.585938 23.011719 -84.574219 C 21.839844 -81.058594 20.082031 -74.460938 18.910156 -69.769531 C 17.734375 -65.078125 16.5625 -60.390625 16.417969 -59.363281 C 16.125 -58.335938 15.832031 -57.75 15.832031 -58.191406 Z M 18.46875 -36.351562 C 18.320312 -35.472656 18.320312 -36.351562 18.320312 -38.402344 C 18.320312 -40.457031 18.320312 -41.1875 18.46875 -40.160156 C 18.613281 -38.988281 18.613281 -37.378906 18.46875 -36.351562 Z M 28.144531 -88.386719 C 27.996094 -87.800781 26.382812 -81.058594 24.625 -73.582031 C 22.867188 -65.960938 20.8125 -56.726562 20.226562 -53.0625 C 19.640625 -49.394531 19.054688 -45.4375 18.910156 -44.414062 C 18.761719 -43.386719 18.761719 -44.265625 18.910156 -46.316406 C 19.054688 -48.371094 19.496094 -52.472656 20.082031 -55.40625 C 21.105469 -61.414062 27.261719 -87.214844 27.847656 -88.679688 C 28.289062 -89.558594 28.289062 -89.410156 28.144531 -88.386719 Z M 28.144531 -88.386719 "/></g></g></g><g fill="#000000" fill-opacity="1"><g transform="translate(595.099261, 453.624251)"><g><path d="M 64.492188 11.285156 C 64.933594 10.40625 64.640625 8.941406 63.175781 3.664062 C 60.683594 -4.398438 59.804688 -10.554688 59.804688 -19.640625 C 59.804688 -33.273438 62.589844 -51.007812 67.71875 -70.0625 C 69.332031 -76.21875 69.476562 -79.445312 68.304688 -80.617188 C 66.984375 -81.9375 65.960938 -82.230469 65.375 -81.351562 C 64.933594 -80.617188 64.933594 -80.617188 64.933594 -81.203125 C 64.933594 -82.082031 66.253906 -82.667969 75.339844 -85.015625 C 89.117188 -88.679688 100.550781 -90.4375 110.519531 -90.4375 C 116.820312 -90.4375 117.40625 -90.585938 118.433594 -91.464844 C 119.605469 -92.488281 119.753906 -94.25 118.726562 -94.25 C 118.289062 -94.25 118.140625 -94.394531 118.289062 -94.6875 C 118.433594 -94.980469 118.140625 -95.421875 117.699219 -95.714844 C 116.527344 -96.742188 114.621094 -98.644531 113.597656 -100.113281 C 112.277344 -101.871094 107.734375 -102.75 99.230469 -102.75 C 71.089844 -102.605469 34.886719 -92.78125 14.65625 -79.589844 C 10.261719 -76.804688 3.078125 -69.625 1.613281 -66.691406 C 0 -63.761719 0 -60.976562 1.757812 -58.777344 C 2.492188 -57.898438 3.664062 -56.726562 4.542969 -56.433594 C 5.277344 -56.140625 6.449219 -55.40625 7.035156 -54.671875 C 7.914062 -53.5 8.207031 -53.5 17.003906 -52.914062 C 35.324219 -51.886719 44.851562 -48.808594 44.851562 -44.265625 C 44.851562 -43.386719 44.558594 -38.988281 44.121094 -34.300781 C 41.921875 -9.234375 46.757812 7.328125 57.3125 10.554688 C 59.65625 11.285156 59.804688 11.433594 61.121094 12.164062 C 62.589844 13.046875 63.90625 12.605469 64.492188 11.285156 Z M 5.714844 -60.683594 C 5.421875 -60.097656 5.277344 -60.097656 5.277344 -60.683594 C 5.277344 -61.121094 5.570312 -61.707031 5.714844 -62.148438 C 6.15625 -62.734375 6.15625 -62.734375 6.15625 -62.148438 C 6.15625 -61.707031 6.007812 -61.121094 5.714844 -60.683594 Z M 64.199219 -79.296875 C 64.347656 -79.152344 63.320312 -75.78125 61.855469 -71.675781 C 59.070312 -63.175781 58.484375 -62.734375 60.976562 -70.796875 C 62.734375 -76.511719 63.90625 -79.589844 64.199219 -79.296875 Z M 7.914062 -61.269531 C 7.621094 -60.390625 7.328125 -59.804688 7.035156 -59.804688 C 6.449219 -59.804688 6.597656 -60.390625 7.621094 -61.5625 L 8.5 -62.734375 Z M 45.4375 -48.664062 C 45.292969 -48.664062 44.265625 -49.25 43.238281 -50.128906 C 38.988281 -53.355469 30.78125 -55.84375 18.761719 -57.75 C 14.363281 -58.335938 13.339844 -58.628906 13.777344 -59.070312 C 14.65625 -60.097656 21.253906 -64.199219 26.238281 -66.839844 C 32.832031 -70.210938 52.621094 -78.273438 53.0625 -77.832031 C 53.207031 -77.6875 52.472656 -75.339844 51.449219 -72.554688 C 49.835938 -67.863281 46.90625 -55.84375 46.023438 -50.570312 C 45.878906 -49.542969 45.585938 -48.664062 45.4375 -48.664062 Z M 49.101562 -23.597656 L 49.394531 -29.902344 C 49.6875 -43.679688 53.5 -63.027344 57.75 -74.019531 C 59.949219 -79.445312 60.683594 -80.175781 58.777344 -75.046875 C 55.257812 -65.519531 52.179688 -52.328125 50.714844 -40.457031 C 50.277344 -37.082031 49.6875 -31.953125 49.542969 -29.023438 Z M 55.84375 -47.34375 C 55.699219 -47.199219 55.550781 -47.492188 55.699219 -47.929688 C 55.699219 -48.515625 55.84375 -48.515625 55.992188 -48.222656 C 55.992188 -47.929688 55.992188 -47.492188 55.84375 -47.34375 Z M 52.328125 -36.644531 C 52.035156 -34.445312 51.59375 -28.144531 51.449219 -23.011719 C 51.15625 -13.484375 51.15625 -13.484375 50.714844 -18.027344 C 50.128906 -25.359375 51.449219 -40.308594 53.792969 -52.328125 C 55.699219 -62.148438 59.363281 -74.753906 61.5625 -79.003906 C 62.882812 -81.644531 62.441406 -79.882812 60.535156 -74.019531 C 56.726562 -63.320312 54.085938 -51.15625 52.328125 -36.644531 Z M 58.335938 -59.511719 C 58.335938 -59.070312 58.191406 -58.191406 57.898438 -57.605469 C 57.457031 -56.433594 57.457031 -57.75 57.898438 -59.363281 C 58.191406 -60.242188 58.335938 -60.242188 58.335938 -59.511719 Z M 58.042969 -29.167969 C 57.75 -26.089844 57.605469 -25.652344 57.457031 -28.144531 C 57.457031 -29.167969 57.605469 -30.488281 57.898438 -30.78125 C 58.191406 -31.222656 58.191406 -30.632812 58.042969 -29.167969 Z M 58.191406 -32.394531 C 58.191406 -31.953125 58.042969 -32.246094 58.042969 -33.273438 C 58.042969 -34.152344 58.191406 -34.445312 58.191406 -34.003906 C 58.335938 -33.566406 58.335938 -32.832031 58.191406 -32.394531 Z M 58.484375 -61.414062 C 58.484375 -62 58.628906 -62.148438 58.777344 -61.707031 C 58.921875 -61.414062 58.777344 -60.976562 58.628906 -60.828125 C 58.484375 -60.683594 58.484375 -60.976562 58.484375 -61.414062 Z M 58.777344 -36.644531 C 58.628906 -36.203125 58.484375 -36.496094 58.484375 -37.378906 C 58.484375 -38.257812 58.628906 -38.695312 58.777344 -38.257812 C 58.777344 -37.816406 58.777344 -37.082031 58.777344 -36.644531 Z M 58.921875 -63.320312 C 58.921875 -63.90625 59.070312 -63.90625 59.21875 -63.613281 C 59.363281 -63.175781 59.363281 -62.882812 59.21875 -62.734375 C 58.921875 -62.589844 58.921875 -62.734375 58.921875 -63.320312 Z M 58.921875 -40.160156 C 58.777344 -42.800781 62.441406 -60.535156 64.785156 -68.453125 C 67.132812 -76.804688 67.277344 -77.539062 67.570312 -77.390625 C 67.570312 -77.246094 66.691406 -73.726562 65.667969 -69.476562 C 63.027344 -60.097656 61.5625 -53.355469 60.242188 -45.730469 C 59.21875 -39.429688 58.921875 -38.402344 58.921875 -40.160156 Z M 58.921875 -40.160156 "/></g></g></g></svg>