<svg xmlns="http://www.w3.org/2000/svg" xmlns:xlink="http://www.w3.org/1999/xlink" width="1080" zoomAndPan="magnify" viewBox="0 0 810 809.999993" height="1080" preserveAspectRatio="xMidYMid meet" version="1.0"><defs><g/></defs><g fill="#000000" fill-opacity="1"><g transform="translate(70.308284, 442.520947)"><g><path d="M 78.949219 -70.691406 C 75.554688 -74.085938 74.539062 -74.875 72.160156 -76.007812 C 69.449219 -77.363281 69.109375 -77.363281 64.921875 -77.476562 C 59.605469 -77.703125 55.535156 -77.140625 48.183594 -75.101562 C 41.625 -73.292969 36.195312 -71.144531 30.3125 -68.203125 C 19 -62.546875 9.953125 -56.101562 4.296875 -49.539062 C 1.695312 -46.601562 0.453125 -44.113281 0.226562 -41.398438 C 0 -39.246094 0 -39.136719 1.355469 -37.777344 C 2.035156 -36.984375 3.054688 -36.195312 3.394531 -36.082031 C 3.84375 -35.855469 4.636719 -35.515625 4.976562 -35.0625 C 6.222656 -34.046875 8.824219 -33.480469 10.972656 -33.820312 C 11.988281 -33.933594 12.894531 -34.269531 13.121094 -34.382812 C 13.574219 -34.835938 11.648438 -35.855469 8.824219 -36.757812 C 7.804688 -37.097656 6.898438 -37.550781 6.898438 -37.777344 C 6.898438 -38.003906 7.464844 -39.136719 8.03125 -40.265625 C 10.859375 -45.46875 20.925781 -53.5 31.667969 -59.15625 C 39.585938 -63.339844 47.730469 -66.167969 56.554688 -67.976562 C 61.984375 -68.996094 69.671875 -68.996094 72.839844 -67.976562 L 74.988281 -67.296875 L 75.101562 -65.375 C 75.328125 -63 74.652344 -60.625 72.613281 -56.554688 C 68.769531 -48.863281 58.476562 -36.871094 49.765625 -29.859375 C 45.921875 -26.804688 42.980469 -24.882812 42.640625 -25.222656 C 42.300781 -25.5625 43.886719 -36.082031 45.015625 -40.832031 C 45.582031 -43.320312 46.601562 -47.390625 47.277344 -49.878906 C 49.539062 -58.023438 49.425781 -57.796875 48.636719 -58.816406 C 48.296875 -59.382812 47.617188 -59.71875 47.164062 -59.71875 C 46.824219 -59.71875 46.488281 -59.832031 46.488281 -59.945312 C 46.488281 -60.625 44.335938 -62.433594 43.433594 -62.433594 C 41.398438 -62.433594 38.34375 -57.003906 35.515625 -48.410156 C 32.914062 -40.378906 31.332031 -31.667969 31.21875 -24.316406 C 31.21875 -20.8125 31.105469 -20.472656 30.425781 -20.246094 C 29.070312 -19.90625 27.484375 -20.132812 26.578125 -20.8125 C 26.015625 -21.152344 25.5625 -21.378906 25.222656 -21.152344 C 24.429688 -20.699219 25.675781 -19.339844 28.84375 -17.191406 L 31.667969 -15.269531 L 32.460938 -11.988281 C 33.707031 -6.671875 36.757812 -1.695312 40.152344 0.226562 C 40.945312 0.792969 42.753906 1.582031 44 2.035156 C 48.183594 3.621094 49.992188 2.941406 47.84375 0.792969 C 45.582031 -1.582031 43.546875 -7.238281 42.753906 -13.460938 L 42.527344 -14.816406 L 45.808594 -15.835938 C 52.367188 -17.984375 60.851562 -22.960938 67.523438 -28.84375 C 74.199219 -34.496094 79.175781 -40.832031 82.339844 -47.164062 C 84.605469 -51.804688 85.394531 -54.96875 85.28125 -59.15625 C 85.054688 -63.679688 84.039062 -65.488281 78.949219 -70.691406 Z M 3.167969 -40.378906 C 3.394531 -41.511719 4.636719 -44.113281 4.863281 -44.113281 C 4.976562 -44.113281 4.636719 -43.09375 4.183594 -41.960938 C 3.054688 -39.359375 2.828125 -38.796875 3.167969 -40.378906 Z M 6.671875 -44.449219 C 6.445312 -44.113281 5.769531 -42.867188 5.089844 -41.625 C 4.523438 -40.378906 4.070312 -39.699219 4.296875 -40.152344 C 4.636719 -41.625 5.882812 -44.113281 6.558594 -44.5625 C 7.011719 -45.015625 7.011719 -45.015625 6.671875 -44.449219 Z M 46.824219 -53.726562 C 47.050781 -54.179688 47.164062 -54.179688 47.164062 -53.839844 C 47.164062 -53.613281 46.9375 -53.046875 46.824219 -52.59375 C 46.601562 -52.140625 46.488281 -52.027344 46.488281 -52.367188 C 46.488281 -52.707031 46.601562 -53.273438 46.824219 -53.726562 Z M 43.207031 -39.136719 C 42.980469 -38.457031 42.980469 -38.34375 42.980469 -38.910156 C 42.980469 -39.359375 43.09375 -40.039062 43.207031 -40.605469 C 43.433594 -41.285156 43.546875 -41.285156 43.546875 -40.71875 C 43.546875 -40.378906 43.433594 -39.585938 43.207031 -39.136719 Z M 43.773438 -41.738281 C 43.660156 -41.625 43.546875 -41.847656 43.660156 -42.1875 C 43.660156 -42.640625 43.773438 -42.753906 43.886719 -42.414062 C 43.886719 -42.1875 43.886719 -41.847656 43.773438 -41.738281 Z M 44.113281 -43.207031 C 44 -43.09375 44 -43.320312 44 -43.660156 C 44 -44.113281 44.113281 -44.113281 44.226562 -43.886719 C 44.335938 -43.546875 44.335938 -43.320312 44.113281 -43.207031 Z M 45.46875 -48.523438 C 45.355469 -47.84375 45.128906 -46.601562 44.789062 -45.808594 C 44.335938 -44.449219 44.335938 -44.335938 44.5625 -45.582031 C 44.675781 -46.261719 45.015625 -47.503906 45.242188 -48.296875 C 45.695312 -49.652344 45.695312 -49.652344 45.46875 -48.523438 Z M 35.0625 -21.378906 L 35.0625 -24.542969 C 34.949219 -30.652344 36.871094 -41.058594 39.8125 -49.878906 C 40.605469 -51.914062 41.398438 -54.066406 41.625 -54.628906 C 41.960938 -55.195312 42.074219 -55.195312 41.960938 -54.742188 C 38.683594 -45.128906 37.324219 -40.265625 36.195312 -33.140625 C 35.855469 -31.21875 35.515625 -27.710938 35.402344 -25.449219 Z M 36.984375 -13.007812 C 36.871094 -12.894531 36.757812 -13.121094 36.757812 -13.460938 C 36.757812 -13.914062 36.871094 -13.914062 36.984375 -13.6875 C 37.097656 -13.460938 37.097656 -13.121094 36.984375 -13.007812 Z M 36.757812 -24.542969 C 36.757812 -23.300781 36.648438 -22.167969 36.421875 -22.054688 C 35.515625 -21.492188 36.421875 -31.558594 38.003906 -39.246094 C 39.359375 -45.582031 44.226562 -59.832031 44.789062 -59.15625 C 44.902344 -59.042969 44.449219 -57.570312 43.773438 -55.761719 C 39.925781 -46.375 36.757812 -32.347656 36.757812 -24.542969 Z M 38.003906 -23.753906 C 37.890625 -23.640625 37.890625 -23.867188 37.890625 -24.203125 C 37.890625 -24.65625 38.003906 -24.769531 38.117188 -24.429688 C 38.230469 -24.203125 38.117188 -23.867188 38.003906 -23.753906 Z M 38.117188 -25.5625 C 38.003906 -25.222656 37.890625 -25.5625 37.890625 -26.355469 C 37.890625 -27.144531 38.003906 -27.484375 38.117188 -27.03125 C 38.230469 -26.578125 38.117188 -25.902344 38.117188 -25.5625 Z M 38.570312 -30.3125 L 38.230469 -27.824219 L 38.457031 -30.652344 C 38.683594 -34.269531 39.925781 -40.605469 41.847656 -47.164062 C 43.320312 -52.367188 45.582031 -58.476562 46.148438 -59.042969 C 46.488281 -59.382812 46.488281 -59.269531 46.261719 -58.703125 C 43.546875 -51.578125 41.285156 -44.226562 39.8125 -37.324219 C 39.359375 -34.835938 38.796875 -31.667969 38.570312 -30.3125 Z M 42.300781 -34.269531 C 42.074219 -32.234375 41.511719 -29.179688 41.285156 -27.257812 C 41.058594 -25.335938 40.832031 -24.203125 40.71875 -24.542969 C 40.71875 -26.242188 42.414062 -38.230469 42.753906 -37.890625 C 42.867188 -37.890625 42.640625 -36.195312 42.300781 -34.269531 Z M 75.101562 -52.253906 C 76.121094 -54.179688 77.027344 -56.214844 77.25 -56.78125 C 77.703125 -57.570312 77.703125 -57.570312 77.476562 -56.554688 C 77.363281 -55.988281 76.800781 -54.292969 76.121094 -52.933594 C 75.441406 -51.578125 74.539062 -49.992188 74.199219 -49.539062 C 73.746094 -49.089844 74.199219 -50.21875 75.101562 -52.253906 Z M 69.898438 -38.683594 C 69.449219 -38.117188 69.109375 -37.890625 69.109375 -38.230469 C 69.109375 -38.230469 69.449219 -38.570312 69.785156 -38.796875 C 70.351562 -39.246094 70.351562 -39.246094 69.898438 -38.683594 Z M 77.140625 -46.148438 C 76.914062 -45.582031 76.6875 -45.46875 76.6875 -45.921875 C 76.6875 -46.148438 76.800781 -46.375 77.027344 -46.488281 C 77.25 -46.601562 77.25 -46.488281 77.140625 -46.148438 Z M 78.382812 -50.332031 C 77.363281 -48.183594 75.214844 -44.902344 73.066406 -42.300781 C 72.160156 -41.171875 71.144531 -40.152344 70.804688 -39.925781 C 70.464844 -39.585938 71.144531 -40.71875 72.386719 -42.1875 C 74.652344 -45.015625 77.140625 -48.863281 78.269531 -50.898438 C 79.175781 -52.707031 79.289062 -52.253906 78.382812 -50.332031 Z M 73.972656 -46.488281 C 72.273438 -44.226562 70.238281 -41.847656 70.804688 -42.753906 C 70.917969 -42.980469 72.160156 -44.789062 73.40625 -46.714844 C 75.441406 -49.878906 78.835938 -56.214844 78.835938 -57.117188 C 78.835938 -57.230469 78.949219 -57.457031 79.175781 -57.457031 C 80.191406 -57.457031 76.800781 -50.445312 73.972656 -46.488281 Z M 81.210938 -48.296875 C 80.53125 -46.824219 79.851562 -45.582031 79.738281 -45.582031 C 79.515625 -45.582031 81.890625 -51.011719 82.230469 -51.351562 C 82.679688 -51.691406 82.339844 -50.785156 81.210938 -48.296875 Z M 81.210938 -48.296875 "/></g></g></g><g fill="#000000" fill-opacity="1"><g transform="translate(149.483014, 442.520947)"><g><path d="M 89.582031 -0.113281 C 89.582031 -0.339844 90.03125 -0.566406 90.484375 -0.679688 C 92.40625 -1.132812 92.40625 -3.28125 90.484375 -3.394531 C 90.144531 -3.394531 89.46875 -3.621094 89.015625 -3.84375 C 88.675781 -4.183594 87.65625 -4.636719 86.867188 -4.863281 C 81.097656 -6.332031 66.734375 -15.269531 58.476562 -22.394531 C 53.386719 -26.804688 53.5 -26.578125 55.988281 -27.257812 C 65.828125 -30.085938 83.472656 -43.660156 89.808594 -53.160156 C 92.40625 -57.003906 93.3125 -59.71875 93.3125 -63.339844 C 93.3125 -66.621094 92.070312 -69.5625 89.582031 -72.726562 C 88.675781 -73.859375 87.65625 -75.328125 87.207031 -76.121094 C 86.1875 -78.15625 83.246094 -80.984375 80.871094 -82.117188 C 76.574219 -84.265625 73.972656 -84.71875 66.054688 -84.71875 C 59.945312 -84.71875 58.25 -84.605469 54.742188 -83.925781 C 35.96875 -80.078125 17.871094 -70.691406 6.222656 -58.476562 C 2.261719 -54.40625 0.453125 -51.464844 0.226562 -48.523438 C 0 -46.824219 0.113281 -46.261719 1.019531 -44.675781 C 1.582031 -43.660156 2.714844 -42.300781 3.394531 -41.625 C 4.183594 -41.058594 5.429688 -39.925781 6.222656 -39.136719 C 8.257812 -37.210938 10.179688 -36.421875 13.007812 -36.421875 C 15.609375 -36.535156 16.964844 -36.757812 17.078125 -37.324219 C 17.078125 -37.550781 15.722656 -38.457031 14.023438 -39.246094 C 12.328125 -40.152344 10.632812 -41.171875 10.066406 -41.511719 L 9.273438 -42.074219 L 10.292969 -43.773438 C 11.535156 -45.921875 16.511719 -50.898438 20.019531 -53.726562 C 26.355469 -58.703125 36.308594 -64.472656 43.207031 -67.183594 C 57.570312 -72.726562 70.917969 -74.085938 80.871094 -71.144531 C 83.472656 -70.351562 83.8125 -69.785156 83.359375 -68.089844 C 81.550781 -61.191406 72.839844 -50.785156 62.886719 -43.660156 C 58.816406 -40.832031 46.824219 -33.480469 46.148438 -33.480469 C 45.921875 -33.480469 45.695312 -33.820312 45.695312 -34.160156 C 45.695312 -34.949219 47.84375 -44.449219 48.863281 -48.070312 C 50.785156 -55.082031 51.578125 -60.964844 50.332031 -60.285156 C 50.21875 -60.171875 49.878906 -60.511719 49.652344 -60.964844 C 49.316406 -61.871094 48.183594 -62.433594 47.617188 -61.871094 C 47.390625 -61.644531 47.277344 -61.757812 47.277344 -62.207031 C 47.277344 -62.660156 47.164062 -62.773438 46.714844 -62.773438 C 46.261719 -62.660156 46.035156 -62.886719 46.035156 -63.226562 C 46.035156 -65.261719 43.433594 -66.167969 41.738281 -64.808594 C 39.585938 -63.226562 37.097656 -56.78125 34.609375 -47.390625 C 31.78125 -35.96875 30.652344 -27.03125 31.332031 -20.699219 C 32.121094 -13.007812 33.820312 -8.371094 37.097656 -5.316406 C 38.796875 -3.621094 43.886719 -0.792969 45.242188 -0.792969 C 46.261719 -0.792969 46.714844 -1.695312 46.148438 -2.375 C 46.035156 -2.601562 45.695312 -3.394531 45.582031 -4.070312 C 45.46875 -4.75 45.128906 -6.222656 44.789062 -7.238281 C 44.226562 -9.160156 43.546875 -20.246094 44 -20.246094 C 44.113281 -20.246094 45.128906 -19 46.261719 -17.53125 C 53.160156 -8.710938 67.636719 0.339844 77.929688 2.261719 C 79.289062 2.488281 80.53125 2.714844 80.644531 2.714844 C 80.757812 2.714844 82.117188 2.601562 83.585938 2.261719 C 86.527344 1.695312 89.582031 0.566406 89.582031 -0.113281 Z M 3.734375 -47.730469 C 3.734375 -47.957031 3.957031 -48.523438 4.183594 -48.976562 C 4.523438 -49.539062 4.75 -49.765625 4.75 -49.539062 C 4.75 -49.316406 4.523438 -48.75 4.183594 -48.296875 C 3.957031 -47.730469 3.734375 -47.503906 3.734375 -47.730469 Z M 4.523438 -46.9375 C 4.863281 -47.730469 6.898438 -51.125 7.125 -51.125 C 7.238281 -51.125 6.671875 -49.992188 5.996094 -48.636719 C 4.636719 -46.148438 4.070312 -45.46875 4.523438 -46.9375 Z M 8.933594 -50.21875 C 8.257812 -49.316406 7.351562 -47.730469 6.898438 -46.9375 C 5.996094 -45.242188 5.65625 -44.902344 5.996094 -46.261719 C 6.445312 -47.730469 7.125 -48.863281 8.710938 -50.445312 L 10.179688 -52.027344 Z M 80.757812 -48.296875 C 80.417969 -47.84375 80.078125 -47.503906 79.964844 -47.503906 C 79.851562 -47.503906 80.078125 -47.84375 80.417969 -48.296875 C 80.757812 -48.636719 81.097656 -48.976562 81.210938 -48.976562 C 81.324219 -48.976562 81.097656 -48.636719 80.757812 -48.296875 Z M 87.429688 -53.160156 C 88.222656 -54.40625 89.015625 -55.421875 89.128906 -55.421875 C 89.355469 -55.421875 87.996094 -53.046875 86.640625 -51.238281 C 85.847656 -50.21875 85.054688 -49.316406 84.828125 -49.316406 C 84.605469 -49.316406 84.828125 -49.652344 85.28125 -50.105469 C 85.621094 -50.558594 86.640625 -51.914062 87.429688 -53.160156 Z M 78.609375 -52.367188 C 79.964844 -53.953125 81.890625 -56.441406 82.679688 -57.683594 C 83.585938 -59.042969 84.378906 -60.058594 84.492188 -59.945312 C 84.605469 -59.832031 83.925781 -58.703125 83.019531 -57.34375 C 82.230469 -56.101562 80.304688 -53.726562 78.835938 -52.253906 L 76.234375 -49.539062 Z M 76.800781 -48.75 C 80.53125 -52.707031 84.265625 -57.230469 85.621094 -59.71875 C 86.753906 -61.757812 86.980469 -61.304688 85.847656 -59.15625 C 84.378906 -56.328125 81.777344 -52.933594 77.929688 -49.316406 C 73.179688 -44.5625 72.273438 -44.226562 76.800781 -48.75 Z M 72.273438 -42.414062 C 74.875 -44.5625 82.566406 -52.253906 84.378906 -54.40625 C 85.621094 -55.875 85.621094 -55.875 85.054688 -54.742188 C 84.71875 -54.066406 82.230469 -51.351562 79.738281 -48.863281 C 77.140625 -46.261719 73.972656 -43.320312 72.726562 -42.414062 L 70.351562 -40.605469 Z M 47.730469 -51.464844 C 47.84375 -52.253906 48.070312 -53.046875 48.296875 -53.5 C 48.523438 -53.953125 48.523438 -53.839844 48.410156 -52.933594 C 48.296875 -52.253906 47.957031 -51.351562 47.84375 -51.011719 C 47.617188 -50.445312 47.617188 -50.671875 47.730469 -51.464844 Z M 35.515625 -23.1875 C 35.402344 -22.847656 35.402344 -23.1875 35.402344 -23.867188 C 35.402344 -24.542969 35.402344 -24.769531 35.515625 -24.429688 C 35.628906 -24.089844 35.628906 -23.527344 35.515625 -23.1875 Z M 35.96875 -29.179688 C 35.515625 -29.179688 35.515625 -29.070312 36.648438 -35.742188 C 37.890625 -42.1875 39.359375 -48.410156 41.058594 -53.5 C 42.074219 -56.894531 44.335938 -62.09375 44.5625 -61.871094 C 44.5625 -61.757812 44 -60.058594 43.207031 -58.136719 C 40.605469 -51.351562 38.34375 -42.867188 37.097656 -34.496094 C 36.535156 -31.558594 36.082031 -29.179688 35.96875 -29.179688 Z M 36.757812 -21.714844 C 36.757812 -23.414062 36.871094 -24.542969 37.097656 -24.542969 C 37.324219 -24.542969 37.4375 -23.753906 37.4375 -22.621094 C 37.324219 -19.339844 36.757812 -18.664062 36.757812 -21.714844 Z M 37.4375 -30.652344 C 37.4375 -32.121094 39.136719 -40.945312 40.152344 -45.015625 C 42.074219 -52.707031 45.242188 -61.984375 45.582031 -60.964844 C 45.695312 -60.738281 45.46875 -59.71875 45.015625 -58.703125 C 42.867188 -53.160156 39.925781 -42.074219 38.683594 -34.382812 C 38.117188 -30.652344 37.4375 -28.730469 37.4375 -30.652344 Z M 42.1875 -44.5625 C 42.1875 -44.902344 42.300781 -45.015625 42.414062 -44.789062 C 42.527344 -44.449219 42.414062 -44.226562 42.300781 -44.113281 C 42.1875 -43.886719 42.1875 -44.113281 42.1875 -44.5625 Z M 42.414062 -21.714844 C 42.300781 -21.378906 42.1875 -21.714844 42.1875 -22.394531 C 42.1875 -23.074219 42.300781 -23.414062 42.414062 -23.074219 C 42.414062 -22.621094 42.414062 -22.054688 42.414062 -21.714844 Z M 43.546875 -32.6875 C 42.980469 -32.121094 45.355469 -43.207031 46.714844 -47.957031 C 47.957031 -51.804688 47.617188 -49.878906 46.148438 -43.886719 C 45.355469 -40.832031 44.5625 -37.210938 44.226562 -35.742188 C 44 -34.160156 43.660156 -32.914062 43.546875 -32.6875 Z M 48.976562 -25.449219 C 49.089844 -25.5625 49.539062 -25.109375 49.992188 -24.542969 C 50.445312 -23.980469 50.671875 -23.527344 50.671875 -23.527344 C 50.332031 -23.527344 48.863281 -25.222656 48.976562 -25.449219 Z M 61.078125 -9.839844 C 60.625 -9.839844 55.421875 -14.023438 52.59375 -16.738281 C 49.652344 -19.679688 46.488281 -23.527344 46.488281 -24.316406 C 46.488281 -24.542969 47.050781 -23.867188 47.84375 -22.847656 C 51.125 -18.550781 56.554688 -13.121094 60.511719 -10.40625 C 60.964844 -10.179688 61.304688 -9.839844 61.078125 -9.839844 Z M 64.246094 -9.273438 C 60.738281 -11.535156 56.78125 -14.589844 52.820312 -18.324219 C 49.765625 -21.265625 46.9375 -24.769531 47.277344 -25.222656 C 47.390625 -25.335938 47.84375 -24.996094 48.183594 -24.542969 C 51.238281 -20.132812 58.476562 -13.460938 64.921875 -9.273438 C 66.167969 -8.484375 67.296875 -7.691406 67.410156 -7.578125 C 68.429688 -6.785156 67.070312 -7.464844 64.246094 -9.273438 Z M 64.246094 -9.273438 "/></g></g></g><g fill="#000000" fill-opacity="1"><g transform="translate(243.927154, 442.520947)"><g><path d="M 52.367188 -67.523438 C 50.898438 -69.449219 44.226562 -74.539062 41.738281 -75.667969 C 39.8125 -76.574219 39.246094 -76.6875 35.742188 -76.6875 C 32.007812 -76.6875 31.558594 -76.574219 29.070312 -75.554688 C 24.769531 -73.632812 20.925781 -70.917969 16.851562 -66.847656 C 12.667969 -62.546875 10.632812 -59.945312 7.578125 -54.742188 C 3.734375 -47.957031 1.355469 -41.625 0.679688 -36.421875 C 0 -32.007812 1.019531 -26.355469 3.054688 -22.847656 C 4.410156 -20.472656 8.03125 -16.964844 10.066406 -16.0625 C 11.648438 -15.269531 11.648438 -15.15625 12.101562 -13.007812 C 12.667969 -10.292969 15.042969 -5.542969 16.738281 -3.734375 C 18.777344 -1.46875 21.378906 0.339844 23.300781 0.90625 C 24.203125 1.246094 25.449219 1.695312 26.015625 2.035156 C 26.578125 2.375 27.710938 2.941406 28.617188 3.167969 C 30.652344 3.734375 33.367188 3.507812 35.515625 2.488281 C 37.550781 1.46875 42.414062 -3.28125 44.5625 -6.671875 C 49.878906 -14.816406 54.179688 -25.789062 56.441406 -36.984375 C 57.570312 -42.527344 57.570312 -53.953125 56.667969 -58.25 C 55.875 -61.304688 53.953125 -65.488281 52.367188 -67.523438 Z M 51.011719 -43.320312 C 51.011719 -43.660156 51.125 -43.773438 51.238281 -43.546875 C 51.351562 -43.207031 51.351562 -42.980469 51.238281 -42.867188 C 51.125 -42.640625 51.011719 -42.867188 51.011719 -43.320312 Z M 50.671875 -41.058594 C 50.898438 -42.074219 50.898438 -42.074219 50.898438 -41.285156 C 50.898438 -40.832031 50.785156 -39.925781 50.671875 -39.246094 C 50.332031 -38.34375 50.332031 -38.34375 50.332031 -39.136719 C 50.332031 -39.585938 50.445312 -40.492188 50.671875 -41.058594 Z M 50.21875 -37.550781 C 50.21875 -37.210938 49.878906 -35.628906 49.539062 -33.933594 C 48.863281 -31.21875 48.410156 -30.199219 48.523438 -31.105469 C 48.523438 -31.78125 50.21875 -38.117188 50.21875 -37.550781 Z M 11.988281 -54.066406 C 12.328125 -54.40625 12.101562 -53.953125 11.535156 -52.933594 C 11.085938 -52.027344 10.40625 -51.011719 10.292969 -50.785156 C 9.726562 -50.21875 11.3125 -53.273438 11.988281 -54.066406 Z M 4.636719 -40.945312 C 4.75 -41.171875 4.976562 -41.285156 4.976562 -41.058594 C 4.863281 -40.378906 4.296875 -39.246094 4.296875 -39.8125 C 4.296875 -40.152344 4.410156 -40.605469 4.636719 -40.945312 Z M 3.394531 -35.0625 C 3.28125 -34.835938 3.28125 -35.0625 3.28125 -35.515625 C 3.28125 -35.96875 3.28125 -36.195312 3.394531 -35.96875 C 3.507812 -35.742188 3.507812 -35.289062 3.394531 -35.0625 Z M 3.621094 -37.097656 C 3.621094 -37.550781 3.734375 -38.230469 3.84375 -38.570312 C 4.070312 -39.023438 4.183594 -39.136719 4.183594 -38.796875 C 4.183594 -38.457031 4.070312 -37.777344 3.84375 -37.324219 C 3.621094 -36.648438 3.621094 -36.535156 3.621094 -37.097656 Z M 3.957031 -32.800781 L 4.070312 -34.949219 C 4.183594 -36.195312 4.863281 -38.796875 5.542969 -40.832031 C 6.671875 -44.449219 9.5 -50.445312 9.839844 -50.21875 C 9.953125 -50.105469 9.386719 -48.636719 8.597656 -47.050781 C 7.804688 -45.46875 6.558594 -42.640625 5.996094 -40.832031 C 5.429688 -39.023438 4.636719 -36.535156 4.410156 -35.175781 Z M 6.222656 -38.910156 C 7.804688 -44.902344 13.007812 -54.515625 16.851562 -58.929688 C 17.417969 -59.605469 17.078125 -58.929688 15.949219 -57.34375 C 13.6875 -54.179688 10.519531 -48.523438 9.046875 -45.355469 C 8.484375 -44.226562 7.578125 -41.738281 6.898438 -39.8125 C 5.65625 -36.308594 5.316406 -35.855469 6.222656 -38.910156 Z M 15.269531 -23.980469 C 15.15625 -23.414062 15.15625 -23.527344 15.042969 -24.429688 C 15.042969 -25.109375 15.15625 -26.578125 15.382812 -27.710938 C 15.835938 -30.085938 17.984375 -37.4375 18.097656 -37.210938 C 18.210938 -37.097656 17.871094 -35.742188 17.417969 -34.046875 C 16.964844 -32.347656 16.289062 -29.632812 15.949219 -27.9375 C 15.722656 -26.355469 15.382812 -24.542969 15.269531 -23.980469 Z M 16.511719 -21.492188 L 16.175781 -16.964844 L 16.289062 -22.394531 C 16.402344 -26.917969 16.511719 -28.390625 17.304688 -31.332031 C 18.777344 -36.757812 20.359375 -40.71875 22.621094 -45.355469 C 24.542969 -49.089844 27.371094 -53.839844 27.824219 -53.839844 C 27.824219 -53.839844 27.144531 -52.59375 26.128906 -50.898438 C 22.507812 -45.128906 19.566406 -37.777344 17.757812 -30.199219 C 17.191406 -27.710938 16.625 -24.203125 16.511719 -21.492188 Z M 18.324219 -37.890625 C 18.324219 -38.117188 18.4375 -38.457031 18.664062 -38.796875 C 18.777344 -39.023438 19 -39.136719 19 -38.910156 C 19 -38.796875 18.777344 -38.34375 18.664062 -38.003906 C 18.4375 -37.777344 18.324219 -37.664062 18.324219 -37.890625 Z M 18.210938 -25.675781 L 17.984375 -24.882812 L 17.984375 -25.675781 C 17.871094 -28.390625 21.265625 -39.359375 24.089844 -45.355469 C 26.015625 -49.203125 29.179688 -54.40625 30.3125 -55.308594 C 30.652344 -55.535156 29.972656 -54.515625 29.070312 -52.933594 C 24.996094 -46.9375 21.265625 -38.230469 19.339844 -30.539062 C 18.777344 -28.277344 18.210938 -26.015625 18.210938 -25.675781 Z M 20.699219 -22.621094 C 20.585938 -22.28125 20.472656 -22.621094 20.472656 -23.300781 C 20.472656 -23.980469 20.585938 -24.316406 20.699219 -23.980469 C 20.8125 -23.640625 20.8125 -23.074219 20.699219 -22.621094 Z M 21.039062 -24.996094 C 20.925781 -24.769531 20.8125 -24.996094 20.8125 -25.675781 C 20.8125 -26.242188 20.925781 -26.46875 21.039062 -26.128906 C 21.152344 -25.789062 21.152344 -25.222656 21.039062 -24.996094 Z M 21.378906 -27.03125 C 21.265625 -26.917969 21.152344 -27.144531 21.152344 -27.484375 C 21.152344 -27.9375 21.265625 -27.9375 21.378906 -27.710938 C 21.492188 -27.371094 21.492188 -27.144531 21.378906 -27.03125 Z M 21.714844 -28.390625 C 21.601562 -28.277344 21.492188 -28.503906 21.492188 -28.957031 C 21.601562 -29.292969 21.601562 -29.40625 21.714844 -29.179688 C 21.828125 -28.84375 21.828125 -28.503906 21.714844 -28.390625 Z M 36.421875 -10.972656 C 34.496094 -8.03125 31.21875 -4.636719 29.632812 -3.84375 C 28.957031 -3.507812 28.050781 -3.167969 27.371094 -3.054688 C 26.242188 -2.828125 26.128906 -2.828125 25.109375 -4.636719 C 23.980469 -6.558594 22.847656 -9.726562 22.394531 -12.214844 L 22.167969 -13.574219 L 24.089844 -14.136719 C 26.46875 -14.816406 27.9375 -15.835938 27.9375 -16.851562 C 27.9375 -17.304688 27.824219 -17.53125 27.597656 -17.417969 C 27.484375 -17.304688 27.03125 -17.417969 26.804688 -17.644531 C 26.46875 -18.097656 26.128906 -18.097656 24.769531 -17.644531 C 21.601562 -16.738281 21.714844 -16.625 21.941406 -21.039062 C 22.507812 -30.765625 28.84375 -47.390625 34.835938 -55.082031 C 36.421875 -57.117188 36.535156 -57.457031 35.515625 -58.136719 C 35.0625 -58.476562 33.933594 -59.382812 33.140625 -60.058594 C 32.121094 -60.851562 31.21875 -61.417969 30.992188 -61.304688 C 30.652344 -61.191406 30.085938 -61.078125 29.746094 -61.078125 C 28.617188 -61.078125 24.203125 -56.554688 21.828125 -52.933594 C 16.0625 -44.449219 11.421875 -31.21875 11.421875 -23.300781 C 11.421875 -21.941406 11.3125 -20.8125 11.085938 -20.8125 C 10.972656 -20.8125 10.519531 -21.601562 10.066406 -22.621094 C 7.917969 -28.050781 7.804688 -32.121094 9.726562 -37.777344 C 14.589844 -52.027344 25.449219 -65.035156 35.628906 -68.769531 C 37.890625 -69.5625 38.796875 -69.671875 40.945312 -69.5625 C 45.46875 -69.335938 46.375 -68.429688 47.84375 -63.339844 C 48.410156 -60.964844 48.523438 -59.492188 48.636719 -54.179688 C 48.636719 -50.671875 48.410156 -46.714844 48.183594 -45.015625 C 46.035156 -31.894531 41.398438 -18.664062 36.421875 -10.972656 Z M 48.410156 -30.085938 C 48.410156 -29.859375 48.296875 -29.292969 48.070312 -28.84375 C 47.957031 -28.390625 47.84375 -28.390625 47.84375 -28.730469 C 47.84375 -28.957031 47.957031 -29.519531 48.070312 -29.972656 C 48.296875 -30.425781 48.410156 -30.425781 48.410156 -30.085938 Z M 49.089844 -24.429688 C 48.183594 -21.601562 45.695312 -16.0625 45.582031 -16.511719 C 45.582031 -16.625 46.148438 -17.984375 46.824219 -19.566406 C 47.957031 -22.28125 49.765625 -27.597656 51.238281 -32.6875 C 51.691406 -33.933594 52.027344 -34.722656 52.027344 -34.382812 C 52.027344 -33.707031 50.558594 -28.390625 49.089844 -24.429688 Z M 52.253906 -35.289062 C 52.140625 -35.175781 52.027344 -35.402344 52.140625 -35.742188 C 52.140625 -36.195312 52.140625 -36.195312 52.253906 -35.96875 C 52.367188 -35.742188 52.367188 -35.402344 52.253906 -35.289062 Z M 47.390625 -23.300781 C 46.601562 -21.265625 45.808594 -19.453125 45.695312 -19.339844 C 45.582031 -19.226562 45.582031 -19.453125 45.695312 -19.90625 C 47.957031 -25.789062 50.558594 -35.175781 51.691406 -41.511719 C 52.140625 -43.660156 52.367188 -44.5625 52.367188 -43.773438 C 52.480469 -40.378906 49.992188 -30.3125 47.390625 -23.300781 Z M 52.707031 -45.808594 C 52.59375 -45.582031 52.480469 -45.808594 52.480469 -46.261719 C 52.480469 -46.824219 52.59375 -47.050781 52.707031 -46.714844 C 52.707031 -46.488281 52.707031 -46.148438 52.707031 -45.808594 Z M 54.742188 -34.949219 C 54.628906 -34.835938 54.628906 -34.949219 54.628906 -35.402344 C 54.628906 -35.742188 54.742188 -35.855469 54.855469 -35.628906 C 54.96875 -35.289062 54.855469 -35.0625 54.742188 -34.949219 Z M 54.742188 -34.949219 "/></g></g></g><g fill="#000000" fill-opacity="1"><g transform="translate(302.629557, 442.520947)"><g><path d="M 68.316406 4.183594 C 68.882812 3.621094 68.203125 2.035156 67.523438 2.375 C 66.960938 2.601562 66.734375 1.246094 66.394531 -3.507812 C 66.167969 -7.125 66.621094 -13.234375 67.523438 -18.664062 C 67.75 -20.359375 68.316406 -23.753906 68.769531 -26.355469 C 69.5625 -31.332031 71.03125 -38.003906 73.40625 -47.617188 C 76.347656 -59.382812 76.914062 -64.582031 75.78125 -68.542969 C 75.101562 -70.691406 72.953125 -73.179688 71.03125 -74.199219 C 70.351562 -74.425781 69.335938 -75.328125 68.882812 -76.007812 C 66.847656 -78.496094 64.808594 -78.949219 62.207031 -77.25 C 60.285156 -76.007812 59.15625 -74.761719 57.570312 -72.160156 C 54.292969 -67.070312 49.089844 -55.082031 45.242188 -43.660156 C 43.886719 -39.925781 42.640625 -36.195312 42.300781 -35.515625 C 41.738281 -34.269531 41.738281 -34.382812 41.960938 -36.984375 C 42.074219 -38.34375 42.640625 -42.527344 43.207031 -46.148438 C 44.449219 -53.613281 44.5625 -54.855469 43.773438 -56.667969 C 43.09375 -58.363281 41.847656 -59.269531 38.683594 -60.851562 C 37.210938 -61.644531 35.96875 -62.433594 35.855469 -62.773438 C 35.742188 -63.226562 35.0625 -63.679688 34.382812 -63.90625 C 31.894531 -64.695312 30.085938 -63.113281 27.03125 -57.683594 C 25.449219 -54.628906 24.429688 -52.367188 19 -38.570312 L 14.816406 -28.164062 L 15.042969 -31.21875 C 15.382812 -36.308594 17.191406 -46.035156 19.453125 -55.082031 C 22.167969 -65.601562 22.28125 -67.976562 20.585938 -69.5625 C 19.90625 -70.125 19.226562 -70.578125 19.113281 -70.464844 C 18.890625 -70.464844 18.777344 -70.578125 18.777344 -70.804688 C 18.777344 -71.144531 18.664062 -71.144531 18.324219 -70.804688 C 17.871094 -70.464844 17.757812 -70.578125 17.53125 -71.144531 C 17.304688 -71.9375 17.304688 -72.050781 16.851562 -71.371094 C 16.289062 -70.691406 16.289062 -70.691406 16.289062 -71.597656 C 16.289062 -72.160156 16.175781 -72.5 15.949219 -72.386719 C 15.722656 -72.273438 15.382812 -72.613281 15.15625 -73.066406 C 14.929688 -73.859375 14.589844 -73.972656 13.574219 -73.972656 C 13.007812 -73.972656 12.101562 -73.746094 11.648438 -73.40625 C 9.953125 -71.9375 8.257812 -67.410156 5.769531 -57.230469 C 1.355469 -40.152344 0 -26.578125 2.035156 -19.792969 C 3.394531 -14.929688 6.671875 -11.085938 9.5 -11.085938 C 10.179688 -11.085938 10.972656 -10.746094 11.535156 -10.292969 C 12.554688 -9.273438 14.363281 -9.160156 14.816406 -9.953125 C 15.042969 -10.40625 15.496094 -12.101562 15.949219 -13.800781 C 17.644531 -21.152344 23.1875 -36.082031 26.917969 -43.09375 C 29.859375 -48.636719 29.972656 -48.636719 29.070312 -42.867188 C 28.730469 -41.171875 28.390625 -37.664062 28.277344 -35.289062 C 28.050781 -31.78125 28.164062 -30.425781 28.84375 -27.257812 C 29.292969 -25.222656 30.085938 -22.621094 30.539062 -21.601562 C 31.667969 -19.226562 33.933594 -17.191406 35.175781 -17.191406 C 35.742188 -17.191406 36.648438 -16.738281 37.324219 -16.0625 C 39.023438 -14.703125 40.039062 -14.703125 41.398438 -16.289062 C 43.546875 -18.777344 44.675781 -21.601562 49.539062 -36.984375 C 53.160156 -48.296875 53.953125 -50.558594 57.117188 -57.003906 C 59.605469 -61.984375 61.644531 -65.375 63.113281 -66.734375 C 63.90625 -67.410156 64.132812 -67.523438 64.132812 -67.070312 C 64.132812 -65.941406 63 -61.191406 60.738281 -52.820312 C 55.761719 -34.835938 54.628906 -28.164062 54.628906 -17.53125 C 54.628906 -10.066406 54.628906 -9.726562 55.535156 -6.671875 C 57.34375 -1.019531 59.042969 1.46875 62.433594 3.054688 C 63.226562 3.394531 64.359375 3.957031 64.808594 4.183594 C 66.054688 4.863281 67.863281 4.863281 68.316406 4.183594 Z M 42.074219 -50.21875 C 42.074219 -49.765625 42.074219 -49.316406 42.074219 -49.089844 C 41.960938 -48.863281 41.847656 -49.089844 41.847656 -49.765625 C 41.847656 -50.332031 41.960938 -50.558594 42.074219 -50.21875 Z M 5.542969 -26.46875 C 5.429688 -32.6875 7.011719 -43.546875 9.613281 -54.066406 C 11.199219 -60.738281 14.023438 -69.898438 14.363281 -69.5625 C 14.476562 -69.449219 14.023438 -67.75 13.460938 -65.828125 C 9.386719 -52.707031 7.011719 -40.71875 6.222656 -29.746094 C 5.769531 -23.414062 5.542969 -22.621094 5.542969 -26.46875 Z M 7.804688 -18.324219 C 7.464844 -18.324219 7.125 -23.074219 7.125 -27.824219 C 7.238281 -35.515625 9.160156 -47.503906 12.101562 -58.25 C 14.136719 -65.601562 14.929688 -68.089844 15.269531 -68.429688 C 15.835938 -68.996094 15.609375 -67.75 14.25 -63.226562 C 9.613281 -46.601562 7.351562 -33.253906 7.804688 -23.414062 C 7.917969 -20.585938 7.917969 -18.324219 7.804688 -18.324219 Z M 10.859375 -40.605469 C 10.40625 -38.117188 9.839844 -33.933594 9.613281 -31.445312 C 9.386719 -28.84375 9.160156 -27.484375 9.160156 -28.503906 C 9.046875 -32.121094 10.519531 -42.300781 12.214844 -49.765625 C 13.460938 -55.421875 16.738281 -67.410156 16.851562 -66.847656 C 16.964844 -66.507812 16.175781 -63.339844 15.269531 -59.832031 C 13.121094 -52.253906 11.875 -46.824219 10.859375 -40.605469 Z M 13.347656 -31.445312 C 13.234375 -29.292969 13.007812 -26.578125 12.894531 -25.675781 C 12.78125 -24.65625 12.78125 -26.015625 12.894531 -28.730469 C 13.007812 -35.175781 14.589844 -44.335938 17.53125 -55.875 C 18.777344 -60.738281 19.792969 -64.472656 19.792969 -64.019531 C 19.90625 -63.566406 19.113281 -60.398438 18.210938 -57.003906 C 15.609375 -46.488281 14.023438 -38.570312 13.347656 -31.445312 Z M 23.640625 -43.09375 C 23.414062 -42.527344 23.074219 -42.300781 23.074219 -42.527344 C 23.074219 -42.753906 23.300781 -43.320312 23.640625 -43.773438 C 23.867188 -44.335938 24.203125 -44.5625 24.203125 -44.335938 C 24.203125 -44.113281 23.867188 -43.546875 23.640625 -43.09375 Z M 26.917969 -48.183594 C 25.449219 -45.242188 25.222656 -45.015625 25.222656 -45.355469 C 25.222656 -45.808594 27.710938 -50.558594 28.050781 -50.785156 C 28.277344 -50.898438 27.710938 -49.765625 26.917969 -48.183594 Z M 32.460938 -30.652344 L 32.6875 -34.496094 C 32.914062 -39.472656 34.949219 -53.613281 35.515625 -54.179688 C 35.855469 -54.40625 35.628906 -53.160156 34.382812 -45.242188 C 33.933594 -42.074219 33.253906 -37.4375 33.027344 -35.0625 Z M 36.082031 -45.015625 C 35.402344 -41.285156 34.835938 -35.515625 34.609375 -32.347656 C 34.382812 -29.070312 34.160156 -26.242188 34.046875 -26.015625 C 33.707031 -24.996094 33.933594 -34.160156 34.382812 -38.230469 C 35.0625 -44.113281 36.648438 -53.839844 37.097656 -54.742188 C 37.664062 -55.761719 37.324219 -53.273438 36.082031 -45.015625 Z M 43.09375 -29.070312 C 43.207031 -29.519531 43.433594 -30.199219 43.660156 -30.539062 C 43.886719 -30.878906 43.886719 -30.765625 43.773438 -30.085938 C 43.660156 -29.632812 43.320312 -28.957031 43.207031 -28.730469 C 42.980469 -28.277344 42.867188 -28.390625 43.09375 -29.070312 Z M 42.527344 -27.597656 C 42.753906 -27.9375 42.867188 -28.050781 42.867188 -27.824219 C 42.867188 -27.597656 42.753906 -27.144531 42.527344 -26.917969 C 42.300781 -26.578125 42.1875 -26.46875 42.1875 -26.691406 C 42.1875 -26.917969 42.300781 -27.371094 42.527344 -27.597656 Z M 41.398438 -47.617188 C 41.625 -48.523438 41.738281 -48.523438 41.738281 -47.730469 C 41.738281 -47.277344 41.625 -46.375 41.398438 -45.808594 C 41.171875 -44.789062 41.171875 -44.789062 41.171875 -45.582031 C 41.171875 -46.035156 41.285156 -46.9375 41.398438 -47.617188 Z M 39.359375 -28.050781 C 39.136719 -27.824219 39.136719 -28.503906 39.136719 -29.632812 C 39.359375 -32.460938 39.585938 -32.914062 39.585938 -30.539062 C 39.585938 -29.40625 39.472656 -28.277344 39.359375 -28.050781 Z M 39.925781 -34.160156 C 39.8125 -33.820312 39.699219 -34.160156 39.699219 -34.949219 C 39.699219 -35.742188 39.8125 -36.082031 39.925781 -35.628906 C 39.925781 -35.175781 39.925781 -34.496094 39.925781 -34.160156 Z M 40.265625 -37.210938 C 40.152344 -36.757812 40.039062 -37.210938 40.039062 -38.003906 C 40.039062 -38.910156 40.152344 -39.246094 40.265625 -38.910156 C 40.378906 -38.457031 40.378906 -37.664062 40.265625 -37.210938 Z M 40.71875 -41.058594 C 40.378906 -39.246094 40.265625 -40.945312 40.71875 -43.09375 C 40.945312 -44.335938 40.945312 -44.449219 41.058594 -43.660156 C 41.058594 -42.980469 40.945312 -41.847656 40.71875 -41.058594 Z M 41.171875 -21.492188 C 41.058594 -21.492188 41.058594 -21.714844 41.171875 -21.941406 C 42.527344 -25.335938 44 -29.179688 44.449219 -30.539062 C 44.789062 -31.558594 45.242188 -32.234375 45.355469 -32.121094 C 45.355469 -32.007812 44.5625 -29.632812 43.433594 -26.691406 C 42.300781 -23.867188 41.285156 -21.492188 41.171875 -21.492188 Z M 60.285156 -67.976562 C 58.589844 -65.488281 53.839844 -56.101562 52.027344 -51.578125 C 51.464844 -50.105469 49.765625 -45.242188 48.183594 -40.71875 C 46.714844 -36.195312 45.46875 -32.6875 45.46875 -32.800781 C 45.355469 -33.027344 46.488281 -36.421875 47.730469 -40.378906 C 48.976562 -44.335938 49.992188 -47.730469 49.992188 -47.957031 C 49.878906 -48.070312 48.75 -44.789062 47.390625 -40.605469 C 46.035156 -36.421875 44.789062 -33.140625 44.789062 -33.253906 C 44.5625 -33.820312 49.878906 -49.539062 52.027344 -54.628906 C 54.066406 -59.492188 57.457031 -66.394531 58.476562 -67.75 C 58.816406 -68.089844 57.910156 -66.28125 56.554688 -63.566406 C 53.839844 -58.023438 50.558594 -50.332031 50.21875 -48.863281 L 49.992188 -47.957031 L 50.558594 -48.976562 C 50.898438 -49.652344 51.804688 -51.914062 52.820312 -54.066406 C 56.214844 -62.207031 59.71875 -68.65625 61.417969 -70.011719 C 61.644531 -70.238281 61.191406 -69.335938 60.285156 -67.976562 Z M 59.605469 -23.640625 C 59.269531 -21.039062 58.929688 -17.417969 58.703125 -15.722656 C 58.363281 -12.78125 58.363281 -12.894531 58.476562 -17.191406 C 58.816406 -25.675781 60.625 -35.402344 65.148438 -52.59375 C 66.394531 -57.230469 67.523438 -60.964844 67.523438 -60.964844 C 67.75 -60.738281 66.167969 -53.726562 64.808594 -48.863281 C 62.207031 -39.136719 60.398438 -30.3125 59.605469 -23.640625 Z M 60.171875 -12.894531 C 59.832031 -8.484375 59.832031 -8.484375 59.945312 -14.816406 C 60.171875 -23.753906 61.304688 -31.558594 64.472656 -43.773438 C 68.089844 -58.023438 69.785156 -64.359375 69.5625 -62.660156 C 69.335938 -60.398438 68.203125 -55.648438 65.941406 -46.488281 C 63.453125 -36.984375 61.644531 -28.164062 60.964844 -22.28125 C 60.738281 -19.566406 60.285156 -15.382812 60.171875 -12.894531 Z M 61.757812 -14.25 C 61.644531 -14.023438 61.644531 -14.25 61.644531 -14.816406 C 61.644531 -15.496094 61.757812 -15.609375 61.757812 -15.269531 C 61.871094 -14.929688 61.871094 -14.476562 61.757812 -14.25 Z M 62.207031 -17.984375 C 62.09375 -17.644531 61.984375 -17.984375 61.984375 -18.777344 C 61.984375 -19.566406 62.09375 -19.90625 62.207031 -19.453125 C 62.207031 -19 62.207031 -18.324219 62.207031 -17.984375 Z M 62.546875 -21.039062 C 62.433594 -20.8125 62.320312 -21.152344 62.320312 -21.714844 C 62.320312 -22.28125 62.433594 -22.507812 62.546875 -22.167969 C 62.660156 -21.828125 62.660156 -21.265625 62.546875 -21.039062 Z M 62.886719 -23.980469 C 62.773438 -23.640625 62.660156 -23.980469 62.660156 -24.542969 C 62.773438 -25.109375 62.773438 -25.335938 62.886719 -24.996094 C 63 -24.65625 63 -24.203125 62.886719 -23.980469 Z M 63 -26.355469 C 63 -28.164062 67.523438 -48.75 67.863281 -48.410156 C 67.976562 -48.296875 67.296875 -45.128906 66.394531 -41.398438 C 65.488281 -37.664062 64.359375 -32.574219 63.90625 -30.085938 C 63.453125 -27.710938 63 -26.015625 63 -26.355469 Z M 64.472656 -8.824219 C 64.359375 -11.648438 66.394531 -26.578125 67.863281 -33.367188 C 69.222656 -39.472656 72.050781 -51.011719 72.273438 -50.898438 C 72.273438 -50.785156 71.710938 -47.617188 70.804688 -43.886719 C 67.75 -31.332031 66.394531 -23.867188 65.261719 -13.800781 C 64.808594 -8.824219 64.472656 -7.238281 64.472656 -8.824219 Z M 64.472656 -8.824219 "/></g></g></g><g fill="#000000" fill-opacity="1"><g transform="translate(380.673229, 442.520947)"><g><path d="M 52.367188 -67.523438 C 50.898438 -69.449219 44.226562 -74.539062 41.738281 -75.667969 C 39.8125 -76.574219 39.246094 -76.6875 35.742188 -76.6875 C 32.007812 -76.6875 31.558594 -76.574219 29.070312 -75.554688 C 24.769531 -73.632812 20.925781 -70.917969 16.851562 -66.847656 C 12.667969 -62.546875 10.632812 -59.945312 7.578125 -54.742188 C 3.734375 -47.957031 1.355469 -41.625 0.679688 -36.421875 C 0 -32.007812 1.019531 -26.355469 3.054688 -22.847656 C 4.410156 -20.472656 8.03125 -16.964844 10.066406 -16.0625 C 11.648438 -15.269531 11.648438 -15.15625 12.101562 -13.007812 C 12.667969 -10.292969 15.042969 -5.542969 16.738281 -3.734375 C 18.777344 -1.46875 21.378906 0.339844 23.300781 0.90625 C 24.203125 1.246094 25.449219 1.695312 26.015625 2.035156 C 26.578125 2.375 27.710938 2.941406 28.617188 3.167969 C 30.652344 3.734375 33.367188 3.507812 35.515625 2.488281 C 37.550781 1.46875 42.414062 -3.28125 44.5625 -6.671875 C 49.878906 -14.816406 54.179688 -25.789062 56.441406 -36.984375 C 57.570312 -42.527344 57.570312 -53.953125 56.667969 -58.25 C 55.875 -61.304688 53.953125 -65.488281 52.367188 -67.523438 Z M 51.011719 -43.320312 C 51.011719 -43.660156 51.125 -43.773438 51.238281 -43.546875 C 51.351562 -43.207031 51.351562 -42.980469 51.238281 -42.867188 C 51.125 -42.640625 51.011719 -42.867188 51.011719 -43.320312 Z M 50.671875 -41.058594 C 50.898438 -42.074219 50.898438 -42.074219 50.898438 -41.285156 C 50.898438 -40.832031 50.785156 -39.925781 50.671875 -39.246094 C 50.332031 -38.34375 50.332031 -38.34375 50.332031 -39.136719 C 50.332031 -39.585938 50.445312 -40.492188 50.671875 -41.058594 Z M 50.21875 -37.550781 C 50.21875 -37.210938 49.878906 -35.628906 49.539062 -33.933594 C 48.863281 -31.21875 48.410156 -30.199219 48.523438 -31.105469 C 48.523438 -31.78125 50.21875 -38.117188 50.21875 -37.550781 Z M 11.988281 -54.066406 C 12.328125 -54.40625 12.101562 -53.953125 11.535156 -52.933594 C 11.085938 -52.027344 10.40625 -51.011719 10.292969 -50.785156 C 9.726562 -50.21875 11.3125 -53.273438 11.988281 -54.066406 Z M 4.636719 -40.945312 C 4.75 -41.171875 4.976562 -41.285156 4.976562 -41.058594 C 4.863281 -40.378906 4.296875 -39.246094 4.296875 -39.8125 C 4.296875 -40.152344 4.410156 -40.605469 4.636719 -40.945312 Z M 3.394531 -35.0625 C 3.28125 -34.835938 3.28125 -35.0625 3.28125 -35.515625 C 3.28125 -35.96875 3.28125 -36.195312 3.394531 -35.96875 C 3.507812 -35.742188 3.507812 -35.289062 3.394531 -35.0625 Z M 3.621094 -37.097656 C 3.621094 -37.550781 3.734375 -38.230469 3.84375 -38.570312 C 4.070312 -39.023438 4.183594 -39.136719 4.183594 -38.796875 C 4.183594 -38.457031 4.070312 -37.777344 3.84375 -37.324219 C 3.621094 -36.648438 3.621094 -36.535156 3.621094 -37.097656 Z M 3.957031 -32.800781 L 4.070312 -34.949219 C 4.183594 -36.195312 4.863281 -38.796875 5.542969 -40.832031 C 6.671875 -44.449219 9.5 -50.445312 9.839844 -50.21875 C 9.953125 -50.105469 9.386719 -48.636719 8.597656 -47.050781 C 7.804688 -45.46875 6.558594 -42.640625 5.996094 -40.832031 C 5.429688 -39.023438 4.636719 -36.535156 4.410156 -35.175781 Z M 6.222656 -38.910156 C 7.804688 -44.902344 13.007812 -54.515625 16.851562 -58.929688 C 17.417969 -59.605469 17.078125 -58.929688 15.949219 -57.34375 C 13.6875 -54.179688 10.519531 -48.523438 9.046875 -45.355469 C 8.484375 -44.226562 7.578125 -41.738281 6.898438 -39.8125 C 5.65625 -36.308594 5.316406 -35.855469 6.222656 -38.910156 Z M 15.269531 -23.980469 C 15.15625 -23.414062 15.15625 -23.527344 15.042969 -24.429688 C 15.042969 -25.109375 15.15625 -26.578125 15.382812 -27.710938 C 15.835938 -30.085938 17.984375 -37.4375 18.097656 -37.210938 C 18.210938 -37.097656 17.871094 -35.742188 17.417969 -34.046875 C 16.964844 -32.347656 16.289062 -29.632812 15.949219 -27.9375 C 15.722656 -26.355469 15.382812 -24.542969 15.269531 -23.980469 Z M 16.511719 -21.492188 L 16.175781 -16.964844 L 16.289062 -22.394531 C 16.402344 -26.917969 16.511719 -28.390625 17.304688 -31.332031 C 18.777344 -36.757812 20.359375 -40.71875 22.621094 -45.355469 C 24.542969 -49.089844 27.371094 -53.839844 27.824219 -53.839844 C 27.824219 -53.839844 27.144531 -52.59375 26.128906 -50.898438 C 22.507812 -45.128906 19.566406 -37.777344 17.757812 -30.199219 C 17.191406 -27.710938 16.625 -24.203125 16.511719 -21.492188 Z M 18.324219 -37.890625 C 18.324219 -38.117188 18.4375 -38.457031 18.664062 -38.796875 C 18.777344 -39.023438 19 -39.136719 19 -38.910156 C 19 -38.796875 18.777344 -38.34375 18.664062 -38.003906 C 18.4375 -37.777344 18.324219 -37.664062 18.324219 -37.890625 Z M 18.210938 -25.675781 L 17.984375 -24.882812 L 17.984375 -25.675781 C 17.871094 -28.390625 21.265625 -39.359375 24.089844 -45.355469 C 26.015625 -49.203125 29.179688 -54.40625 30.3125 -55.308594 C 30.652344 -55.535156 29.972656 -54.515625 29.070312 -52.933594 C 24.996094 -46.9375 21.265625 -38.230469 19.339844 -30.539062 C 18.777344 -28.277344 18.210938 -26.015625 18.210938 -25.675781 Z M 20.699219 -22.621094 C 20.585938 -22.28125 20.472656 -22.621094 20.472656 -23.300781 C 20.472656 -23.980469 20.585938 -24.316406 20.699219 -23.980469 C 20.8125 -23.640625 20.8125 -23.074219 20.699219 -22.621094 Z M 21.039062 -24.996094 C 20.925781 -24.769531 20.8125 -24.996094 20.8125 -25.675781 C 20.8125 -26.242188 20.925781 -26.46875 21.039062 -26.128906 C 21.152344 -25.789062 21.152344 -25.222656 21.039062 -24.996094 Z M 21.378906 -27.03125 C 21.265625 -26.917969 21.152344 -27.144531 21.152344 -27.484375 C 21.152344 -27.9375 21.265625 -27.9375 21.378906 -27.710938 C 21.492188 -27.371094 21.492188 -27.144531 21.378906 -27.03125 Z M 21.714844 -28.390625 C 21.601562 -28.277344 21.492188 -28.503906 21.492188 -28.957031 C 21.601562 -29.292969 21.601562 -29.40625 21.714844 -29.179688 C 21.828125 -28.84375 21.828125 -28.503906 21.714844 -28.390625 Z M 36.421875 -10.972656 C 34.496094 -8.03125 31.21875 -4.636719 29.632812 -3.84375 C 28.957031 -3.507812 28.050781 -3.167969 27.371094 -3.054688 C 26.242188 -2.828125 26.128906 -2.828125 25.109375 -4.636719 C 23.980469 -6.558594 22.847656 -9.726562 22.394531 -12.214844 L 22.167969 -13.574219 L 24.089844 -14.136719 C 26.46875 -14.816406 27.9375 -15.835938 27.9375 -16.851562 C 27.9375 -17.304688 27.824219 -17.53125 27.597656 -17.417969 C 27.484375 -17.304688 27.03125 -17.417969 26.804688 -17.644531 C 26.46875 -18.097656 26.128906 -18.097656 24.769531 -17.644531 C 21.601562 -16.738281 21.714844 -16.625 21.941406 -21.039062 C 22.507812 -30.765625 28.84375 -47.390625 34.835938 -55.082031 C 36.421875 -57.117188 36.535156 -57.457031 35.515625 -58.136719 C 35.0625 -58.476562 33.933594 -59.382812 33.140625 -60.058594 C 32.121094 -60.851562 31.21875 -61.417969 30.992188 -61.304688 C 30.652344 -61.191406 30.085938 -61.078125 29.746094 -61.078125 C 28.617188 -61.078125 24.203125 -56.554688 21.828125 -52.933594 C 16.0625 -44.449219 11.421875 -31.21875 11.421875 -23.300781 C 11.421875 -21.941406 11.3125 -20.8125 11.085938 -20.8125 C 10.972656 -20.8125 10.519531 -21.601562 10.066406 -22.621094 C 7.917969 -28.050781 7.804688 -32.121094 9.726562 -37.777344 C 14.589844 -52.027344 25.449219 -65.035156 35.628906 -68.769531 C 37.890625 -69.5625 38.796875 -69.671875 40.945312 -69.5625 C 45.46875 -69.335938 46.375 -68.429688 47.84375 -63.339844 C 48.410156 -60.964844 48.523438 -59.492188 48.636719 -54.179688 C 48.636719 -50.671875 48.410156 -46.714844 48.183594 -45.015625 C 46.035156 -31.894531 41.398438 -18.664062 36.421875 -10.972656 Z M 48.410156 -30.085938 C 48.410156 -29.859375 48.296875 -29.292969 48.070312 -28.84375 C 47.957031 -28.390625 47.84375 -28.390625 47.84375 -28.730469 C 47.84375 -28.957031 47.957031 -29.519531 48.070312 -29.972656 C 48.296875 -30.425781 48.410156 -30.425781 48.410156 -30.085938 Z M 49.089844 -24.429688 C 48.183594 -21.601562 45.695312 -16.0625 45.582031 -16.511719 C 45.582031 -16.625 46.148438 -17.984375 46.824219 -19.566406 C 47.957031 -22.28125 49.765625 -27.597656 51.238281 -32.6875 C 51.691406 -33.933594 52.027344 -34.722656 52.027344 -34.382812 C 52.027344 -33.707031 50.558594 -28.390625 49.089844 -24.429688 Z M 52.253906 -35.289062 C 52.140625 -35.175781 52.027344 -35.402344 52.140625 -35.742188 C 52.140625 -36.195312 52.140625 -36.195312 52.253906 -35.96875 C 52.367188 -35.742188 52.367188 -35.402344 52.253906 -35.289062 Z M 47.390625 -23.300781 C 46.601562 -21.265625 45.808594 -19.453125 45.695312 -19.339844 C 45.582031 -19.226562 45.582031 -19.453125 45.695312 -19.90625 C 47.957031 -25.789062 50.558594 -35.175781 51.691406 -41.511719 C 52.140625 -43.660156 52.367188 -44.5625 52.367188 -43.773438 C 52.480469 -40.378906 49.992188 -30.3125 47.390625 -23.300781 Z M 52.707031 -45.808594 C 52.59375 -45.582031 52.480469 -45.808594 52.480469 -46.261719 C 52.480469 -46.824219 52.59375 -47.050781 52.707031 -46.714844 C 52.707031 -46.488281 52.707031 -46.148438 52.707031 -45.808594 Z M 54.742188 -34.949219 C 54.628906 -34.835938 54.628906 -34.949219 54.628906 -35.402344 C 54.628906 -35.742188 54.742188 -35.855469 54.855469 -35.628906 C 54.96875 -35.289062 54.855469 -35.0625 54.742188 -34.949219 Z M 54.742188 -34.949219 "/></g></g></g><g fill="#000000" fill-opacity="1"><g transform="translate(439.375633, 442.520947)"><g><path d="M 5.316406 -7.464844 C 7.578125 -3.167969 13.007812 1.019531 17.304688 1.808594 C 18.4375 2.035156 20.585938 2.601562 22.054688 3.054688 C 26.804688 4.523438 30.085938 4.070312 33.59375 1.46875 C 38.117188 -1.808594 43.207031 -10.972656 45.46875 -19.679688 C 46.035156 -21.828125 46.824219 -24.542969 47.164062 -25.5625 C 47.84375 -27.484375 47.730469 -28.84375 46.9375 -28.277344 C 46.714844 -28.164062 46.488281 -28.277344 46.488281 -28.503906 C 46.261719 -29.292969 45.242188 -28.277344 43.546875 -25.5625 C 42.640625 -24.203125 41.398438 -22.621094 40.71875 -21.941406 C 40.039062 -21.265625 37.4375 -18.210938 34.835938 -15.269531 C 32.347656 -12.214844 29.179688 -8.933594 27.9375 -7.917969 C 25.789062 -6.222656 22.054688 -4.070312 21.152344 -3.957031 C 20.472656 -3.957031 17.757812 -8.144531 16.625 -10.632812 C 13.574219 -17.757812 12.667969 -30.539062 14.589844 -39.925781 C 17.644531 -55.308594 23.753906 -66.621094 30.3125 -69.109375 C 32.347656 -69.898438 34.722656 -70.011719 35.742188 -69.449219 C 37.4375 -68.542969 39.246094 -62.660156 40.492188 -54.628906 C 40.832031 -51.578125 41.511719 -48.410156 41.847656 -47.617188 C 42.527344 -46.035156 44.675781 -44.113281 45.695312 -44.335938 C 46.488281 -44.449219 47.503906 -46.261719 48.183594 -48.636719 C 48.863281 -51.238281 48.863281 -57.796875 48.183594 -60.738281 C 46.9375 -65.828125 43.09375 -71.484375 38.910156 -74.3125 C 38.117188 -74.875 36.535156 -76.121094 35.515625 -77.027344 C 30.878906 -81.324219 24.882812 -82.003906 19.113281 -78.835938 C 16.851562 -77.589844 13.460938 -74.199219 11.421875 -71.144531 C 6.222656 -63.113281 1.921875 -50.445312 0.453125 -38.796875 C 0 -34.382812 0.226562 -25.222656 1.019531 -20.585938 C 1.808594 -16.402344 3.734375 -10.40625 5.316406 -7.464844 Z M 46.261719 -27.144531 C 46.488281 -26.917969 46.601562 -26.578125 46.488281 -26.46875 C 46.375 -26.355469 46.148438 -26.578125 46.035156 -26.917969 C 45.808594 -27.371094 45.921875 -27.484375 46.261719 -27.144531 Z M 45.355469 -26.015625 C 45.46875 -26.242188 46.148438 -26.128906 46.148438 -25.789062 C 46.148438 -25.789062 45.921875 -25.675781 45.695312 -25.675781 C 45.355469 -25.675781 45.242188 -25.789062 45.355469 -26.015625 Z M 45.355469 -24.65625 C 45.46875 -24.996094 45.582031 -25.109375 45.695312 -24.996094 C 45.808594 -24.882812 45.695312 -24.65625 45.46875 -24.429688 C 45.128906 -24.089844 45.128906 -24.089844 45.355469 -24.65625 Z M 8.597656 -37.890625 C 8.484375 -37.777344 8.484375 -38.003906 8.484375 -38.34375 C 8.484375 -38.796875 8.597656 -38.910156 8.710938 -38.570312 C 8.824219 -38.34375 8.824219 -38.003906 8.597656 -37.890625 Z M 16.402344 -53.046875 C 15.269531 -50.21875 13.574219 -43.660156 12.78125 -39.359375 C 12.328125 -37.210938 11.988281 -34.835938 11.875 -34.160156 L 11.761719 -32.914062 L 11.761719 -34.160156 C 11.648438 -35.855469 12.328125 -39.925781 13.460938 -44.675781 C 14.476562 -48.863281 16.625 -55.195312 16.964844 -54.96875 C 16.964844 -54.855469 16.738281 -53.953125 16.402344 -53.046875 Z M 16.738281 -60.738281 C 16.402344 -60.398438 16.402344 -60.398438 16.511719 -60.851562 C 16.625 -61.304688 16.851562 -61.417969 16.964844 -61.304688 C 17.078125 -61.191406 16.964844 -60.964844 16.738281 -60.738281 Z M 19.566406 -68.316406 C 20.8125 -69.785156 20.699219 -69.449219 19 -66.621094 C 15.496094 -61.191406 12.328125 -53.273438 10.40625 -45.695312 C 9.726562 -43.09375 9.160156 -40.492188 9.046875 -39.925781 L 8.933594 -39.023438 L 8.824219 -39.925781 C 8.824219 -41.398438 10.066406 -47.277344 11.421875 -51.691406 C 13.6875 -58.703125 16.851562 -65.261719 19.566406 -68.316406 Z M 17.984375 -69.109375 C 18.324219 -69.335938 17.984375 -68.769531 17.304688 -67.75 C 13.914062 -63 9.953125 -52.707031 8.03125 -43.320312 C 6.898438 -38.230469 6.785156 -37.550781 6.785156 -29.746094 C 6.785156 -25.335938 6.785156 -21.601562 6.785156 -21.601562 C 6.445312 -21.601562 6.109375 -28.164062 6.109375 -32.234375 C 6.222656 -39.246094 7.464844 -46.375 10.066406 -54.179688 C 11.988281 -59.832031 16.0625 -67.523438 17.984375 -69.109375 Z M 8.03125 -52.367188 C 9.273438 -56.441406 13.347656 -65.714844 13.460938 -64.695312 C 13.460938 -64.472656 13.121094 -63.679688 12.667969 -62.886719 C 10.40625 -58.25 7.351562 -48.863281 6.109375 -42.300781 C 5.769531 -40.492188 5.316406 -36.984375 4.976562 -34.496094 C 4.636719 -30.992188 4.523438 -30.539062 4.523438 -32.347656 C 4.410156 -36.648438 6.109375 -46.375 8.03125 -52.367188 Z M 2.714844 -43.773438 C 2.714844 -44.226562 2.828125 -44.226562 2.941406 -44 C 3.054688 -43.660156 3.054688 -43.433594 2.941406 -43.320312 C 2.828125 -43.207031 2.714844 -43.433594 2.714844 -43.773438 Z M 2.714844 -43.773438 "/></g></g></g><g fill="#000000" fill-opacity="1"><g transform="translate(489.368828, 442.520947)"><g><path d="M 11.421875 -26.691406 C 11.988281 -26.691406 12.101562 -26.46875 11.875 -25.675781 C 10.519531 -19 10.066406 -16.0625 10.066406 -11.761719 C 10.066406 -7.464844 10.179688 -6.898438 10.972656 -5.089844 C 11.988281 -2.828125 13.800781 -1.132812 15.15625 -1.132812 C 15.609375 -1.132812 15.949219 -1.019531 15.949219 -0.792969 C 15.949219 -0.226562 17.304688 -0.339844 17.757812 -0.90625 C 18.324219 -1.582031 18.664062 -2.828125 19.792969 -7.804688 C 20.585938 -11.761719 24.769531 -27.371094 24.996094 -27.484375 C 25.109375 -27.597656 27.144531 -28.277344 29.519531 -29.179688 C 34.496094 -30.765625 34.160156 -30.878906 36.648438 -28.617188 C 38.230469 -27.144531 42.1875 -22.507812 44.675781 -19.113281 C 48.070312 -14.589844 49.425781 -12.101562 49.425781 -10.519531 C 49.425781 -8.824219 50.558594 -5.542969 51.691406 -4.410156 C 52.140625 -3.84375 52.707031 -3.621094 53.273438 -3.734375 C 53.726562 -3.84375 54.066406 -3.734375 54.066406 -3.621094 C 54.066406 -3.394531 54.179688 -3.28125 54.40625 -3.394531 C 54.515625 -3.507812 54.855469 -3.28125 54.96875 -2.714844 C 55.421875 -1.019531 58.476562 -2.148438 59.71875 -4.410156 C 60.171875 -5.316406 63 -21.152344 64.472656 -31.332031 C 64.921875 -33.820312 65.261719 -38.117188 65.488281 -40.945312 C 65.714844 -45.808594 65.714844 -46.148438 66.507812 -46.601562 C 67.976562 -47.617188 74.199219 -49.992188 76.460938 -50.445312 C 79.515625 -51.011719 81.550781 -51.578125 81.664062 -52.027344 C 81.777344 -52.59375 79.628906 -55.195312 78.15625 -56.328125 C 77.140625 -57.003906 76.574219 -57.230469 74.539062 -57.230469 C 73.292969 -57.230469 71.144531 -56.894531 69.671875 -56.667969 C 64.808594 -55.535156 65.488281 -55.082031 64.808594 -59.945312 C 63.226562 -70.464844 60.738281 -75.554688 55.761719 -78.722656 C 54.855469 -79.175781 53.726562 -80.191406 53.046875 -80.984375 C 50.332031 -84.152344 46.488281 -84.605469 42.527344 -82.453125 C 39.8125 -81.097656 33.820312 -74.988281 30.992188 -70.917969 C 26.917969 -64.921875 22.167969 -55.761719 18.4375 -46.488281 C 17.53125 -44.226562 16.964844 -43.09375 16.625 -43.207031 C 16.402344 -43.207031 14.589844 -43.433594 12.667969 -43.433594 C 9.953125 -43.546875 8.710938 -43.433594 7.238281 -42.980469 C 2.035156 -41.398438 0 -38.003906 1.921875 -34.160156 C 3.507812 -31.105469 9.160156 -26.691406 11.421875 -26.691406 Z M 15.496094 -5.882812 C 15.382812 -5.769531 15.269531 -5.996094 15.269531 -6.332031 C 15.269531 -6.785156 15.382812 -6.898438 15.496094 -6.558594 C 15.609375 -6.332031 15.609375 -5.996094 15.496094 -5.882812 Z M 18.777344 -22.394531 C 18.210938 -20.246094 17.417969 -16.625 16.851562 -14.25 C 16.402344 -11.875 15.949219 -9.5 15.835938 -8.824219 C 15.722656 -7.917969 15.722656 -7.917969 15.722656 -9.046875 C 15.609375 -10.632812 16.402344 -14.929688 17.644531 -19.90625 C 19 -25.449219 19.226562 -26.242188 19.566406 -26.242188 C 19.679688 -26.242188 19.339844 -24.542969 18.777344 -22.394531 Z M 22.960938 -36.421875 C 22.847656 -35.96875 22.621094 -35.628906 22.394531 -35.628906 C 22.054688 -35.628906 22.28125 -36.984375 22.621094 -37.4375 C 22.960938 -37.777344 23.074219 -37.210938 22.960938 -36.421875 Z M 27.144531 -45.582031 C 26.804688 -45.242188 26.804688 -45.242188 26.917969 -45.808594 C 27.144531 -46.148438 27.257812 -46.375 27.371094 -46.261719 C 27.484375 -46.148438 27.371094 -45.808594 27.144531 -45.582031 Z M 50.785156 -20.019531 C 50.445312 -17.644531 49.992188 -15.609375 49.992188 -15.609375 C 49.992188 -15.609375 49.089844 -16.625 48.070312 -17.984375 C 45.582031 -21.378906 42.527344 -24.882812 39.136719 -28.503906 L 36.082031 -31.558594 L 44.226562 -35.628906 C 48.75 -37.890625 52.59375 -39.8125 52.820312 -39.925781 C 53.273438 -40.152344 52.140625 -27.597656 50.785156 -20.019531 Z M 54.855469 -4.410156 C 54.855469 -4.636719 55.082031 -5.996094 55.535156 -7.464844 C 55.988281 -9.046875 56.214844 -9.613281 56.214844 -8.824219 C 56.214844 -7.804688 54.855469 -3.394531 54.855469 -4.410156 Z M 56.441406 -11.085938 C 56.328125 -10.859375 56.328125 -11.085938 56.328125 -11.535156 C 56.328125 -12.101562 56.328125 -12.214844 56.441406 -11.988281 C 56.554688 -11.761719 56.554688 -11.3125 56.441406 -11.085938 Z M 56.78125 -12.894531 C 56.78125 -12.667969 56.667969 -12.894531 56.667969 -13.347656 C 56.667969 -13.800781 56.78125 -14.023438 56.78125 -13.800781 C 56.894531 -13.574219 56.894531 -13.121094 56.78125 -12.894531 Z M 57.117188 -15.269531 C 57.003906 -15.15625 57.003906 -15.382812 57.003906 -15.722656 C 57.003906 -16.175781 57.117188 -16.175781 57.230469 -15.949219 C 57.34375 -15.722656 57.34375 -15.382812 57.117188 -15.269531 Z M 57.570312 -17.417969 C 57.457031 -17.304688 57.34375 -17.53125 57.34375 -17.871094 C 57.34375 -18.324219 57.457031 -18.324219 57.570312 -18.097656 C 57.683594 -17.871094 57.683594 -17.53125 57.570312 -17.417969 Z M 61.984375 -26.804688 C 61.984375 -27.257812 62.09375 -27.371094 62.207031 -27.03125 C 62.320312 -26.804688 62.320312 -26.46875 62.207031 -26.355469 C 62.09375 -26.242188 61.984375 -26.46875 61.984375 -26.804688 Z M 61.871094 -25.109375 C 61.984375 -24.769531 61.984375 -24.316406 61.871094 -24.089844 C 61.757812 -23.753906 61.644531 -24.089844 61.644531 -24.65625 C 61.757812 -25.222656 61.757812 -25.449219 61.871094 -25.109375 Z M 60.738281 -19.792969 C 61.078125 -21.714844 61.417969 -23.300781 61.53125 -23.300781 C 61.644531 -23.1875 61.078125 -19.453125 60.398438 -14.929688 C 59.605469 -10.40625 58.929688 -6.558594 58.703125 -6.445312 C 58.476562 -6.109375 59.15625 -10.292969 60.738281 -19.792969 Z M 58.589844 -35.96875 C 58.25 -32.007812 57.570312 -26.46875 55.988281 -16.738281 C 55.308594 -12.441406 54.628906 -8.484375 54.40625 -7.917969 L 54.179688 -7.011719 L 54.066406 -8.144531 C 54.066406 -8.710938 54.628906 -12.554688 55.308594 -16.738281 C 56.101562 -20.925781 57.117188 -27.597656 57.683594 -31.667969 C 58.363281 -36.421875 58.703125 -38.003906 58.589844 -35.96875 Z M 56.441406 -31.558594 C 56.554688 -31.21875 56.554688 -30.765625 56.441406 -30.539062 C 56.328125 -30.3125 56.328125 -30.539062 56.328125 -31.105469 C 56.328125 -31.78125 56.441406 -31.894531 56.441406 -31.558594 Z M 55.875 -27.597656 L 56.214844 -29.746094 L 56.101562 -27.371094 C 55.988281 -26.128906 55.308594 -21.714844 54.742188 -17.53125 C 54.066406 -13.460938 53.386719 -10.066406 53.273438 -10.066406 C 53.160156 -10.066406 53.046875 -10.519531 53.160156 -11.085938 C 53.273438 -11.648438 53.839844 -15.042969 54.40625 -18.777344 C 54.96875 -22.394531 55.648438 -26.355469 55.875 -27.597656 Z M 46.375 -69.335938 C 49.089844 -71.597656 51.125 -72.839844 51.578125 -72.386719 C 52.707031 -71.371094 54.179688 -54.179688 53.5 -51.804688 C 53.160156 -50.898438 49.316406 -48.75 31.894531 -40.039062 C 29.179688 -38.570312 28.617188 -38.34375 28.617188 -38.683594 C 28.617188 -38.683594 29.40625 -40.945312 30.539062 -43.660156 C 35.289062 -55.535156 40.832031 -64.582031 46.375 -69.335938 Z M 38.683594 -69.109375 L 39.8125 -70.351562 L 38.796875 -68.996094 C 34.046875 -62.207031 29.859375 -54.40625 26.242188 -45.355469 C 23.980469 -39.699219 23.867188 -39.472656 23.867188 -40.492188 C 23.867188 -41.511719 27.710938 -50.558594 30.425781 -55.988281 C 32.914062 -60.964844 36.535156 -66.734375 38.683594 -69.109375 Z M 34.835938 -66.507812 C 34.949219 -66.507812 34.722656 -66.054688 34.382812 -65.601562 C 31.894531 -61.984375 26.578125 -51.125 23.980469 -44.335938 C 23.300781 -42.527344 22.621094 -41.058594 22.394531 -41.058594 C 21.941406 -41.058594 21.941406 -40.832031 23.753906 -45.355469 C 26.917969 -53.273438 33.933594 -66.507812 34.835938 -66.507812 Z M 25.109375 -51.578125 C 25.335938 -51.914062 25.449219 -52.140625 25.5625 -52.027344 C 25.675781 -51.914062 25.5625 -51.578125 25.335938 -51.351562 C 24.996094 -51.011719 24.996094 -51.011719 25.109375 -51.578125 Z M 24.429688 -49.992188 C 24.65625 -50.558594 24.882812 -50.785156 24.882812 -50.558594 C 24.882812 -50.332031 24.65625 -49.765625 24.429688 -49.316406 C 24.089844 -48.75 23.867188 -48.523438 23.867188 -48.75 C 23.867188 -48.976562 24.089844 -49.539062 24.429688 -49.992188 Z M 23.300781 -47.503906 C 23.640625 -47.957031 23.867188 -48.183594 23.867188 -48.070312 C 23.867188 -47.84375 23.640625 -47.277344 23.300781 -46.824219 C 23.074219 -46.261719 22.847656 -46.035156 22.847656 -46.261719 C 22.847656 -46.488281 23.074219 -47.050781 23.300781 -47.503906 Z M 21.714844 -43.320312 C 22.167969 -44.113281 22.394531 -44.449219 22.167969 -43.886719 C 21.941406 -42.867188 21.039062 -41.058594 21.039062 -41.625 C 21.039062 -41.738281 21.378906 -42.527344 21.714844 -43.320312 Z M 20.8125 -35.855469 C 20.585938 -35.175781 20.246094 -34.609375 20.132812 -34.609375 C 19.792969 -34.609375 20.246094 -36.421875 20.8125 -37.4375 C 21.492188 -38.683594 21.492188 -37.4375 20.8125 -35.855469 Z M 19 -36.082031 C 19.90625 -38.570312 19.90625 -38.683594 20.132812 -38.457031 C 20.246094 -38.34375 19.90625 -37.4375 19.566406 -36.308594 C 18.4375 -33.480469 18.097656 -33.253906 19 -36.082031 Z M 17.078125 -24.996094 C 17.304688 -25.675781 17.53125 -26.242188 17.757812 -26.242188 C 17.871094 -26.242188 17.644531 -24.769531 17.191406 -22.960938 C 16.738281 -21.152344 16.0625 -17.984375 15.609375 -15.949219 C 15.15625 -13.914062 14.703125 -10.40625 14.589844 -8.03125 L 14.25 -3.84375 L 14.25 -7.691406 C 14.136719 -12.101562 14.929688 -16.625 17.078125 -24.996094 Z M 16.289062 -25.902344 C 16.402344 -25.902344 16.289062 -24.769531 15.949219 -23.527344 C 15.609375 -22.167969 14.929688 -19.339844 14.589844 -17.304688 C 14.136719 -15.269531 13.6875 -12.101562 13.460938 -10.519531 L 13.121094 -7.464844 L 13.234375 -10.632812 C 13.347656 -13.347656 14.136719 -17.53125 15.835938 -25.109375 C 15.949219 -25.5625 16.175781 -25.902344 16.289062 -25.902344 Z M 9.839844 -38.230469 C 11.761719 -39.136719 15.609375 -39.699219 15.609375 -39.023438 C 15.609375 -38.796875 15.15625 -37.324219 14.589844 -35.628906 C 13.800781 -33.140625 13.460938 -32.574219 12.667969 -32.347656 C 11.421875 -32.007812 8.03125 -32.007812 7.125 -32.460938 C 4.636719 -33.367188 6.222656 -36.648438 9.839844 -38.230469 Z M 4.070312 -38.117188 C 4.296875 -38.570312 4.636719 -38.910156 4.636719 -38.910156 C 4.75 -38.910156 4.636719 -38.570312 4.523438 -38.117188 C 4.296875 -37.777344 3.957031 -37.4375 3.957031 -37.4375 C 3.84375 -37.4375 3.957031 -37.777344 4.070312 -38.117188 Z M 4.070312 -38.117188 "/></g></g></g><g fill="#000000" fill-opacity="1"><g transform="translate(572.276102, 442.520947)"><g><path d="M 89.582031 -0.113281 C 89.582031 -0.339844 90.03125 -0.566406 90.484375 -0.679688 C 92.40625 -1.132812 92.40625 -3.28125 90.484375 -3.394531 C 90.144531 -3.394531 89.46875 -3.621094 89.015625 -3.84375 C 88.675781 -4.183594 87.65625 -4.636719 86.867188 -4.863281 C 81.097656 -6.332031 66.734375 -15.269531 58.476562 -22.394531 C 53.386719 -26.804688 53.5 -26.578125 55.988281 -27.257812 C 65.828125 -30.085938 83.472656 -43.660156 89.808594 -53.160156 C 92.40625 -57.003906 93.3125 -59.71875 93.3125 -63.339844 C 93.3125 -66.621094 92.070312 -69.5625 89.582031 -72.726562 C 88.675781 -73.859375 87.65625 -75.328125 87.207031 -76.121094 C 86.1875 -78.15625 83.246094 -80.984375 80.871094 -82.117188 C 76.574219 -84.265625 73.972656 -84.71875 66.054688 -84.71875 C 59.945312 -84.71875 58.25 -84.605469 54.742188 -83.925781 C 35.96875 -80.078125 17.871094 -70.691406 6.222656 -58.476562 C 2.261719 -54.40625 0.453125 -51.464844 0.226562 -48.523438 C 0 -46.824219 0.113281 -46.261719 1.019531 -44.675781 C 1.582031 -43.660156 2.714844 -42.300781 3.394531 -41.625 C 4.183594 -41.058594 5.429688 -39.925781 6.222656 -39.136719 C 8.257812 -37.210938 10.179688 -36.421875 13.007812 -36.421875 C 15.609375 -36.535156 16.964844 -36.757812 17.078125 -37.324219 C 17.078125 -37.550781 15.722656 -38.457031 14.023438 -39.246094 C 12.328125 -40.152344 10.632812 -41.171875 10.066406 -41.511719 L 9.273438 -42.074219 L 10.292969 -43.773438 C 11.535156 -45.921875 16.511719 -50.898438 20.019531 -53.726562 C 26.355469 -58.703125 36.308594 -64.472656 43.207031 -67.183594 C 57.570312 -72.726562 70.917969 -74.085938 80.871094 -71.144531 C 83.472656 -70.351562 83.8125 -69.785156 83.359375 -68.089844 C 81.550781 -61.191406 72.839844 -50.785156 62.886719 -43.660156 C 58.816406 -40.832031 46.824219 -33.480469 46.148438 -33.480469 C 45.921875 -33.480469 45.695312 -33.820312 45.695312 -34.160156 C 45.695312 -34.949219 47.84375 -44.449219 48.863281 -48.070312 C 50.785156 -55.082031 51.578125 -60.964844 50.332031 -60.285156 C 50.21875 -60.171875 49.878906 -60.511719 49.652344 -60.964844 C 49.316406 -61.871094 48.183594 -62.433594 47.617188 -61.871094 C 47.390625 -61.644531 47.277344 -61.757812 47.277344 -62.207031 C 47.277344 -62.660156 47.164062 -62.773438 46.714844 -62.773438 C 46.261719 -62.660156 46.035156 -62.886719 46.035156 -63.226562 C 46.035156 -65.261719 43.433594 -66.167969 41.738281 -64.808594 C 39.585938 -63.226562 37.097656 -56.78125 34.609375 -47.390625 C 31.78125 -35.96875 30.652344 -27.03125 31.332031 -20.699219 C 32.121094 -13.007812 33.820312 -8.371094 37.097656 -5.316406 C 38.796875 -3.621094 43.886719 -0.792969 45.242188 -0.792969 C 46.261719 -0.792969 46.714844 -1.695312 46.148438 -2.375 C 46.035156 -2.601562 45.695312 -3.394531 45.582031 -4.070312 C 45.46875 -4.75 45.128906 -6.222656 44.789062 -7.238281 C 44.226562 -9.160156 43.546875 -20.246094 44 -20.246094 C 44.113281 -20.246094 45.128906 -19 46.261719 -17.53125 C 53.160156 -8.710938 67.636719 0.339844 77.929688 2.261719 C 79.289062 2.488281 80.53125 2.714844 80.644531 2.714844 C 80.757812 2.714844 82.117188 2.601562 83.585938 2.261719 C 86.527344 1.695312 89.582031 0.566406 89.582031 -0.113281 Z M 3.734375 -47.730469 C 3.734375 -47.957031 3.957031 -48.523438 4.183594 -48.976562 C 4.523438 -49.539062 4.75 -49.765625 4.75 -49.539062 C 4.75 -49.316406 4.523438 -48.75 4.183594 -48.296875 C 3.957031 -47.730469 3.734375 -47.503906 3.734375 -47.730469 Z M 4.523438 -46.9375 C 4.863281 -47.730469 6.898438 -51.125 7.125 -51.125 C 7.238281 -51.125 6.671875 -49.992188 5.996094 -48.636719 C 4.636719 -46.148438 4.070312 -45.46875 4.523438 -46.9375 Z M 8.933594 -50.21875 C 8.257812 -49.316406 7.351562 -47.730469 6.898438 -46.9375 C 5.996094 -45.242188 5.65625 -44.902344 5.996094 -46.261719 C 6.445312 -47.730469 7.125 -48.863281 8.710938 -50.445312 L 10.179688 -52.027344 Z M 80.757812 -48.296875 C 80.417969 -47.84375 80.078125 -47.503906 79.964844 -47.503906 C 79.851562 -47.503906 80.078125 -47.84375 80.417969 -48.296875 C 80.757812 -48.636719 81.097656 -48.976562 81.210938 -48.976562 C 81.324219 -48.976562 81.097656 -48.636719 80.757812 -48.296875 Z M 87.429688 -53.160156 C 88.222656 -54.40625 89.015625 -55.421875 89.128906 -55.421875 C 89.355469 -55.421875 87.996094 -53.046875 86.640625 -51.238281 C 85.847656 -50.21875 85.054688 -49.316406 84.828125 -49.316406 C 84.605469 -49.316406 84.828125 -49.652344 85.28125 -50.105469 C 85.621094 -50.558594 86.640625 -51.914062 87.429688 -53.160156 Z M 78.609375 -52.367188 C 79.964844 -53.953125 81.890625 -56.441406 82.679688 -57.683594 C 83.585938 -59.042969 84.378906 -60.058594 84.492188 -59.945312 C 84.605469 -59.832031 83.925781 -58.703125 83.019531 -57.34375 C 82.230469 -56.101562 80.304688 -53.726562 78.835938 -52.253906 L 76.234375 -49.539062 Z M 76.800781 -48.75 C 80.53125 -52.707031 84.265625 -57.230469 85.621094 -59.71875 C 86.753906 -61.757812 86.980469 -61.304688 85.847656 -59.15625 C 84.378906 -56.328125 81.777344 -52.933594 77.929688 -49.316406 C 73.179688 -44.5625 72.273438 -44.226562 76.800781 -48.75 Z M 72.273438 -42.414062 C 74.875 -44.5625 82.566406 -52.253906 84.378906 -54.40625 C 85.621094 -55.875 85.621094 -55.875 85.054688 -54.742188 C 84.71875 -54.066406 82.230469 -51.351562 79.738281 -48.863281 C 77.140625 -46.261719 73.972656 -43.320312 72.726562 -42.414062 L 70.351562 -40.605469 Z M 47.730469 -51.464844 C 47.84375 -52.253906 48.070312 -53.046875 48.296875 -53.5 C 48.523438 -53.953125 48.523438 -53.839844 48.410156 -52.933594 C 48.296875 -52.253906 47.957031 -51.351562 47.84375 -51.011719 C 47.617188 -50.445312 47.617188 -50.671875 47.730469 -51.464844 Z M 35.515625 -23.1875 C 35.402344 -22.847656 35.402344 -23.1875 35.402344 -23.867188 C 35.402344 -24.542969 35.402344 -24.769531 35.515625 -24.429688 C 35.628906 -24.089844 35.628906 -23.527344 35.515625 -23.1875 Z M 35.96875 -29.179688 C 35.515625 -29.179688 35.515625 -29.070312 36.648438 -35.742188 C 37.890625 -42.1875 39.359375 -48.410156 41.058594 -53.5 C 42.074219 -56.894531 44.335938 -62.09375 44.5625 -61.871094 C 44.5625 -61.757812 44 -60.058594 43.207031 -58.136719 C 40.605469 -51.351562 38.34375 -42.867188 37.097656 -34.496094 C 36.535156 -31.558594 36.082031 -29.179688 35.96875 -29.179688 Z M 36.757812 -21.714844 C 36.757812 -23.414062 36.871094 -24.542969 37.097656 -24.542969 C 37.324219 -24.542969 37.4375 -23.753906 37.4375 -22.621094 C 37.324219 -19.339844 36.757812 -18.664062 36.757812 -21.714844 Z M 37.4375 -30.652344 C 37.4375 -32.121094 39.136719 -40.945312 40.152344 -45.015625 C 42.074219 -52.707031 45.242188 -61.984375 45.582031 -60.964844 C 45.695312 -60.738281 45.46875 -59.71875 45.015625 -58.703125 C 42.867188 -53.160156 39.925781 -42.074219 38.683594 -34.382812 C 38.117188 -30.652344 37.4375 -28.730469 37.4375 -30.652344 Z M 42.1875 -44.5625 C 42.1875 -44.902344 42.300781 -45.015625 42.414062 -44.789062 C 42.527344 -44.449219 42.414062 -44.226562 42.300781 -44.113281 C 42.1875 -43.886719 42.1875 -44.113281 42.1875 -44.5625 Z M 42.414062 -21.714844 C 42.300781 -21.378906 42.1875 -21.714844 42.1875 -22.394531 C 42.1875 -23.074219 42.300781 -23.414062 42.414062 -23.074219 C 42.414062 -22.621094 42.414062 -22.054688 42.414062 -21.714844 Z M 43.546875 -32.6875 C 42.980469 -32.121094 45.355469 -43.207031 46.714844 -47.957031 C 47.957031 -51.804688 47.617188 -49.878906 46.148438 -43.886719 C 45.355469 -40.832031 44.5625 -37.210938 44.226562 -35.742188 C 44 -34.160156 43.660156 -32.914062 43.546875 -32.6875 Z M 48.976562 -25.449219 C 49.089844 -25.5625 49.539062 -25.109375 49.992188 -24.542969 C 50.445312 -23.980469 50.671875 -23.527344 50.671875 -23.527344 C 50.332031 -23.527344 48.863281 -25.222656 48.976562 -25.449219 Z M 61.078125 -9.839844 C 60.625 -9.839844 55.421875 -14.023438 52.59375 -16.738281 C 49.652344 -19.679688 46.488281 -23.527344 46.488281 -24.316406 C 46.488281 -24.542969 47.050781 -23.867188 47.84375 -22.847656 C 51.125 -18.550781 56.554688 -13.121094 60.511719 -10.40625 C 60.964844 -10.179688 61.304688 -9.839844 61.078125 -9.839844 Z M 64.246094 -9.273438 C 60.738281 -11.535156 56.78125 -14.589844 52.820312 -18.324219 C 49.765625 -21.265625 46.9375 -24.769531 47.277344 -25.222656 C 47.390625 -25.335938 47.84375 -24.996094 48.183594 -24.542969 C 51.238281 -20.132812 58.476562 -13.460938 64.921875 -9.273438 C 66.167969 -8.484375 67.296875 -7.691406 67.410156 -7.578125 C 68.429688 -6.785156 67.070312 -7.464844 64.246094 -9.273438 Z M 64.246094 -9.273438 "/></g></g></g><g fill="#000000" fill-opacity="1"><g transform="translate(666.720258, 442.520947)"><g><path d="M 5.203125 -36.535156 C 7.238281 -35.402344 7.804688 -35.289062 9.613281 -35.402344 C 10.746094 -35.402344 11.648438 -35.628906 11.761719 -35.855469 C 11.875 -35.96875 11.085938 -36.535156 9.953125 -36.871094 C 8.824219 -37.324219 8.03125 -37.890625 8.03125 -38.230469 C 7.804688 -39.246094 14.023438 -45.128906 17.644531 -47.617188 C 22.960938 -51.125 37.324219 -58.136719 38.003906 -57.457031 C 38.117188 -57.34375 37.890625 -56.214844 37.4375 -54.96875 C 36.082031 -50.445312 33.707031 -39.925781 33.253906 -35.96875 C 33.027344 -33.933594 32.914062 -33.820312 30.765625 -32.234375 C 28.164062 -30.3125 25.5625 -27.597656 25.5625 -26.691406 C 25.5625 -25.789062 27.144531 -24.316406 28.050781 -24.542969 C 28.390625 -24.65625 28.730469 -24.65625 28.730469 -24.429688 C 28.730469 -24.203125 28.957031 -24.203125 29.070312 -24.316406 C 29.292969 -24.429688 29.519531 -24.203125 29.632812 -23.753906 C 29.746094 -23.074219 29.972656 -22.960938 31.105469 -23.074219 C 32.347656 -23.300781 32.347656 -23.300781 32.574219 -21.601562 C 33.820312 -10.972656 35.96875 -6.332031 41.738281 -2.035156 C 42.527344 -1.582031 44.226562 -0.679688 45.582031 -0.226562 C 46.9375 0.226562 48.636719 0.90625 49.425781 1.132812 C 51.125 1.808594 53.160156 1.921875 55.195312 1.355469 C 56.894531 0.90625 61.078125 -3.28125 62.773438 -6.222656 C 66.734375 -13.121094 67.636719 -14.816406 67.410156 -15.15625 C 67.296875 -15.382812 67.070312 -15.382812 66.847656 -15.269531 C 66.734375 -15.269531 66.507812 -15.269531 66.28125 -15.496094 C 65.828125 -16.402344 64.582031 -15.496094 59.382812 -10.40625 C 53.726562 -4.863281 51.125 -2.941406 49.765625 -3.394531 C 48.183594 -3.957031 46.601562 -8.257812 46.035156 -13.460938 C 45.582031 -16.964844 45.808594 -26.128906 46.375 -30.425781 L 46.601562 -32.234375 L 50.671875 -34.046875 C 52.933594 -35.0625 56.441406 -36.535156 58.476562 -37.210938 C 60.398438 -37.890625 62.886719 -38.910156 64.019531 -39.359375 C 65.035156 -39.925781 66.394531 -40.378906 66.847656 -40.378906 C 68.203125 -40.605469 68.089844 -41.285156 66.507812 -42.300781 C 65.035156 -43.207031 64.582031 -43.320312 60.964844 -43.320312 C 57.34375 -43.320312 56.667969 -43.207031 52.707031 -41.960938 C 50.332031 -41.285156 48.410156 -40.71875 48.296875 -40.71875 C 48.296875 -40.832031 48.636719 -42.414062 49.089844 -44.335938 C 51.238281 -52.707031 51.804688 -60.058594 50.558594 -60.964844 C 49.765625 -61.644531 49.652344 -61.53125 53.726562 -62.546875 C 60.058594 -64.132812 68.089844 -65.375 74.085938 -65.714844 C 78.269531 -65.941406 82.566406 -65.488281 85.621094 -64.472656 C 86.640625 -64.132812 88.335938 -63.679688 89.355469 -63.566406 C 91.050781 -63.339844 91.277344 -63.339844 91.390625 -64.019531 C 91.617188 -64.921875 90.597656 -66.734375 89.242188 -67.523438 C 88.675781 -67.863281 87.542969 -68.769531 86.753906 -69.5625 C 84.828125 -71.257812 82.339844 -72.386719 78.496094 -73.40625 C 76.121094 -74.085938 74.761719 -74.199219 69.898438 -74.199219 C 56.441406 -74.3125 38.117188 -69.5625 22.847656 -62.207031 C 14.25 -58.136719 4.636719 -50.332031 2.261719 -45.46875 C 0 -41.058594 0.679688 -39.136719 5.203125 -36.535156 Z M 37.210938 -24.203125 C 36.871094 -21.492188 36.648438 -21.378906 36.648438 -24.089844 C 36.648438 -25.335938 36.871094 -26.242188 36.984375 -26.242188 C 37.210938 -26.242188 37.324219 -25.5625 37.210938 -24.203125 Z M 39.023438 -15.949219 C 38.796875 -15.609375 38.457031 -18.4375 38.230469 -22.394531 C 38.117188 -25.335938 38.117188 -27.03125 38.34375 -27.144531 C 38.683594 -27.257812 38.796875 -25.449219 38.910156 -21.714844 C 39.023438 -18.550781 39.023438 -15.949219 39.023438 -15.949219 Z M 44.335938 -26.804688 C 44.226562 -24.429688 44.113281 -22.394531 44 -22.394531 C 43.773438 -22.054688 43.886719 -28.277344 44.226562 -29.746094 C 44.449219 -30.652344 44.449219 -29.519531 44.335938 -26.804688 Z M 49.425781 -54.515625 C 49.316406 -53.273438 48.636719 -49.878906 47.957031 -46.824219 C 47.277344 -43.773438 46.488281 -40.945312 46.375 -40.492188 C 45.808594 -39.136719 46.035156 -40.71875 46.824219 -43.660156 C 47.164062 -45.242188 47.957031 -48.863281 48.523438 -51.691406 C 49.203125 -54.855469 49.539062 -55.875 49.425781 -54.515625 Z M 47.050781 -59.269531 C 47.050781 -59.042969 46.148438 -54.742188 45.015625 -49.992188 C 43.773438 -45.128906 42.753906 -40.605469 42.640625 -39.8125 C 42.414062 -39.136719 42.1875 -38.570312 42.074219 -38.570312 C 41.738281 -38.570312 42.414062 -41.738281 44.902344 -51.691406 C 46.035156 -56.214844 46.9375 -59.605469 47.050781 -59.269531 Z M 45.46875 -59.945312 C 45.582031 -59.832031 45.128906 -57.683594 44.449219 -55.195312 C 43.09375 -50.445312 41.398438 -43.09375 40.605469 -39.472656 C 40.378906 -38.34375 40.039062 -37.4375 39.925781 -37.4375 C 39.699219 -37.4375 39.585938 -37.550781 39.585938 -37.664062 C 39.585938 -38.796875 42.527344 -51.125 43.886719 -55.988281 C 44.902344 -59.269531 45.242188 -60.171875 45.46875 -59.945312 Z M 42.300781 -54.96875 C 43.660156 -59.605469 43.660156 -58.25 42.300781 -53.160156 C 41.171875 -49.425781 38.457031 -37.664062 38.457031 -36.984375 C 38.457031 -36.871094 38.34375 -36.757812 38.117188 -36.757812 C 37.550781 -36.757812 40.039062 -47.730469 42.300781 -54.96875 Z M 5.542969 -41.511719 C 5.882812 -41.960938 6.109375 -42.074219 6.109375 -41.960938 C 6.109375 -41.285156 5.089844 -39.699219 5.089844 -40.265625 C 5.089844 -40.605469 5.316406 -41.171875 5.542969 -41.511719 Z M 4.296875 -41.398438 C 4.523438 -41.738281 4.636719 -41.738281 4.636719 -41.625 C 4.636719 -40.832031 4.070312 -39.699219 3.957031 -40.265625 C 3.957031 -40.605469 4.183594 -41.058594 4.296875 -41.398438 Z M 4.296875 -41.398438 "/></g></g></g></svg>